<?xml version="1.0" encoding="utf-8"?>
<!-- Generator: Adobe Illustrator 20.0.0, SVG Export Plug-In . SVG Version: 6.00 Build 0)  -->
<svg version="1.1" id="Layer_1" xmlns="http://www.w3.org/2000/svg" xmlns:xlink="http://www.w3.org/1999/xlink" x="0px" y="0px"
	 viewBox="0 0 138.6 113.8" style="enable-background:new 0 0 138.6 113.8;" xml:space="preserve">
<style type="text/css">
	.st0{fill:#034EA2;}
	.st1{fill:#FFF200;}
</style>
<path class="st0" d="M120.7,19.8H16.8c-1,0-1.8,0.8-1.8,1.8v68.3c0,1,0.8,1.8,1.8,1.8h103.9c1,0,1.8-0.8,1.8-1.8V21.6
	C122.5,20.6,121.7,19.8,120.7,19.8z"/>
<polygon class="st1" points="69.9,30.1 73.7,30.1 70.7,32.4 71.8,36.1 68.8,33.8 65.8,36.1 67,32.4 64,30.1 67.7,30.1 68.8,26.4 "/>
<polygon class="st1" points="70.1,78 73.8,78 70.8,80.3 72,83.8 69,81.6 66,83.8 67.2,80.3 64.1,78 67.8,78 69,74.5 "/>
<polygon class="st1" points="81.9,74.8 85.7,74.8 82.7,77.1 83.8,80.7 80.8,78.4 77.8,80.7 79,77.1 76,74.8 79.7,74.8 80.8,71.3 "/>
<polygon class="st1" points="81.9,33.3 85.7,33.3 82.7,35.5 83.8,39.1 80.8,36.9 77.8,39.1 79,35.5 76,33.3 79.7,33.3 80.8,29.8 "/>
<polygon class="st1" points="90.7,42.1 94.5,42.1 91.5,44.3 92.6,47.9 89.6,45.7 86.6,47.9 87.8,44.3 84.8,42.1 88.5,42.1 
	89.6,38.6 "/>
<polygon class="st1" points="90.7,66.1 94.5,66.1 91.5,68.4 92.6,72 89.6,69.8 86.6,72 87.8,68.4 84.8,66.1 88.5,66.1 89.6,62.6 "/>
<polygon class="st1" points="94,53.9 97.8,53.9 94.8,56.2 95.9,59.8 92.9,57.5 89.9,59.8 91.1,56.2 88.1,53.9 91.8,53.9 92.9,50.4 
	"/>
<polygon class="st1" points="57.9,33.3 61.6,33.3 58.6,35.5 59.8,39.1 56.8,36.9 53.8,39.1 54.9,35.5 51.9,33.3 55.6,33.3 
	56.8,29.8 "/>
<polygon class="st1" points="49.3,42.1 53,42.1 50,44.3 51.2,47.9 48.2,45.7 45.2,47.9 46.4,44.3 43.3,42.1 47.1,42.1 48.2,38.6 "/>
<polygon class="st1" points="46.1,53.9 49.9,53.9 46.9,56.2 48,59.8 45,57.6 42,59.8 43.2,56.2 40.2,53.9 43.9,53.9 45,50.5 "/>
<polygon class="st1" points="49.3,66.2 53,66.2 50,68.4 51.2,72 48.2,69.8 45.2,72 46.4,68.4 43.3,66.2 47.1,66.2 48.2,62.7 "/>
<polygon class="st1" points="58,74.8 61.7,74.8 58.7,77.1 59.9,80.7 56.9,78.5 53.9,80.7 55.1,77.1 52,74.8 55.7,74.8 56.9,71.3 "/>
</svg>
