<?xml version="1.0" encoding="utf-8"?>
<!-- Generator: Adobe Illustrator 16.0.0, SVG Export Plug-In . SVG Version: 6.00 Build 0)  -->
<!DOCTYPE svg PUBLIC "-//W3C//DTD SVG 1.1//EN" "http://www.w3.org/Graphics/SVG/1.1/DTD/svg11.dtd">
<svg version="1.1" id="Layer_1" xmlns="http://www.w3.org/2000/svg" xmlns:xlink="http://www.w3.org/1999/xlink" x="0px" y="0px"
	 width="361.029px" height="300.482px" viewBox="0 0 361.029 300.482" enable-background="new 0 0 361.029 300.482"
	 xml:space="preserve">
<g>
	<defs>
		<rect id="SVGID_1_" width="361.029" height="300.482"/>
	</defs>
	<clipPath id="SVGID_2_">
		<use xlink:href="#SVGID_1_"  overflow="visible"/>
	</clipPath>
	
		<path clip-path="url(#SVGID_2_)" fill="none" stroke="#F88027" stroke-width="14" stroke-linecap="round" stroke-miterlimit="10" d="
		M292.834,171.078c33.798,0,61.195,27.397,61.195,61.194s-27.397,61.194-61.195,61.194c-33.797,0-61.194-27.397-61.194-61.194
		c0-20.922,10.5-39.392,26.517-50.428"/>
	
		<path clip-path="url(#SVGID_2_)" fill="none" stroke="#F88027" stroke-width="14" stroke-linecap="round" stroke-miterlimit="10" d="
		M124.139,207.438c13.715,30.889-0.206,67.048-31.095,80.763c-30.889,13.716-67.048-0.206-80.763-31.095
		c-13.716-30.889,0.206-67.048,31.095-80.763c19.122-8.491,40.263-6.391,56.849,3.77"/>
	
		<path clip-path="url(#SVGID_2_)" fill="none" stroke="#F88027" stroke-width="10" stroke-linecap="round" stroke-linejoin="round" stroke-miterlimit="10" d="
		M242.207,5.834C293.346-1,340.341,34.916,347.175,86.053"/>
	
		<path clip-path="url(#SVGID_2_)" fill="none" stroke="#F88027" stroke-width="10" stroke-linecap="round" stroke-linejoin="round" stroke-miterlimit="10" d="
		M245.912,33.56c35.825-4.788,68.749,20.373,73.536,56.199"/>
	
		<path clip-path="url(#SVGID_2_)" fill="none" stroke="#F88027" stroke-width="10" stroke-linecap="round" stroke-linejoin="round" stroke-miterlimit="10" d="
		M249.268,58.664c21.961-2.935,42.142,12.489,45.077,34.449"/>
	
		<line clip-path="url(#SVGID_2_)" fill="none" stroke="#F88027" stroke-width="14" stroke-linecap="round" stroke-miterlimit="10" x1="108.851" y1="169.204" x2="68.21" y2="232.272"/>
	
		<polyline clip-path="url(#SVGID_2_)" fill="none" stroke="#F88027" stroke-width="14" stroke-linecap="round" stroke-linejoin="round" stroke-miterlimit="10" points="
		115.592,113.642 177.013,236.133 242.178,137.282 129.42,137.282 	"/>
	
		<line clip-path="url(#SVGID_2_)" fill="none" stroke="#F88027" stroke-width="14" stroke-linecap="round" stroke-miterlimit="10" x1="212.461" y1="98.901" x2="257.035" y2="98.901"/>
	
		<path clip-path="url(#SVGID_2_)" fill="none" stroke="#F88027" stroke-width="14" stroke-linecap="round" stroke-miterlimit="10" d="
		M236.679,98.901c0,0-0.009,73.705,56.155,133.371"/>
	
		<path clip-path="url(#SVGID_2_)" fill="none" stroke="#F88027" stroke-width="14" stroke-linecap="round" stroke-linejoin="round" stroke-miterlimit="10" d="
		M139.379,113.642c0,0-33.428,3.526-48.761-7.054"/>
</g>
</svg>
