<?xml version="1.0" encoding="utf-8"?>
<!-- Generator: Adobe Illustrator 19.0.1, SVG Export Plug-In . SVG Version: 6.00 Build 0)  -->
<svg version="1.1" id="Слой_1" xmlns="http://www.w3.org/2000/svg" xmlns:xlink="http://www.w3.org/1999/xlink" x="0px" y="0px"
	 width="17.5px" height="17.5px" viewBox="0 0 17.5 17.5" style="enable-background:new 0 0 17.5 17.5;" xml:space="preserve">
<style type="text/css">
	.st0{fill:#6EBA71;}
</style>
<g>
	<path class="st0" d="M15.2,17.5C15.2,17.5,15.2,17.5,15.2,17.5L2,17.2c-0.5,0-1-0.2-1.4-0.6C0.2,16.2,0,15.7,0,15.2L0.3,2
		c0-1.1,0.9-2,2-2l13.2,0.3c0.5,0,1,0.2,1.4,0.6c0.4,0.4,0.6,0.9,0.6,1.4l-0.3,13.2C17.2,16.7,16.3,17.5,15.2,17.5z M4,13.3l9.2,0.2
		l0.2-9.2L4.3,4L4,13.3z"/>
</g>
</svg>
