<?xml version="1.0" encoding="utf-8"?>
<!-- Generator: Adobe Illustrator 19.0.1, SVG Export Plug-In . SVG Version: 6.00 Build 0)  -->
<svg version="1.1" id="Слой_1" xmlns="http://www.w3.org/2000/svg" xmlns:xlink="http://www.w3.org/1999/xlink" x="0px" y="0px"
	 width="11.9px" height="23.3px" viewBox="0 0 11.9 23.3" style="enable-background:new 0 0 11.9 23.3;" xml:space="preserve">
<style type="text/css">
	.st0{fill:#6EBA71;}
</style>
<g>
	<path class="st0" d="M6,23.3c-0.8,0-1.6-0.5-1.9-1.4c-0.9-2.6,1.1-4.6,2.4-5.9c0.4-0.5,1.5-1.5,1.4-1.8c-0.1-0.3-1.6-0.5-2.2-0.6
		c-1.8-0.3-4.5-0.7-5.4-3.3c-0.9-2.6,1.1-4.6,2.4-5.9C3,4,4.1,2.9,4,2.6c-0.4-1,0.2-2.2,1.3-2.5c1-0.3,2.2,0.2,2.5,1.3
		C8.6,4,6.7,5.9,5.4,7.2C5,7.7,3.9,8.8,4,9.1c0.1,0.3,1.6,0.5,2.2,0.6c1.8,0.3,4.5,0.7,5.4,3.3c0.9,2.6-1.1,4.6-2.4,5.9
		c-0.4,0.5-1.5,1.5-1.4,1.8c0.4,1-0.2,2.2-1.3,2.5C6.4,23.2,6.2,23.3,6,23.3z"/>
</g>
</svg>
