<?xml version="1.0" encoding="utf-8"?>
<!-- Generator: Adobe Illustrator 19.0.1, SVG Export Plug-In . SVG Version: 6.00 Build 0)  -->
<svg version="1.1" id="Слой_1" xmlns="http://www.w3.org/2000/svg" xmlns:xlink="http://www.w3.org/1999/xlink" x="0px" y="0px"
	 width="16.8px" height="16.8px" viewBox="0 0 16.8 16.8" style="enable-background:new 0 0 16.8 16.8;" xml:space="preserve">
<style type="text/css">
	.st0{fill:#6EBA71;}
</style>
<g>
	<path class="st0" d="M8.4,16.8C8.4,16.8,8.4,16.8,8.4,16.8c-1.3,0-2.7-0.3-3.9-0.9C0.4,13.8-1.2,8.7,0.9,4.5C2.4,1.7,5.3,0,8.4,0
		c1.3,0,2.7,0.3,3.9,0.9c4.1,2.1,5.7,7.2,3.6,11.4C14.4,15.1,11.6,16.8,8.4,16.8z M8.4,3.1c-2,0-3.8,1.1-4.7,2.9
		C2.3,8.6,3.4,11.8,6,13.1c0.8,0.4,1.6,0.6,2.4,0.6c2,0,3.8-1.1,4.7-2.9c1.4-2.6,0.3-5.8-2.3-7.2C10.1,3.3,9.3,3.1,8.4,3.1z"/>
</g>
</svg>
