<?xml version="1.0" encoding="utf-8"?>
<!-- Generator: Adobe Illustrator 19.0.1, SVG Export Plug-In . SVG Version: 6.00 Build 0)  -->
<svg version="1.1" id="Слой_1" xmlns="http://www.w3.org/2000/svg" xmlns:xlink="http://www.w3.org/1999/xlink" x="0px" y="0px"
	 width="12.3px" height="16.4px" viewBox="0 0 12.3 16.4" style="enable-background:new 0 0 12.3 16.4;" xml:space="preserve">
<style type="text/css">
	.st0{fill:#4FA2DA;}
</style>
<g>
	<path class="st0" d="M3.9,16.4c-1,0-1.9-0.2-2.9-0.5c-0.8-0.3-1.2-1.2-0.9-2c0.3-0.8,1.2-1.2,2-0.9c1.3,0.5,2.8,0.4,4.1-0.2
		c1.3-0.6,2.3-1.7,2.7-3C9.4,8.5,9.3,7,8.7,5.8C8.1,4.5,7,3.5,5.7,3C4.9,2.7,4.5,1.8,4.8,1c0.3-0.8,1.2-1.2,2-0.9
		c2.1,0.8,3.8,2.3,4.8,4.3c1,2,1.1,4.3,0.3,6.4C11,13,9.5,14.7,7.5,15.6C6.3,16.2,5.1,16.4,3.9,16.4z"/>
</g>
</svg>
