<?xml version="1.0" encoding="utf-8"?>
<!-- Generator: Adobe Illustrator 19.0.1, SVG Export Plug-In . SVG Version: 6.00 Build 0)  -->
<svg version="1.1" id="Слой_1" xmlns="http://www.w3.org/2000/svg" xmlns:xlink="http://www.w3.org/1999/xlink" x="0px" y="0px"
	 width="19.9px" height="19.9px" viewBox="0 0 19.9 19.9" style="enable-background:new 0 0 19.9 19.9;" xml:space="preserve">
<style type="text/css">
	.st0{fill:#6EBA71;}
</style>
<g>
	<path class="st0" d="M9.9,19.9C9.9,19.9,9.9,19.9,9.9,19.9c-1.1,0-2-0.9-2-2L8.1,2c0-1.1,0.9-2,2-2c1.1,0,2,0.9,2,2L11.9,18
		C11.9,19.1,11,19.9,9.9,19.9z"/>
	<path class="st0" d="M17.9,12.1C17.9,12.1,17.9,12.1,17.9,12.1L2,11.9c-1.1,0-2-0.9-2-2c0-1.1,0.9-2,2-2L18,8.1c1.1,0,2,0.9,2,2
		C19.9,11.2,19,12.1,17.9,12.1z"/>
</g>
</svg>
