<?xml version="1.0" encoding="utf-8"?>
<!-- Generator: Adobe Illustrator 16.0.0, SVG Export Plug-In . SVG Version: 6.00 Build 0)  -->
<!DOCTYPE svg PUBLIC "-//W3C//DTD SVG 1.1//EN" "http://www.w3.org/Graphics/SVG/1.1/DTD/svg11.dtd">
<svg version="1.1" id="Layer_1" xmlns="http://www.w3.org/2000/svg" xmlns:xlink="http://www.w3.org/1999/xlink" x="0px" y="0px"
	 width="321.323px" height="344.631px" viewBox="0 0 321.323 344.631" enable-background="new 0 0 321.323 344.631"
	 xml:space="preserve">
<g>
	<defs>
		<rect id="SVGID_1_" width="321.323" height="344.631"/>
	</defs>
	<clipPath id="SVGID_2_">
		<use xlink:href="#SVGID_1_"  overflow="visible"/>
	</clipPath>
	
		<path clip-path="url(#SVGID_2_)" fill="none" stroke="#F88027" stroke-width="10" stroke-linecap="round" stroke-linejoin="round" stroke-miterlimit="10" d="
		M186.173,5.941C243.9-1.774,296.951,38.77,304.666,96.498"/>
	
		<path clip-path="url(#SVGID_2_)" fill="none" stroke="#F88027" stroke-width="10" stroke-linecap="round" stroke-linejoin="round" stroke-miterlimit="10" d="
		M190.355,37.239c40.441-5.405,77.607,22.999,83.013,63.441"/>
	
		<path clip-path="url(#SVGID_2_)" fill="none" stroke="#F88027" stroke-width="10" stroke-linecap="round" stroke-linejoin="round" stroke-miterlimit="10" d="
		M194.143,65.579c24.791-3.313,47.573,14.098,50.886,38.889"/>
	
		<path clip-path="url(#SVGID_2_)" fill="none" stroke="#F88027" stroke-width="14" stroke-linecap="round" stroke-linejoin="round" stroke-miterlimit="10" d="
		M239.578,162.802c0,10.75-8.715,19.464-19.465,19.464H81.425c-10.75,0-19.464-8.714-19.464-19.464
		c0-10.75,8.714-19.464,19.464-19.464h138.688C230.863,143.338,239.578,152.052,239.578,162.802z"/>
	
		<path clip-path="url(#SVGID_2_)" fill="none" stroke="#F88027" stroke-width="14" stroke-linecap="round" stroke-linejoin="round" stroke-miterlimit="10" d="
		M61.961,279.585c0-10.75,8.714-19.464,19.464-19.464h138.689c10.75,0,19.464,8.714,19.464,19.464s-8.714,19.464-19.464,19.464
		H81.425C70.675,299.049,61.961,290.335,61.961,279.585z"/>
	
		<path clip-path="url(#SVGID_2_)" fill="none" stroke="#F88027" stroke-width="14" stroke-linecap="round" stroke-linejoin="round" stroke-miterlimit="10" d="
		M111.425,298.703h78.688c10.75,0,19.465,8.714,19.465,19.464c0,10.749-8.715,19.465-19.465,19.465h-78.688
		c-10.75,0-19.464-8.716-19.464-19.465"/>
	
		<path clip-path="url(#SVGID_2_)" fill="none" stroke="#F88027" stroke-width="14" stroke-linecap="round" stroke-linejoin="round" stroke-miterlimit="10" d="
		M190.114,143.174h-78.689c-10.75,0-19.464-8.714-19.464-19.464c0-10.749,8.714-19.464,19.464-19.464h78.689
		c10.75,0,19.464,8.715,19.464,19.464"/>
	
		<path clip-path="url(#SVGID_2_)" fill="none" stroke="#F88027" stroke-width="14" stroke-linecap="round" stroke-linejoin="round" stroke-miterlimit="10" d="
		M124.743,260.121v-41.359c0-14.374,11.652-26.025,26.026-26.025c14.374,0,26.027,11.651,26.027,26.025v41.359H124.743z"/>
	
		<path clip-path="url(#SVGID_2_)" fill="none" stroke="#F88027" stroke-width="14" stroke-linecap="round" stroke-linejoin="round" stroke-miterlimit="10" d="
		M124.743,221.193H63.082c-10.75,0-19.464,8.714-19.464,19.464c0,10.749,8.714,19.464,19.464,19.464h175.375
		c10.749,0,19.464-8.715,19.464-19.464c0-10.75-8.715-19.464-19.464-19.464h-61.66"/>
	
		<path clip-path="url(#SVGID_2_)" fill="none" stroke="#F88027" stroke-width="14" stroke-linecap="round" stroke-linejoin="round" stroke-miterlimit="10" d="
		M124.743,221.193H63.082c-10.75,0-19.464-8.714-19.464-19.464c0-10.749,8.714-19.464,19.464-19.464h175.375
		c10.749,0,19.464,8.715,19.464,19.464c0,10.75-8.715,19.464-19.464,19.464h-61.66"/>
	
		<path clip-path="url(#SVGID_2_)" fill="none" stroke="#F88027" stroke-width="10" stroke-linecap="round" stroke-linejoin="round" stroke-miterlimit="10" d="
		M19.525,319.048c-3.718-3.718-3.718-9.747,0-13.466l6.533-6.533c3.718-3.718,9.747-3.718,13.466,0
		c3.718,3.719,3.718,9.748,0,13.466l-6.533,6.533C29.272,322.767,23.244,322.767,19.525,319.048z"/>
	
		<line clip-path="url(#SVGID_2_)" fill="none" stroke="#F88027" stroke-width="10" stroke-linecap="round" stroke-linejoin="round" stroke-miterlimit="10" x1="33.597" y1="296.261" x2="9.311" y2="296.261"/>
	
		<line clip-path="url(#SVGID_2_)" fill="none" stroke="#F88027" stroke-width="10" stroke-linecap="round" stroke-linejoin="round" stroke-miterlimit="10" x1="42.313" y1="329.167" x2="42.313" y2="304.881"/>
	
		<path clip-path="url(#SVGID_2_)" fill="none" stroke="#F88027" stroke-width="10" stroke-linecap="round" stroke-linejoin="round" stroke-miterlimit="10" d="
		M15.119,84.394c3.719-3.718,9.747-3.718,13.466,0l6.533,6.533c3.718,3.718,3.718,9.747,0,13.466c-3.719,3.718-9.748,3.718-13.466,0
		l-6.533-6.533C11.401,94.141,11.401,88.113,15.119,84.394z"/>
	
		<line clip-path="url(#SVGID_2_)" fill="none" stroke="#F88027" stroke-width="10" stroke-linecap="round" stroke-linejoin="round" stroke-miterlimit="10" x1="37.907" y1="98.465" x2="37.907" y2="74.179"/>
	
		<line clip-path="url(#SVGID_2_)" fill="none" stroke="#F88027" stroke-width="10" stroke-linecap="round" stroke-linejoin="round" stroke-miterlimit="10" x1="5" y1="107.181" x2="29.286" y2="107.181"/>
	
		<path clip-path="url(#SVGID_2_)" fill="none" stroke="#F88027" stroke-width="10" stroke-linecap="round" stroke-linejoin="round" stroke-miterlimit="10" d="
		M293.535,186.418c-3.719-3.72-3.719-9.747,0-13.466l6.533-6.534c3.718-3.718,9.747-3.718,13.466,0
		c3.718,3.719,3.718,9.749,0,13.466l-6.533,6.533C303.282,190.136,297.254,190.136,293.535,186.418z"/>
	
		<line clip-path="url(#SVGID_2_)" fill="none" stroke="#F88027" stroke-width="10" stroke-linecap="round" stroke-linejoin="round" stroke-miterlimit="10" x1="307.606" y1="163.63" x2="283.32" y2="163.63"/>
	
		<line clip-path="url(#SVGID_2_)" fill="none" stroke="#F88027" stroke-width="10" stroke-linecap="round" stroke-linejoin="round" stroke-miterlimit="10" x1="316.322" y1="196.537" x2="316.322" y2="172.25"/>
</g>
</svg>
