<?xml version="1.0" encoding="utf-8"?>
<!-- Generator: Adobe Illustrator 16.0.0, SVG Export Plug-In . SVG Version: 6.00 Build 0)  -->
<!DOCTYPE svg PUBLIC "-//W3C//DTD SVG 1.1//EN" "http://www.w3.org/Graphics/SVG/1.1/DTD/svg11.dtd">
<svg version="1.1" id="Layer_1" xmlns="http://www.w3.org/2000/svg" xmlns:xlink="http://www.w3.org/1999/xlink" x="0px" y="0px"
	 width="57.734px" height="56.938px" viewBox="0 0 57.734 56.938" enable-background="new 0 0 57.734 56.938" xml:space="preserve">
<path fill="#E8E8E8" d="M28.855,0c-4.916,0-8.922,3.924-9.079,8.802c-8.686,3.4-14.842,11.51-15.735,20.806
	c-0.106,1.1,0.7,2.077,1.799,2.183c0.065,0.006,0.13,0.009,0.194,0.009c1.018,0,1.889-0.774,1.988-1.809
	C8.75,22.43,13.627,15.81,20.564,12.809c1.425,3.164,4.601,5.376,8.291,5.376c5.014,0,9.092-4.079,9.092-9.092
	C37.947,4.079,33.869,0,28.855,0 M28.855,14.685c-3.083,0-5.592-2.508-5.592-5.592s2.509-5.592,5.592-5.592
	c3.083,0,5.592,2.508,5.592,5.592S31.938,14.685,28.855,14.685"/>
<path fill="#6BC072" d="M40.332,51.971c-0.467-1.001-1.657-1.434-2.657-0.968c-6.886,3.21-15.065,2.365-21.17-2.09
	c2.004-2.833,2.299-6.692,0.427-9.871c-1.627-2.764-4.632-4.48-7.842-4.48c-1.615,0-3.208,0.435-4.606,1.258
	c-2.093,1.231-3.581,3.206-4.189,5.557c-0.609,2.352-0.266,4.799,0.966,6.892c1.627,2.764,4.633,4.48,7.843,4.48
	c1.52,0,3.017-0.39,4.354-1.121c4.454,3.495,9.927,5.311,15.436,5.311c3.566,0,7.146-0.759,10.471-2.309
	C40.365,54.162,40.798,52.972,40.332,51.971 M9.103,49.248c-1.976,0-3.825-1.056-4.826-2.756c-0.758-1.287-0.969-2.793-0.595-4.239
	c0.375-1.446,1.29-2.66,2.577-3.418c0.86-0.506,1.839-0.773,2.83-0.773c1.976,0,3.825,1.056,4.826,2.756
	c1.564,2.656,0.675,6.092-1.982,7.656C11.073,48.98,10.094,49.248,9.103,49.248"/>
<path fill="#E3E3E3" d="M53.48,35.91c1.451-9.214-2.441-18.623-10.014-24.088c-0.896-0.648-2.146-0.444-2.792,0.452
	c-0.646,0.895-0.444,2.145,0.45,2.792c6.159,4.444,9.41,11.995,8.5,19.497c-0.322-0.035-0.646-0.057-0.972-0.057
	c-3.221,0-6.23,1.725-7.854,4.502c-1.228,2.097-1.563,4.545-0.948,6.894c0.615,2.351,2.109,4.319,4.205,5.546
	c1.393,0.814,2.978,1.245,4.584,1.245c3.221,0,6.23-1.725,7.854-4.502C58.976,43.946,57.613,38.508,53.48,35.91 M53.473,46.423
	c-0.999,1.709-2.853,2.77-4.834,2.77c-0.985,0-1.96-0.265-2.817-0.767c-1.289-0.754-2.208-1.965-2.586-3.41s-0.171-2.951,0.583-4.24
	c0.999-1.708,2.853-2.77,4.834-2.77c0.986,0,1.959,0.265,2.817,0.767C54.131,40.329,55.03,43.762,53.473,46.423"/>
</svg>
