<?xml version="1.0" encoding="utf-8"?>
<!-- Generator: Adobe Illustrator 16.0.0, SVG Export Plug-In . SVG Version: 6.00 Build 0)  -->
<!DOCTYPE svg PUBLIC "-//W3C//DTD SVG 1.1//EN" "http://www.w3.org/Graphics/SVG/1.1/DTD/svg11.dtd">
<svg version="1.1" id="Layer_1" xmlns="http://www.w3.org/2000/svg" xmlns:xlink="http://www.w3.org/1999/xlink" x="0px" y="0px"
	 width="130.475px" height="129.677px" viewBox="0 0 130.475 129.677" enable-background="new 0 0 130.475 129.677"
	 xml:space="preserve">
<g>
	<defs>
		<rect id="SVGID_1_" width="130.475" height="129.677"/>
	</defs>
	<clipPath id="SVGID_2_">
		<use xlink:href="#SVGID_1_"  overflow="visible"/>
	</clipPath>
	<path clip-path="url(#SVGID_2_)" fill="#4AA3DF" d="M65.226,36.369c-4.916,0-8.922,3.924-9.079,8.802
		c-8.686,3.4-14.842,11.51-15.735,20.806c-0.106,1.1,0.7,2.077,1.799,2.183c0.065,0.006,0.13,0.009,0.194,0.009
		c1.018,0,1.889-0.774,1.988-1.809c0.727-7.561,5.605-14.181,12.542-17.182c1.425,3.164,4.601,5.376,8.291,5.376
		c5.014,0,9.092-4.079,9.092-9.092C74.317,40.448,70.239,36.369,65.226,36.369 M65.226,51.054c-3.083,0-5.592-2.508-5.592-5.592
		s2.509-5.592,5.592-5.592c3.083,0,5.592,2.508,5.592,5.592S68.309,51.054,65.226,51.054"/>
	<path clip-path="url(#SVGID_2_)" fill="#61CD72" d="M76.702,88.34c-0.467-1.001-1.657-1.434-2.657-0.968
		c-6.886,3.21-15.065,2.365-21.17-2.09c2.004-2.833,2.299-6.692,0.427-9.871c-1.627-2.764-4.632-4.48-7.842-4.48
		c-1.615,0-3.208,0.435-4.606,1.258c-2.093,1.231-3.581,3.206-4.189,5.557c-0.609,2.352-0.266,4.799,0.966,6.892
		c1.627,2.764,4.633,4.48,7.843,4.48c1.52,0,3.017-0.39,4.354-1.121c4.454,3.495,9.927,5.311,15.436,5.311
		c3.566,0,7.146-0.759,10.471-2.309C76.735,90.531,77.169,89.341,76.702,88.34 M45.474,85.617c-1.976,0-3.825-1.056-4.826-2.756
		c-0.758-1.287-0.969-2.793-0.595-4.239c0.375-1.446,1.29-2.66,2.577-3.418c0.86-0.506,1.839-0.773,2.83-0.773
		c1.976,0,3.825,1.056,4.826,2.756c1.564,2.656,0.675,6.092-1.982,7.656C47.443,85.35,46.464,85.617,45.474,85.617"/>
	<path clip-path="url(#SVGID_2_)" fill="#FB7E00" d="M89.851,72.279c1.451-9.214-2.441-18.623-10.014-24.088
		c-0.896-0.648-2.146-0.444-2.792,0.452c-0.646,0.895-0.444,2.145,0.45,2.792c6.159,4.444,9.41,11.995,8.5,19.497
		c-0.322-0.035-0.646-0.057-0.972-0.057c-3.221,0-6.23,1.725-7.854,4.502c-1.228,2.097-1.563,4.545-0.948,6.894
		c0.615,2.351,2.109,4.319,4.205,5.546c1.393,0.814,2.978,1.245,4.584,1.245c3.221,0,6.23-1.725,7.854-4.502
		C95.347,80.315,93.983,74.877,89.851,72.279 M89.844,82.792c-0.999,1.709-2.853,2.77-4.834,2.77c-0.985,0-1.96-0.265-2.817-0.767
		c-1.289-0.754-2.208-1.965-2.586-3.41s-0.171-2.951,0.583-4.24c0.999-1.708,2.853-2.77,4.834-2.77c0.986,0,1.959,0.265,2.817,0.767
		C90.502,76.698,91.4,80.131,89.844,82.792"/>
</g>
</svg>
