<?xml version="1.0" encoding="utf-8"?>
<!-- Generator: Adobe Illustrator 16.0.0, SVG Export Plug-In . SVG Version: 6.00 Build 0)  -->
<!DOCTYPE svg PUBLIC "-//W3C//DTD SVG 1.1//EN" "http://www.w3.org/Graphics/SVG/1.1/DTD/svg11.dtd">
<svg version="1.1" id="Layer_1" xmlns="http://www.w3.org/2000/svg" xmlns:xlink="http://www.w3.org/1999/xlink" x="0px" y="0px"
	 width="286.306px" height="56.938px" viewBox="0 0 286.306 56.938" enable-background="new 0 0 286.306 56.938"
	 xml:space="preserve">
<path fill="#4FA2DA" d="M28.855,0c-4.915,0-8.922,3.924-9.078,8.802c-8.686,3.4-14.842,11.51-15.735,20.806
	c-0.106,1.1,0.7,2.077,1.799,2.183c0.065,0.006,0.13,0.009,0.194,0.009c1.018,0,1.889-0.774,1.988-1.809
	C8.75,22.43,13.628,15.81,20.565,12.809c1.425,3.164,4.601,5.376,8.29,5.376c5.014,0,9.092-4.079,9.092-9.092
	C37.947,4.079,33.869,0,28.855,0 M28.855,14.685c-3.083,0-5.592-2.508-5.592-5.592s2.509-5.592,5.592-5.592s5.592,2.508,5.592,5.592
	S31.938,14.685,28.855,14.685"/>
<path fill="#6CC073" d="M40.333,51.971c-0.467-1.001-1.658-1.434-2.658-0.968c-6.885,3.21-15.065,2.365-21.17-2.09
	c2.004-2.833,2.299-6.692,0.427-9.871c-1.627-2.764-4.632-4.48-7.842-4.48c-1.615,0-3.208,0.435-4.606,1.258
	c-2.093,1.231-3.581,3.206-4.189,5.557c-0.609,2.352-0.266,4.799,0.966,6.892c1.627,2.764,4.633,4.48,7.843,4.48
	c1.52,0,3.017-0.39,4.354-1.121c4.454,3.495,9.927,5.311,15.436,5.311c3.566,0,7.146-0.759,10.471-2.309
	C40.365,54.162,40.798,52.972,40.333,51.971 M9.104,49.248c-1.976,0-3.825-1.056-4.826-2.756c-0.758-1.287-0.969-2.793-0.595-4.239
	c0.375-1.446,1.29-2.66,2.577-3.418c0.86-0.506,1.839-0.773,2.83-0.773c1.976,0,3.825,1.056,4.826,2.756
	c1.564,2.656,0.675,6.092-1.982,7.656C11.073,48.98,10.094,49.248,9.104,49.248"/>
<path fill="#F57E20" d="M53.48,35.91c1.451-9.214-2.441-18.623-10.014-24.088c-0.896-0.648-2.145-0.444-2.792,0.452
	c-0.646,0.895-0.444,2.145,0.451,2.792c6.159,4.444,9.41,11.995,8.5,19.497c-0.323-0.035-0.647-0.057-0.972-0.057
	c-3.221,0-6.231,1.725-7.855,4.502c-1.227,2.097-1.563,4.545-0.948,6.894c0.615,2.351,2.109,4.319,4.205,5.546
	c1.393,0.814,2.978,1.245,4.584,1.245c3.221,0,6.231-1.725,7.855-4.502C58.976,43.946,57.613,38.508,53.48,35.91 M53.473,46.423
	c-0.999,1.709-2.852,2.77-4.834,2.77c-0.985,0-1.96-0.265-2.817-0.767c-1.289-0.754-2.208-1.965-2.586-3.41s-0.171-2.951,0.583-4.24
	c0.999-1.708,2.852-2.77,4.834-2.77c0.986,0,1.959,0.265,2.817,0.767C54.131,40.329,55.03,43.762,53.473,46.423"/>
<path fill="#424143" d="M94.848,30.769l6.508-12.597c0.129-0.257,0.305-0.494,0.531-0.709c0.226-0.214,0.521-0.322,0.886-0.322
	h1.224c0.236,0,0.44,0.087,0.613,0.258c0.171,0.173,0.257,0.376,0.257,0.612v20.813c0,0.236-0.086,0.439-0.257,0.611
	c-0.173,0.172-0.377,0.259-0.613,0.259h-1.321c-0.236,0-0.44-0.087-0.612-0.259c-0.172-0.172-0.258-0.375-0.258-0.611V23.552
	l-5.025,9.697c-0.172,0.323-0.355,0.576-0.548,0.757c-0.194,0.183-0.451,0.275-0.773,0.275h-1.224c-0.323,0-0.58-0.093-0.774-0.275
	c-0.193-0.181-0.376-0.434-0.548-0.757l-5.025-9.697v15.271c0,0.236-0.086,0.439-0.258,0.611s-0.376,0.259-0.612,0.259h-1.32
	c-0.237,0-0.441-0.087-0.613-0.259c-0.172-0.172-0.258-0.375-0.258-0.611V18.011c0-0.236,0.086-0.439,0.258-0.612
	c0.172-0.171,0.376-0.258,0.613-0.258h1.223c0.365,0,0.661,0.108,0.887,0.322c0.226,0.215,0.402,0.452,0.531,0.709L94.848,30.769z"
	/>
<path fill="#424143" d="M108.861,35.473c0-0.859,0.171-1.611,0.515-2.255c0.344-0.646,0.816-1.192,1.418-1.644
	c0.6-0.451,1.305-0.815,2.11-1.096c0.805-0.279,1.659-0.494,2.561-0.644l4.543-0.74v-0.419c0-1.096-0.361-1.917-1.079-2.465
	c-0.72-0.548-1.617-0.821-2.691-0.821c-0.945,0-1.659,0.171-2.142,0.515c-0.483,0.344-0.897,0.752-1.241,1.224
	c-0.129,0.172-0.268,0.29-0.419,0.354c-0.15,0.065-0.353,0.097-0.611,0.097h-0.967c-0.236,0-0.446-0.086-0.628-0.258
	c-0.182-0.172-0.263-0.375-0.242-0.612c0.043-0.472,0.231-0.955,0.565-1.449c0.332-0.495,0.783-0.935,1.352-1.322
	c0.57-0.386,1.225-0.703,1.965-0.95c0.741-0.247,1.53-0.37,2.368-0.37c0.967,0,1.864,0.14,2.691,0.419
	c0.826,0.279,1.535,0.687,2.126,1.224c0.59,0.537,1.051,1.203,1.385,1.997c0.332,0.795,0.499,1.708,0.499,2.739v9.825
	c0,0.237-0.086,0.441-0.257,0.612c-0.172,0.172-0.376,0.258-0.613,0.258h-1.191c-0.237,0-0.441-0.086-0.612-0.258
	c-0.172-0.171-0.258-0.375-0.258-0.612v-1.319c-0.194,0.407-0.494,0.767-0.903,1.078c-0.408,0.312-0.875,0.575-1.401,0.789
	c-0.526,0.216-1.074,0.376-1.643,0.483c-0.569,0.108-1.101,0.162-1.594,0.162c-0.838,0-1.607-0.119-2.304-0.355
	c-0.698-0.235-1.289-0.553-1.771-0.949c-0.484-0.398-0.86-0.875-1.128-1.435C108.995,36.719,108.861,36.116,108.861,35.473
	 M114.789,37.244c0.772,0,1.481-0.117,2.126-0.354c0.645-0.237,1.197-0.564,1.659-0.983s0.816-0.918,1.064-1.498
	c0.246-0.58,0.37-1.225,0.37-1.934v-0.804l-3.802,0.61c-1.353,0.216-2.427,0.561-3.222,1.031c-0.795,0.473-1.191,1.085-1.191,1.837
	c0,0.237,0.053,0.473,0.161,0.708c0.106,0.238,0.278,0.462,0.515,0.677c0.236,0.216,0.543,0.388,0.919,0.517
	C113.763,37.181,114.229,37.244,114.789,37.244"/>
<path fill="#424143" d="M130.574,32.604v6.219c0,0.236-0.086,0.439-0.258,0.611c-0.172,0.172-0.376,0.258-0.611,0.258h-1.193
	c-0.236,0-0.44-0.086-0.612-0.258s-0.258-0.375-0.258-0.611V17.689c0-0.235,0.086-0.439,0.258-0.612
	c0.172-0.171,0.376-0.257,0.612-0.257h1.193c0.235,0,0.439,0.086,0.611,0.257c0.172,0.173,0.258,0.377,0.258,0.612v10.664
	l6.282-4.865c0.129-0.107,0.295-0.226,0.499-0.355c0.204-0.128,0.456-0.192,0.758-0.192h1.61c0.215,0,0.398,0.075,0.548,0.225
	c0.151,0.151,0.226,0.334,0.226,0.547c0,0.109-0.017,0.21-0.049,0.307c-0.032,0.097-0.134,0.209-0.306,0.338l-7.763,6.057
	l8.569,7.892c0.129,0.129,0.214,0.237,0.258,0.322c0.043,0.086,0.064,0.183,0.064,0.29c0,0.215-0.076,0.397-0.225,0.548
	c-0.151,0.151-0.333,0.226-0.548,0.226h-1.515c-0.321,0-0.596-0.064-0.821-0.192c-0.226-0.129-0.392-0.248-0.499-0.355
	L130.574,32.604z"/>
<path fill="#424143" d="M147.358,19.525c0,0.236-0.086,0.441-0.258,0.611c-0.171,0.173-0.376,0.258-0.612,0.258h-1.836
	c-0.236,0-0.44-0.085-0.612-0.258c-0.172-0.17-0.258-0.375-0.258-0.611v-1.837c0-0.235,0.086-0.439,0.258-0.612
	c0.172-0.171,0.376-0.257,0.612-0.257h1.836c0.236,0,0.441,0.086,0.612,0.257c0.172,0.173,0.258,0.377,0.258,0.612V19.525z
	 M147.036,38.822c0,0.237-0.086,0.44-0.258,0.612s-0.376,0.258-0.611,0.258h-1.192c-0.236,0-0.44-0.086-0.612-0.258
	s-0.258-0.375-0.258-0.612V23.81c0-0.235,0.086-0.439,0.258-0.612c0.172-0.171,0.376-0.257,0.612-0.257h1.192
	c0.235,0,0.439,0.086,0.611,0.257c0.172,0.173,0.258,0.377,0.258,0.612V38.822z"/>
<path fill="#424143" d="M166.752,38.822c0,0.237-0.086,0.44-0.258,0.612s-0.376,0.258-0.611,0.258h-1.192
	c-0.236,0-0.44-0.086-0.612-0.258s-0.258-0.375-0.258-0.612v-8.505c0-1.653-0.397-2.889-1.191-3.705
	c-0.795-0.815-1.9-1.224-3.317-1.224c-1.354,0-2.444,0.409-3.271,1.224c-0.827,0.816-1.24,2.052-1.24,3.705v8.505
	c0,0.237-0.086,0.44-0.258,0.612s-0.376,0.258-0.611,0.258h-1.192c-0.236,0-0.44-0.086-0.612-0.258s-0.258-0.375-0.258-0.612V23.81
	c0-0.235,0.086-0.439,0.258-0.612c0.172-0.171,0.376-0.257,0.612-0.257h1.192c0.235,0,0.439,0.086,0.611,0.257
	c0.172,0.173,0.258,0.377,0.258,0.612v0.999c0.408-0.537,1.015-1.036,1.82-1.498s1.863-0.692,3.174-0.692
	c1.009,0,1.943,0.166,2.803,0.499c0.858,0.333,1.595,0.806,2.206,1.418c0.612,0.611,1.091,1.369,1.434,2.27
	c0.344,0.903,0.516,1.913,0.516,3.029V38.822z"/>
<path fill="#424143" d="M170.618,30.254c0.064-1.182,0.29-2.244,0.677-3.19c0.387-0.944,0.902-1.744,1.547-2.4
	c0.646-0.654,1.401-1.159,2.271-1.514c0.869-0.354,1.809-0.531,2.818-0.531c1.331,0,2.395,0.23,3.189,0.692
	c0.794,0.462,1.396,0.961,1.804,1.498V23.81c0-0.235,0.086-0.439,0.258-0.612c0.172-0.171,0.376-0.257,0.612-0.257h1.193
	c0.234,0,0.438,0.086,0.611,0.257c0.171,0.173,0.257,0.377,0.257,0.612v15.658c0,2.232-0.634,4.01-1.9,5.332
	c-1.268,1.319-3.168,1.98-5.702,1.98c-1.289,0-2.39-0.154-3.302-0.465c-0.914-0.309-1.665-0.699-2.256-1.169
	c-0.591-0.469-1.03-0.981-1.32-1.538c-0.29-0.556-0.446-1.089-0.468-1.601c-0.021-0.236,0.06-0.438,0.243-0.609
	c0.181-0.171,0.391-0.256,0.628-0.256h0.966c0.236,0,0.435,0.058,0.596,0.175c0.161,0.116,0.316,0.346,0.467,0.686
	c0.064,0.128,0.167,0.302,0.307,0.525s0.365,0.445,0.677,0.669c0.311,0.224,0.719,0.414,1.224,0.573s1.144,0.24,1.917,0.24
	c0.709,0,1.369-0.071,1.981-0.21c0.613-0.141,1.144-0.371,1.595-0.693s0.8-0.752,1.047-1.289s0.37-1.19,0.37-1.965v-2.029
	c-0.43,0.579-1.042,1.091-1.836,1.53c-0.795,0.44-1.848,0.66-3.157,0.66c-1.01,0-1.949-0.177-2.818-0.531
	c-0.87-0.354-1.626-0.858-2.271-1.515c-0.645-0.655-1.16-1.455-1.547-2.4c-0.387-0.943-0.612-2.008-0.677-3.188
	c-0.021-0.322-0.032-0.676-0.032-1.063C170.586,30.93,170.597,30.575,170.618,30.254 M182.925,30.156
	c-0.063-1.523-0.521-2.7-1.369-3.527c-0.849-0.827-1.949-1.241-3.302-1.241c-1.418,0-2.534,0.452-3.35,1.353
	c-0.817,0.902-1.269,2.127-1.354,3.673c-0.021,0.601-0.021,1.202,0,1.804c0.086,1.546,0.537,2.771,1.354,3.672
	c0.815,0.903,1.932,1.354,3.35,1.354c1.353,0,2.453-0.419,3.302-1.257c0.849-0.837,1.306-2.008,1.369-3.512
	c0.021-0.322,0.032-0.708,0.032-1.159S182.946,30.479,182.925,30.156"/>
<path fill="#424143" d="M205.83,16.82c1.311,0,2.464,0.204,3.463,0.611c0.999,0.409,1.848,0.909,2.545,1.498
	c0.698,0.592,1.229,1.225,1.596,1.902c0.364,0.676,0.558,1.283,0.579,1.82c0.021,0.193-0.043,0.359-0.193,0.499
	c-0.15,0.14-0.322,0.209-0.516,0.209h-1.32c-0.237,0-0.424-0.042-0.564-0.129c-0.14-0.085-0.284-0.278-0.435-0.579
	c-0.107-0.215-0.285-0.488-0.531-0.822c-0.247-0.332-0.58-0.655-0.999-0.966c-0.419-0.312-0.929-0.58-1.53-0.806
	c-0.602-0.225-1.3-0.338-2.094-0.338c-0.602,0-1.176,0.07-1.724,0.209c-0.547,0.14-1.036,0.35-1.465,0.628
	c-0.431,0.28-0.774,0.629-1.032,1.047c-0.258,0.419-0.386,0.908-0.386,1.467s0.124,1.03,0.37,1.417
	c0.246,0.387,0.644,0.736,1.191,1.047s1.24,0.596,2.078,0.853c0.838,0.258,1.857,0.548,3.061,0.871
	c1.225,0.322,2.261,0.676,3.109,1.063c0.848,0.387,1.54,0.821,2.077,1.305c0.537,0.482,0.929,1.042,1.176,1.674
	c0.247,0.634,0.371,1.349,0.371,2.143c0,0.968-0.21,1.854-0.628,2.658c-0.419,0.805-1.005,1.498-1.756,2.078
	c-0.752,0.579-1.659,1.031-2.723,1.353c-1.063,0.322-2.25,0.483-3.56,0.483c-1.246,0-2.396-0.182-3.447-0.548
	c-1.053-0.365-1.955-0.837-2.706-1.417c-0.752-0.58-1.349-1.224-1.788-1.933c-0.44-0.709-0.672-1.406-0.692-2.095
	c0-0.192,0.069-0.358,0.209-0.499c0.14-0.14,0.306-0.21,0.499-0.21h1.321c0.215,0,0.402,0.043,0.563,0.129s0.307,0.279,0.436,0.58
	c0.13,0.301,0.327,0.628,0.596,0.983c0.269,0.354,0.628,0.687,1.079,0.999c0.451,0.311,0.999,0.574,1.643,0.789
	c0.646,0.214,1.407,0.321,2.288,0.321c0.751,0,1.466-0.086,2.143-0.258c0.676-0.172,1.272-0.419,1.787-0.74
	c0.516-0.322,0.924-0.709,1.225-1.159c0.301-0.451,0.452-0.956,0.452-1.516c0-0.559-0.173-1.036-0.517-1.434
	s-0.838-0.756-1.48-1.079c-0.646-0.322-1.435-0.617-2.369-0.885c-0.935-0.27-1.992-0.553-3.173-0.855
	c-1.075-0.278-1.987-0.616-2.739-1.015c-0.752-0.396-1.364-0.853-1.836-1.369c-0.473-0.515-0.812-1.084-1.015-1.707
	c-0.204-0.623-0.307-1.3-0.307-2.029c0-0.795,0.161-1.568,0.483-2.32c0.322-0.751,0.8-1.417,1.434-1.997
	c0.634-0.58,1.429-1.047,2.384-1.402C203.419,16.997,204.541,16.82,205.83,16.82"/>
<path fill="#424143" d="M217.685,29.705c0.086-0.987,0.322-1.911,0.709-2.77c0.388-0.859,0.892-1.611,1.515-2.255
	c0.623-0.645,1.37-1.149,2.238-1.515c0.87-0.364,1.843-0.547,2.916-0.547c1.16,0,2.195,0.188,3.108,0.564s1.692,0.918,2.336,1.627
	c0.646,0.709,1.139,1.568,1.483,2.577c0.342,1.01,0.515,2.138,0.515,3.383v0.869c0,0.236-0.087,0.44-0.258,0.611
	c-0.173,0.173-0.376,0.258-0.612,0.258h-11.082v0.193c0.042,1.461,0.488,2.583,1.337,3.368c0.849,0.784,1.905,1.175,3.173,1.175
	c1.181,0,2.066-0.166,2.658-0.5c0.59-0.332,1.067-0.703,1.435-1.111c0.17-0.171,0.321-0.29,0.45-0.354
	c0.128-0.065,0.321-0.098,0.579-0.098h0.968c0.235,0,0.45,0.088,0.644,0.259c0.194,0.173,0.269,0.376,0.226,0.611
	c-0.064,0.388-0.247,0.813-0.548,1.272c-0.301,0.462-0.735,0.892-1.305,1.29c-0.569,0.396-1.278,0.729-2.126,0.999
	c-0.849,0.267-1.843,0.401-2.98,0.401c-1.073,0-2.041-0.188-2.899-0.563c-0.859-0.376-1.605-0.891-2.239-1.546
	c-0.634-0.656-1.143-1.428-1.53-2.32c-0.387-0.891-0.623-1.863-0.709-2.916C217.577,31.682,217.577,30.694,217.685,29.705
	 M220.553,29.802h9.053v-0.097c0-1.309-0.414-2.356-1.24-3.14c-0.827-0.784-1.929-1.176-3.303-1.176
	c-0.623,0-1.202,0.101-1.738,0.306c-0.538,0.204-1.011,0.494-1.418,0.87c-0.409,0.376-0.731,0.832-0.968,1.369
	s-0.364,1.128-0.386,1.771V29.802z"/>
<path fill="#424143" d="M251.286,38.822c0,0.237-0.086,0.44-0.258,0.612s-0.376,0.258-0.611,0.258h-1.192
	c-0.236,0-0.44-0.086-0.612-0.258s-0.258-0.375-0.258-0.612v-8.505c0-1.653-0.397-2.889-1.191-3.705
	c-0.795-0.815-1.9-1.224-3.317-1.224c-1.354,0-2.444,0.409-3.271,1.224c-0.827,0.816-1.24,2.052-1.24,3.705v8.505
	c0,0.237-0.086,0.44-0.258,0.612s-0.376,0.258-0.611,0.258h-1.192c-0.236,0-0.44-0.086-0.612-0.258s-0.258-0.375-0.258-0.612V23.81
	c0-0.235,0.086-0.439,0.258-0.612c0.172-0.171,0.376-0.257,0.612-0.257h1.192c0.235,0,0.439,0.086,0.611,0.257
	c0.172,0.173,0.258,0.377,0.258,0.612v0.999c0.408-0.537,1.015-1.036,1.82-1.498s1.863-0.692,3.174-0.692
	c1.009,0,1.943,0.166,2.803,0.499c0.858,0.333,1.595,0.806,2.206,1.418c0.612,0.611,1.091,1.369,1.434,2.27
	c0.344,0.903,0.516,1.913,0.516,3.029V38.822z"/>
<path fill="#424143" d="M265.494,35.054c0-0.407-0.112-0.745-0.338-1.016c-0.225-0.267-0.563-0.499-1.016-0.692
	c-0.45-0.192-1.025-0.375-1.723-0.548c-0.697-0.171-1.51-0.354-2.433-0.548c-1.74-0.364-2.959-0.97-3.656-1.819
	c-0.698-0.849-1.048-1.841-1.048-2.98c0-0.644,0.129-1.256,0.387-1.835c0.259-0.581,0.645-1.096,1.16-1.547
	c0.517-0.452,1.165-0.806,1.949-1.063c0.783-0.258,1.702-0.387,2.754-0.387c1.053,0,1.971,0.119,2.755,0.355
	s1.444,0.537,1.981,0.901c0.537,0.366,0.944,0.757,1.224,1.176s0.43,0.822,0.451,1.208c0.021,0.237-0.06,0.441-0.241,0.612
	c-0.183,0.173-0.393,0.258-0.628,0.258h-1.063c-0.13,0-0.286-0.026-0.468-0.08c-0.184-0.054-0.35-0.178-0.5-0.371
	c-0.278-0.364-0.692-0.671-1.239-0.918c-0.549-0.246-1.306-0.37-2.272-0.37c-0.987,0-1.788,0.183-2.399,0.548
	c-0.612,0.365-0.919,0.869-0.919,1.513c0,0.409,0.086,0.737,0.259,0.983c0.171,0.247,0.45,0.462,0.837,0.644
	c0.387,0.183,0.896,0.35,1.53,0.499c0.635,0.151,1.424,0.334,2.368,0.548c0.987,0.215,1.814,0.49,2.48,0.822
	c0.665,0.334,1.203,0.709,1.61,1.128c0.408,0.418,0.698,0.88,0.87,1.385s0.259,1.036,0.259,1.595c0,0.645-0.157,1.268-0.468,1.868
	c-0.312,0.603-0.758,1.128-1.337,1.578c-0.58,0.451-1.284,0.817-2.109,1.096c-0.828,0.279-1.768,0.419-2.82,0.419
	c-1.052,0-1.986-0.129-2.802-0.387c-0.817-0.258-1.515-0.574-2.095-0.95s-1.026-0.783-1.337-1.225
	c-0.312-0.439-0.479-0.853-0.499-1.24c-0.022-0.235,0.054-0.438,0.225-0.611c0.172-0.172,0.387-0.259,0.645-0.259h1.16
	c0.129,0,0.278,0.018,0.451,0.05c0.171,0.031,0.332,0.155,0.483,0.369c0.343,0.474,0.815,0.839,1.417,1.097s1.386,0.386,2.352,0.386
	c0.473,0,0.939-0.053,1.402-0.161c0.462-0.106,0.869-0.258,1.224-0.451c0.354-0.192,0.639-0.424,0.854-0.691
	C265.388,35.671,265.494,35.375,265.494,35.054"/>
<path fill="#424143" d="M271.485,29.705c0.086-0.987,0.322-1.911,0.709-2.77c0.388-0.859,0.892-1.611,1.515-2.255
	c0.623-0.645,1.37-1.149,2.238-1.515c0.87-0.364,1.843-0.547,2.916-0.547c1.16,0,2.195,0.188,3.108,0.564s1.692,0.918,2.336,1.627
	c0.646,0.709,1.139,1.568,1.483,2.577c0.342,1.01,0.515,2.138,0.515,3.383v0.869c0,0.236-0.087,0.44-0.258,0.611
	c-0.173,0.173-0.376,0.258-0.612,0.258h-11.082v0.193c0.042,1.461,0.488,2.583,1.337,3.368c0.849,0.784,1.905,1.175,3.173,1.175
	c1.181,0,2.066-0.166,2.658-0.5c0.59-0.332,1.067-0.703,1.435-1.111c0.17-0.171,0.321-0.29,0.45-0.354
	c0.128-0.065,0.321-0.098,0.579-0.098h0.968c0.235,0,0.45,0.088,0.644,0.259c0.194,0.173,0.269,0.376,0.226,0.611
	c-0.064,0.388-0.247,0.813-0.548,1.272c-0.301,0.462-0.735,0.892-1.305,1.29c-0.569,0.396-1.278,0.729-2.126,0.999
	c-0.849,0.267-1.843,0.401-2.98,0.401c-1.073,0-2.041-0.188-2.899-0.563c-0.859-0.376-1.605-0.891-2.239-1.546
	c-0.634-0.656-1.143-1.428-1.53-2.32c-0.387-0.891-0.623-1.863-0.709-2.916C271.378,31.682,271.378,30.694,271.485,29.705
	 M274.354,29.802h9.053v-0.097c0-1.309-0.414-2.356-1.24-3.14c-0.827-0.784-1.929-1.176-3.303-1.176
	c-0.623,0-1.202,0.101-1.738,0.306c-0.538,0.204-1.011,0.494-1.418,0.87c-0.409,0.376-0.731,0.832-0.968,1.369
	s-0.364,1.128-0.386,1.771V29.802z"/>
</svg>
