<svg id="Layer_1" data-name="Layer 1" xmlns="http://www.w3.org/2000/svg" viewBox="0 0 200 200"><defs><style>.cls-1{fill:#4b545d;}</style></defs><title>PARTNERLOGO</title><path class="cls-1" d="M47.76,73H6.18v7.72h6.61c2.66,0,4.16.79,4.16,2.28V120c0,2.19-1.49,3.51-4.16,3.51H6.28v7.71H47.65v-7.71h-6.5c-2.67,0-4.16-1.32-4.16-3.51V84.27c0-3.16,1.49-3.51,4.16-3.51h6.61Z"/><path class="cls-1" d="M90.53,91.87v1.39c0,3.38-.81,4.16-2.42,4.16-1.18,0-1.39-.66-1.39-2.41V83.79C86.71,75,81.28,73,71.23,73c-5.94,0-17,1-17,7.66,0,2.84,2.94,4.46,6.38,4.46,2.93,0,5.8-1.14,5.8-3.8,0-2.11-2.42-3.08-4.62-3.32v-.12a12.68,12.68,0,0,1,5.8-1.15c4,0,7.12,1.33,7.12,5.31,0,7.88-21.79,1.19-21.79,12.59,0,6.16,4.33,8.4,11.3,8.4,4.77,0,8.29-1.33,11.3-4.28,1.17,2.89,4.62,4.28,8.14,4.28,8.15,0,10.93-1.87,10.93-7.9V91.87Zm-16,.48c0,2.53-1.1,5.07-5.28,5.07-2.27,0-4.18-.91-4.18-3.38,0-3.74,5.94-4.1,9.46-5.79Z"/><path class="cls-1" d="M151.6,99.32v1.95c0,4.74-1.13,5.84-3.4,5.84-1.65,0-2-.93-2-3.39V88c0-12.36-7.62-15.07-21.73-15.07-8.34,0-23.89,1.35-23.89,10.75,0,4,4.12,6.27,9,6.27,4.12,0,8.14-1.61,8.14-5.33,0-3-3.4-4.32-6.49-4.66v-.17a17.77,17.77,0,0,1,8.14-1.61c5.66,0,10,1.86,10,7.45,0,11.06-30.59,1.67-30.59,17.68,0,8.66,6.08,11.79,15.86,11.79,6.69,0,11.64-1.86,15.86-6,1.65,4.06,6.49,6,11.43,6,11.43,0,15.35-2.62,15.35-11.09V99.32Zm-22.45.68c0,3.56-1.54,7.11-7.42,7.11-3.19,0-5.87-1.27-5.87-4.74,0-5.25,8.34-5.76,13.28-8.13Z"/><path class="cls-1" d="M186.3,92.79c-.38,2.88-2.2,5.69-6.16,5.69-5.25,0-7.45-3.19-7.45-10.38s3.57-10.38,7.45-10.38a8.8,8.8,0,0,1,6.08,2.13c-3.42,0-5.85,1.69-5.85,4.56,0,3.31,3,4.56,6.69,4.56,4.26,0,6.77-2.81,6.77-6.13,0-6.88-7.6-10.13-15.74-10.13-9.73,0-18.86,5.12-18.86,15.57s7.53,15.57,18.86,15.57c8.52,0,15.43-3.06,15.74-11.07Z"/></svg>