<svg id="Layer_1" data-name="Layer 1" xmlns="http://www.w3.org/2000/svg" viewBox="0 0 200 200"><defs><style>.cls-1,.cls-3{fill:#4b545d;}.cls-1,.cls-4,.cls-5{fill-rule:evenodd;}.cls-2,.cls-5{fill:#dbdcde;}.cls-4{fill:#4f5760;}</style></defs><title>PARTNERLOGO</title><path class="cls-1" d="M95.29,112.26,122,93.08v8.75c-.16,6.76-2.43,16.62-8.2,23.7Z"/><path class="cls-1" d="M95.28,112.26,68.52,93v8.72c.17,6.81,2.44,16.67,8.21,23.75Z"/><polygon class="cls-2" points="95.28 112.26 68.52 93.08 68.63 92.92 121.85 92.85 121.97 93.08 95.28 112.26"/><rect class="cls-3" x="68.52" y="69.14" width="53.47" height="23.95"/><circle class="cls-2" cx="25.98" cy="84.81" r="5.59" transform="translate(-39.94 25.47) rotate(-30.98)"/><circle class="cls-2" cx="22" cy="98.45" r="5.16" transform="translate(-47.53 25.36) rotate(-30.98)"/><circle class="cls-2" cx="20.9" cy="112.02" r="4.73" transform="translate(-54.67 26.73) rotate(-30.98)"/><circle class="cls-2" cx="21.99" cy="124.16" r="4.3" transform="matrix(0.86, -0.51, 0.51, 0.86, -60.77, 29.02)"/><circle class="cls-2" cx="24.82" cy="135.53" r="3.87" transform="translate(-66.21 32.1) rotate(-30.98)"/><path class="cls-2" d="M113.79,125.49,95.28,112.26,76.73,125.49a42.21,42.21,0,0,0,18.59,13.93A41.06,41.06,0,0,0,113.79,125.49Z"/><path class="cls-2" d="M168.09,79.56A79.08,79.08,0,0,1,175,111.27h8.57v.95H167.27A72.19,72.19,0,0,0,161,82.76Z"/><path class="cls-2" d="M183.82,112.49H167v-.28a72.07,72.07,0,0,0-6.28-29.33l-.12-.26,7.65-3.43.12.26a79,79,0,0,1,6.9,31.54h8.58Zm-16.27-.58h15.71v-.38h-8.57v-.28A78.5,78.5,0,0,0,168,79.94l-6.61,3A72.63,72.63,0,0,1,167.55,111.92Z"/><path class="cls-4" d="M38.71,65.34c1.56,1.52,2.85,1,4.19-.47a3.11,3.11,0,0,0,1-2.65,4.55,4.55,0,0,0-1.5-2.17L38.72,56.8c-.66-.59-1-.48-1.58.22l-.18.17-.34-.31c.44-.43.88-.86,1.29-1.32s.8-.93,1.16-1.41l.34.31-.15.19c-.65.72-.74,1-.07,1.62l4.22,3.78a4,4,0,0,1,1.22,2,3.51,3.51,0,0,1-.15,2,7.3,7.3,0,0,1-1.14,1.76c-.93,1-2.21,2.14-3.72,1.78a3.64,3.64,0,0,1-1.75-1.06l-4.11-3.69c-.89-.8-1-.88-2,.16l-.34-.31c.5-.48,1-1,1.5-1.56s1-1.12,1.42-1.7l.34.31c-.93,1.15-.84,1.21.06,2Z"/><path class="cls-4" d="M55.11,53,50.49,46.9c-.54-.71-.84-.65-1.59-.09l-.2.14-.28-.37c.52-.33,1-.68,1.51-1.05s1-.77,1.41-1.17l.28.37-.19.16c-.77.58-.92.87-.38,1.58l5.38,7.08.38.42-1.1.56L44.36,51.84l4.53,6c.54.71.85.64,1.62.06l.2-.14.28.37c-.5.33-1,.67-1.5,1s-1,.77-1.42,1.18l-.28-.37.19-.16c.75-.57.88-.84.34-1.55l-4.67-6.15c-.54-.71-.82-.67-1.51-.16l-.17.13-.28-.37a11.52,11.52,0,0,0,2.11-1.61Z"/><path class="cls-4" d="M61.24,49.08c.58,1,.62,1.15,1.94.5l.22.4c-.67.32-1.31.64-2,1s-1.27.74-1.86,1.11l-.22-.4c1.25-.78,1.19-.87.61-1.91l-3.41-6.17c-.58-1-.62-1.15-1.94-.5l-.22-.4c.63-.29,1.27-.62,1.93-1s1.27-.74,1.9-1.14l.22.4c-1.25.78-1.19.87-.61,1.91Z"/><path class="cls-4" d="M62.37,40.14c-.62-.65-.53-.75-1.36-.55l-.28.09-.17-.43c.64-.21,1.28-.43,1.93-.68s1.26-.53,1.87-.82l.17.43c-1.38.51-1.19.75-1,1l1.17,1.37,4.46,4.76,0-5.39-.07-2c0-.91.16-1.72-1.53-1l-.17-.43c.53-.16,1-.33,1.57-.54s1-.44,1.51-.68l.17.43c-.94.3-.76.84-.76,1.57l-.06,6.81,0,3-.71.28-.68-.8-1-1.1Z"/><path class="cls-4" d="M77.22,42.52a8.25,8.25,0,0,0,.38,1.27,17.5,17.5,0,0,0,2-.41A8.91,8.91,0,0,0,82,42.55a3.9,3.9,0,0,0,0-.8l-.06-.85.49-.12A6.36,6.36,0,0,0,82.56,42l.29,1.24c-.53.21-1.54.43-2.46.66s-1.79.35-2.71.56-1.78.46-2.69.72l-.11-.45a1.21,1.21,0,0,0,1-1.65l-1.63-6.85C74,35.09,74,35,72.5,35.25l-.11-.45c.92-.17,1.82-.35,2.75-.57s1.83-.47,2.72-.72,2-.47,2.5-.51a5.12,5.12,0,0,0,.11,1.51c.07.31.09.58.16.89l-.46.11a7.09,7.09,0,0,0-.56-1.41,7.65,7.65,0,0,0-2.29.27,14.43,14.43,0,0,0-1.83.51,7.65,7.65,0,0,0,.22,1.26l.66,2.79c3.26-.74,3.51-.61,3.18-2.08l.49-.12.82,3.45-.49.12c-.4-1.69-.48-1.57-3.83-.65Z"/><path class="cls-4" d="M86.25,33.91c-.09-1.19-.08-1.3-1.55-1.27l0-.46c.86,0,1.75,0,2.65-.11s1.79-.16,2.67-.27c2.1-.26,3.17.82,3.26,2.1.12,1.67-1.31,2.77-2.77,3.17l3.8,4.28a1.32,1.32,0,0,0,.9.37l0,.46a7.77,7.77,0,0,0-1,0,8,8,0,0,0-1,.15c-.27-.3-.46-.57-.69-.81l-4-4.42,0-.23a6.19,6.19,0,0,0,1.4-.16,2.27,2.27,0,0,0,1.84-2.29,2.08,2.08,0,0,0-2.51-2,5.81,5.81,0,0,0-1.52.31,3.36,3.36,0,0,0,0,1.06l.51,7c.09,1.19.08,1.3,1.55,1.27l0,.46c-.74,0-1.46,0-2.21.08s-1.47.14-2.15.23l0-.46c1.46-.18,1.44-.29,1.36-1.48Z"/><path class="cls-4" d="M103.52,34.61a2.57,2.57,0,0,0-.06-1.24,2.82,2.82,0,0,0-2.15-1.06,2.22,2.22,0,0,0-2.49,2c-.25,3.32,6,1,5.76,4.87-.2,2.62-2.64,3.69-4.92,3.52a6.74,6.74,0,0,1-2.57-.78c.11-.58.19-1.31.25-1.9l0-.43.52,0-.05.72a1.06,1.06,0,0,0,.15.81,3.75,3.75,0,0,0,2.32.88,2.48,2.48,0,0,0,2.9-2.12c.28-3.7-6-.71-5.7-5.16a3.54,3.54,0,0,1,4-3.14,8.37,8.37,0,0,1,2.92.93,6.14,6.14,0,0,0-.18.73c-.07.46-.16.9-.21,1.35Z"/><path class="cls-4" d="M109.8,42c-.23,1.17-.27,1.28,1.17,1.64l-.09.45c-.71-.19-1.42-.36-2.15-.5s-1.45-.25-2.14-.34l.09-.45c1.46.21,1.47.1,1.7-1.08l1.35-6.91c.23-1.17.27-1.28-1.17-1.64l.09-.45c.67.18,1.37.35,2.11.49s1.45.25,2.18.35l-.09.45c-1.46-.21-1.47-.1-1.7,1.08Z"/><path class="cls-4" d="M119.2,37.68c.17-.56.32-1,.42-1.48l-2.27-.67c-.31-.09-.5-.1-.65.27a9.12,9.12,0,0,0-.53,1.07l-.44-.14c.09-.28.18-.54.26-.82.15-.51.31-1,.44-1.58,1.37.5,2.74,1,4.17,1.46s2.81.9,4.23,1.32c-.22.52-.41,1-.59,1.53-.11.27-.19.53-.29.81l-.44-.14a9.12,9.12,0,0,0,.21-1.17c.1-.39-.06-.49-.36-.61l-2.25-.83c-.19.42-.34.89-.54,1.44l-2.07,6.24c-.38,1.14-.43,1.23.95,1.77l-.14.44c-.68-.28-1.36-.53-2.07-.77s-1.41-.43-2.08-.61l.14-.44c1.42.39,1.44.28,1.82-.85Z"/><path class="cls-4" d="M141.49,59.28c-2.3-2-1.4-4.94.36-7s3.78-2.51,5.8-.76,1.86,4.3-.13,6.59C145.66,60.28,143.53,60.83,141.49,59.28Zm6.77-8.06a5.37,5.37,0,0,0-8,.4,5.27,5.27,0,0,0,.41,7.84,5.88,5.88,0,0,0,8.38-.59C151.3,56.29,150.74,53.37,148.26,51.21Z"/><path class="cls-4" d="M154,59.69c.92-.77,1-.83.12-2l.35-.3c.57.75,1.14,1.47,1.75,2.2s1.24,1.42,1.87,2.1,1.3,1.55,1.58,2a5.12,5.12,0,0,0-1.3.77c-.25.21-.48.34-.72.55l-.31-.36a7.09,7.09,0,0,0,1-1.13A7.65,7.65,0,0,0,157,61.59a14.44,14.44,0,0,0-1.28-1.41,5.47,5.47,0,0,0-.81.58l-2.41,2c2.13,2.58,2.13,2.86,3.29,1.91l.33.39-2.71,2.28-.33-.39c1.33-1.12,1.19-1.14-1.14-3.71l-2.47,2.08c-.92.77-1,.83-.12,2l-.35.3c-.44-.59-.88-1.16-1.36-1.74s-1-1.11-1.45-1.61l.35-.3c1,1.08,1.08,1,2,.23Z"/><path class="cls-4" d="M46,155.57a14.67,14.67,0,0,1,.09-1.89c1,0,2-.13,3-.13,3.82,0,6.7,1.8,6.7,6.48,0,4.06-1.91,7.21-7.57,7.06a18.27,18.27,0,0,1-2.09-.16A13,13,0,0,1,46,165Zm-2.09,10.5c0,1-.38,1.17-1.17,1.33V168c1-.07,2-.11,3-.11s2,0,3,.11a8.49,8.49,0,0,0,9.44-8.68c0-4.3-3.38-6.85-7.51-6.81-1.42.07-2.84.11-4.3.11s-2.89,0-4.31-.11v.69c1.75,0,2,.15,2,2.24Z"/><path class="cls-4" d="M64.94,162.93c-.13,3.14,1.64,4,4.55,4a4.5,4.5,0,0,0,3.77-1.53,6.53,6.53,0,0,0,.89-3.69v-7c0-1.28-.4-1.48-1.75-1.48l-.36,0v-.67q1.33.1,2.66.1c.89,0,1.78,0,2.64-.1v.67l-.35,0c-1.4,0-1.82.2-1.82,1.48v8.16a5.68,5.68,0,0,1-1,3.23,5.1,5.1,0,0,1-2.31,1.77,10.52,10.52,0,0,1-3,.47c-2,0-4.43-.31-5.49-2.29a5.26,5.26,0,0,1-.55-2.9v-8c0-1.73,0-1.88-2.11-2v-.67q1.5.1,3.12.1c1.08,0,2.12,0,3.19-.1v.67c-2.13.11-2.11.27-2.11,2Z"/><path class="cls-4" d="M94.16,165.73v-11c0-1.28-.4-1.48-1.75-1.48l-.35,0v-.67c.89.07,1.77.11,2.66.11s1.78,0,2.64-.11v.67l-.35,0c-1.4,0-1.82.2-1.82,1.48v12.82l.07.82-1.76-.31-10.71-13v10.8c0,1.28.42,1.48,1.82,1.48l.35,0V168c-.86-.07-1.75-.1-2.64-.1s-1.78,0-2.66.1v-.67l.35,0c1.35,0,1.75-.2,1.75-1.48V154.73c0-1.28-.35-1.48-1.6-1.51h-.31v-.67a18.55,18.55,0,0,0,3.84,0Z"/><path class="cls-4" d="M104.19,155.57a14.67,14.67,0,0,1,.09-1.89c1,0,2-.13,3-.13,3.82,0,6.7,1.8,6.7,6.48,0,4.06-1.91,7.21-7.57,7.06a18.27,18.27,0,0,1-2.09-.16,13,13,0,0,1-.09-1.89Zm-2.09,10.5c0,1-.38,1.17-1.18,1.33V168c1-.07,2-.11,3-.11s2,0,3,.11a8.49,8.49,0,0,0,9.44-8.68c0-4.3-3.38-6.85-7.51-6.81-1.42.07-2.84.11-4.3.11s-2.89,0-4.31-.11v.69c1.75,0,2,.15,2,2.24Z"/><path class="cls-4" d="M123.34,165a11.92,11.92,0,0,0,.11,1.91,25.24,25.24,0,0,0,3,.11,12.8,12.8,0,0,0,3.56-.38,5.71,5.71,0,0,0,.26-1.13l.2-1.22h.73a9.18,9.18,0,0,0-.22,1.79v1.84c-.81.11-2.29.09-3.67.11s-2.64-.1-4-.1-2.65,0-4,.1v-.67a1.75,1.75,0,0,0,1.91-2V155.22c0-1.73,0-1.88-2.11-2v-.67c1.35.07,2.68.1,4,.1s2.72,0,4.05-.1,2.92,0,3.67.11a7.42,7.42,0,0,0-.35,2.15c0,.46-.07.84-.07,1.3h-.68a10.2,10.2,0,0,0-.31-2.17,11.05,11.05,0,0,0-3.3-.38,20.86,20.86,0,0,0-2.75.11,11,11,0,0,0-.11,1.83v4.13c4.83,0,5.14.31,5.16-1.86h.73v5.12h-.73c0-2.5-.16-2.37-5.16-2.19Z"/><path class="cls-4" d="M138.66,165a11.92,11.92,0,0,0,.11,1.91,25.24,25.24,0,0,0,3,.11,12.8,12.8,0,0,0,3.56-.38,5.71,5.71,0,0,0,.26-1.13l.2-1.22h.73a9.18,9.18,0,0,0-.22,1.79v1.84c-.81.11-2.29.09-3.67.11s-2.64-.1-4-.1-2.65,0-4,.1v-.67a1.75,1.75,0,0,0,1.91-2V155.22c0-1.73,0-1.88-2.11-2v-.67c1.35.07,2.68.1,4,.1s2.72,0,4.05-.1,2.92,0,3.67.11a7.42,7.42,0,0,0-.35,2.15c0,.46-.07.84-.07,1.3h-.68a10.2,10.2,0,0,0-.31-2.17,11.05,11.05,0,0,0-3.3-.38,20.86,20.86,0,0,0-2.75.11,11,11,0,0,0-.11,1.83v4.13c4.83,0,5.14.31,5.16-1.86h.73v5.12h-.73c0-2.5-.16-2.37-5.16-2.19Z"/><path class="cls-5" d="M95.32,88.51h0c-10.4,0-16,2.43-16,2.43h0L70.86,77.29s4.08-.64,5.37,4.93c.14-2.18,1.47-3,2.63-2.29a3,3,0,0,1,.39,4.27s-.25-2.1-1.51-1.15a1,1,0,0,0-.42,1.15,3.35,3.35,0,0,0,1,1.38c.67.62,4.85.28,6-2.42.43-1.55.11-3-.55-3.38a.86.86,0,0,0-1.17.32,2,2,0,0,0,0,.66A1.09,1.09,0,0,1,82,79.67c0-.15-.41.11-.49.13a1.72,1.72,0,0,1-1.08-.25,1.71,1.71,0,0,1,.82-.74c.08,0,.59,0,.5-.12a1.09,1.09,0,0,1-.07-1.21,2,2,0,0,0,.35.56.86.86,0,0,0,1.18-.28.88.88,0,0,0-.32-1.2,2,2,0,0,0-.66,0A1.09,1.09,0,0,1,83.36,76c.15,0-.11-.41-.13-.49a1.78,1.78,0,0,1,.2-1.06,1.83,1.83,0,0,1,.72.84c0,.08,0,.59.12.5a1.09,1.09,0,0,1,1.21-.07,2,2,0,0,0-.56.35.88.88,0,0,0,.31,1.21.86.86,0,0,0,1.17-.32,2,2,0,0,0,0-.66A1.09,1.09,0,0,1,87,77.37c0,.15.41-.11.49-.13a1.72,1.72,0,0,1,1.08.25,1.72,1.72,0,0,1-.82.76c-.08,0-.59,0-.5.12a1.09,1.09,0,0,1,.07,1.21,2,2,0,0,0-.35-.56.86.86,0,0,0-1.18.28c-.4.63-.08,2,1.2,3.23,2.11,1.63,6.28.43,6.5-.8a3.35,3.35,0,0,0,.15-1.7,1,1,0,0,0-.95-.77C91.1,79.11,92,81,92,81a3,3,0,0,1-1.86-3.86c.6-1.24,2.19-1.19,3.43.61-1.76-5.44,1.78-7,1.78-7h0s3.53,1.57,1.78,7c1.24-1.8,2.83-1.85,3.43-.61A3,3,0,0,1,98.65,81s.86-1.93-.71-1.76A1,1,0,0,0,97,80a3.35,3.35,0,0,0,.15,1.7c.22,1.23,4.4,2.43,6.51.8,1.29-1.28,1.59-2.6,1.19-3.23a.86.86,0,0,0-1.18-.28,2,2,0,0,0-.35.56,1.09,1.09,0,0,1,.07-1.21c.09-.12-.41-.1-.5-.12a1.72,1.72,0,0,1-.82-.76,1.72,1.72,0,0,1,1.08-.25c.08,0,.52.28.49.13a1.09,1.09,0,0,1,.53-1.09,2,2,0,0,0,0,.66.86.86,0,0,0,1.17.32.88.88,0,0,0,.31-1.21,2,2,0,0,0-.56-.35,1.09,1.09,0,0,1,1.21.07c.12.09.1-.41.12-.5a1.83,1.83,0,0,1,.72-.84,1.78,1.78,0,0,1,.2,1.06c0,.08-.28.52-.13.49a1.09,1.09,0,0,1,1.09.53,2,2,0,0,0-.66,0,.88.88,0,0,0-.32,1.2.86.86,0,0,0,1.18.28,2,2,0,0,0,.35-.56,1.09,1.09,0,0,1-.07,1.21c-.09.12.41.1.5.12a1.71,1.71,0,0,1,.82.74,1.72,1.72,0,0,1-1.08.25c-.08,0-.52-.28-.49-.13a1.09,1.09,0,0,1-.53,1.09,2,2,0,0,0,0-.66.86.86,0,0,0-1.17-.32c-.65.36-1,1.82-.55,3.38,1.16,2.7,5.34,3,6,2.42a3.35,3.35,0,0,0,1-1.38,1,1,0,0,0-.42-1.15c-1.26-.95-1.51,1.15-1.51,1.15a3,3,0,0,1,.39-4.27c1.15-.75,2.49.11,2.63,2.29,1.29-5.57,5.37-4.93,5.37-4.93l-8.44,13.65h0S105.72,88.51,95.32,88.51Z"/><ellipse class="cls-3" cx="88.05" cy="86.2" rx="1.97" ry="1.11" transform="translate(-13.61 16.57) rotate(-9.99)"/><ellipse class="cls-3" cx="102.59" cy="86.22" rx="1.11" ry="1.97" transform="translate(-0.11 172.3) rotate(-80.01)"/><polygon class="cls-1" points="107.39 87.09 109.79 86.69 111.43 88.45 109.03 88.86 107.39 87.09"/><polygon class="cls-1" points="83.27 87.14 80.87 86.74 79.23 88.5 81.63 88.91 83.27 87.14"/><rect class="cls-3" x="92.99" y="84.63" width="4.64" height="2.27"/><path class="cls-5" d="M78.26,85.63a.62.62,0,0,0,.19-.85h0a.62.62,0,0,0-.85-.19l-1.83,1.17a.62.62,0,0,0-.19.85h0a.62.62,0,0,0,.85.19Z"/><path class="cls-5" d="M112.35,85.7a.62.62,0,0,1-.19-.85h0a.62.62,0,0,1,.85-.19l1.83,1.17a.62.62,0,0,1,.19.85h0a.62.62,0,0,1-.85.19Z"/><path class="cls-5" d="M97.07,82.18a.62.62,0,0,0,.62-.62h0a.62.62,0,0,0-.62-.62h-3.5a.62.62,0,0,0-.62.62h0a.62.62,0,0,0,.61.62Z"/><path class="cls-4" d="M133.07,43.19c.87-.58,1.69-.9,0-1.67l.21-.41c.47.29.94.55,1.45.8s1,.47,1.52.68L136,43c-.85-.49-1.37,0-2.46.64,0,0-3,1.72-3.58,2.22a2.62,2.62,0,0,0-.71.93l-.92,1.84c-.53,1.07-.6,1.16.69,1.88l-.21.41c-.64-.37-1.27-.71-1.95-1s-1.33-.64-2-.9l.21-.41c1.35.59,1.39.49,1.92-.58l1-2a1.13,1.13,0,0,0,.14-.46l-.21-3.7-.14-1.9c-.13-.93,0-.84-.66-1.32l-.25-.14.21-.41c.58.34,1.18.67,1.8,1s1.23.59,1.86.85l-.21.41c-1.3-.69-1.32-.35-1.36,0l0,.62.21,4.46L132,43.8Z"/></svg>