<?xml version="1.0" encoding="utf-8"?>
<!-- Generator: Adobe Illustrator 16.0.0, SVG Export Plug-In . SVG Version: 6.00 Build 0)  -->
<!DOCTYPE svg PUBLIC "-//W3C//DTD SVG 1.1//EN" "http://www.w3.org/Graphics/SVG/1.1/DTD/svg11.dtd">
<svg version="1.1" id="Layer_1" xmlns="http://www.w3.org/2000/svg" xmlns:xlink="http://www.w3.org/1999/xlink" x="0px" y="0px"
	 width="286.307px" height="56.938px" viewBox="0 0 286.307 56.938" enable-background="new 0 0 286.307 56.938"
	 xml:space="preserve">
<path fill="#FFFFFF" d="M28.855,0c-4.915,0-8.922,3.924-9.078,8.802c-8.687,3.4-14.842,11.51-15.735,20.806
	c-0.105,1.101,0.7,2.077,1.799,2.184C5.906,31.797,5.971,31.8,6.035,31.8c1.019,0,1.889-0.774,1.988-1.809
	C8.75,22.43,13.628,15.81,20.565,12.809c1.425,3.164,4.601,5.376,8.29,5.376c5.014,0,9.092-4.079,9.092-9.092
	C37.947,4.079,33.869,0,28.855,0 M28.855,14.685c-3.083,0-5.592-2.508-5.592-5.592s2.509-5.592,5.592-5.592s5.592,2.508,5.592,5.592
	S31.938,14.685,28.855,14.685"/>
<path fill="#FFFFFF" d="M40.333,51.971c-0.467-1.001-1.658-1.434-2.658-0.968c-6.885,3.21-15.064,2.365-21.17-2.09
	c2.004-2.833,2.3-6.692,0.428-9.871c-1.627-2.765-4.633-4.48-7.843-4.48c-1.614,0-3.208,0.436-4.605,1.258
	c-2.093,1.231-3.581,3.206-4.189,5.558s-0.266,4.799,0.967,6.892c1.627,2.765,4.633,4.48,7.843,4.48c1.52,0,3.017-0.391,4.354-1.121
	c4.454,3.495,9.927,5.311,15.437,5.311c3.565,0,7.146-0.759,10.471-2.309C40.365,54.162,40.798,52.972,40.333,51.971 M9.104,49.248
	c-1.977,0-3.825-1.057-4.826-2.756c-0.758-1.287-0.969-2.794-0.595-4.239c0.375-1.446,1.29-2.66,2.576-3.418
	c0.86-0.506,1.84-0.773,2.83-0.773c1.977,0,3.825,1.057,4.826,2.756c1.564,2.656,0.675,6.093-1.981,7.656
	C11.073,48.98,10.094,49.248,9.104,49.248"/>
<path fill="#FFFFFF" d="M53.48,35.91c1.451-9.215-2.441-18.623-10.015-24.089c-0.896-0.647-2.145-0.443-2.792,0.452
	c-0.646,0.896-0.443,2.146,0.451,2.792c6.159,4.444,9.41,11.995,8.5,19.497c-0.323-0.035-0.646-0.057-0.972-0.057
	c-3.221,0-6.231,1.725-7.855,4.502c-1.227,2.097-1.563,4.545-0.947,6.894c0.614,2.352,2.108,4.319,4.205,5.546
	c1.393,0.814,2.978,1.245,4.584,1.245c3.221,0,6.23-1.725,7.854-4.502C58.976,43.946,57.613,38.508,53.48,35.91 M53.473,46.423
	c-0.999,1.709-2.853,2.77-4.834,2.77c-0.985,0-1.96-0.265-2.817-0.767c-1.289-0.754-2.208-1.965-2.586-3.41s-0.171-2.951,0.583-4.24
	c0.999-1.708,2.852-2.77,4.834-2.77c0.986,0,1.959,0.265,2.817,0.767C54.131,40.329,55.03,43.762,53.473,46.423"/>
<path fill="#FFFFFF" d="M94.848,30.769l6.508-12.597c0.129-0.257,0.305-0.494,0.531-0.709c0.226-0.214,0.521-0.322,0.886-0.322
	h1.224c0.236,0,0.44,0.087,0.613,0.258c0.171,0.173,0.257,0.376,0.257,0.612v20.813c0,0.236-0.086,0.439-0.257,0.611
	c-0.173,0.172-0.377,0.259-0.613,0.259h-1.321c-0.235,0-0.439-0.087-0.611-0.259s-0.258-0.375-0.258-0.611V23.552l-5.025,9.697
	c-0.172,0.322-0.355,0.576-0.548,0.757c-0.194,0.183-0.451,0.274-0.773,0.274h-1.224c-0.323,0-0.58-0.093-0.774-0.274
	c-0.192-0.181-0.376-0.435-0.548-0.757l-5.024-9.697v15.271c0,0.236-0.086,0.439-0.259,0.611c-0.172,0.172-0.376,0.259-0.611,0.259
	h-1.32c-0.237,0-0.441-0.087-0.613-0.259s-0.258-0.375-0.258-0.611V18.011c0-0.236,0.086-0.439,0.258-0.612
	c0.172-0.171,0.376-0.258,0.613-0.258h1.223c0.365,0,0.661,0.108,0.888,0.322c0.226,0.215,0.401,0.452,0.53,0.709L94.848,30.769z"/>
<path fill="#FFFFFF" d="M108.861,35.473c0-0.859,0.171-1.611,0.515-2.255c0.345-0.646,0.816-1.192,1.418-1.645
	c0.601-0.45,1.306-0.814,2.11-1.096c0.805-0.279,1.659-0.494,2.561-0.644l4.543-0.74v-0.419c0-1.096-0.36-1.917-1.078-2.465
	c-0.721-0.548-1.617-0.821-2.691-0.821c-0.945,0-1.659,0.171-2.142,0.515c-0.483,0.345-0.897,0.752-1.241,1.225
	c-0.129,0.172-0.269,0.29-0.419,0.354c-0.15,0.065-0.354,0.098-0.611,0.098h-0.967c-0.236,0-0.446-0.086-0.628-0.259
	c-0.183-0.172-0.264-0.375-0.242-0.611c0.043-0.473,0.231-0.955,0.565-1.449c0.331-0.495,0.782-0.935,1.352-1.322
	c0.57-0.386,1.225-0.703,1.965-0.95c0.741-0.246,1.53-0.369,2.368-0.369c0.967,0,1.864,0.14,2.691,0.419
	c0.825,0.278,1.534,0.687,2.126,1.224c0.59,0.537,1.051,1.203,1.385,1.997c0.332,0.795,0.499,1.708,0.499,2.739v9.824
	c0,0.237-0.086,0.441-0.257,0.612c-0.173,0.172-0.376,0.258-0.613,0.258h-1.191c-0.236,0-0.44-0.086-0.611-0.258
	c-0.173-0.171-0.259-0.375-0.259-0.612v-1.318c-0.193,0.407-0.493,0.767-0.902,1.078c-0.408,0.312-0.875,0.574-1.401,0.789
	c-0.525,0.216-1.074,0.376-1.643,0.482c-0.569,0.108-1.102,0.162-1.595,0.162c-0.838,0-1.606-0.119-2.304-0.354
	c-0.698-0.235-1.289-0.554-1.771-0.949c-0.484-0.398-0.86-0.875-1.128-1.436C108.995,36.719,108.861,36.116,108.861,35.473
	 M114.789,37.244c0.772,0,1.481-0.117,2.126-0.354c0.646-0.237,1.197-0.563,1.659-0.983c0.462-0.419,0.816-0.918,1.064-1.497
	c0.245-0.58,0.369-1.226,0.369-1.935v-0.804l-3.802,0.609c-1.353,0.217-2.427,0.562-3.222,1.031
	c-0.795,0.474-1.191,1.085-1.191,1.837c0,0.237,0.054,0.474,0.161,0.708c0.106,0.238,0.278,0.462,0.516,0.678
	c0.235,0.216,0.543,0.388,0.919,0.517C113.763,37.181,114.229,37.244,114.789,37.244"/>
<path fill="#FFFFFF" d="M130.574,32.604v6.219c0,0.236-0.086,0.439-0.258,0.611s-0.376,0.258-0.611,0.258h-1.192
	c-0.236,0-0.44-0.086-0.612-0.258s-0.258-0.375-0.258-0.611V17.689c0-0.234,0.086-0.438,0.258-0.611
	c0.172-0.172,0.376-0.258,0.612-0.258h1.192c0.235,0,0.439,0.086,0.611,0.258c0.172,0.173,0.258,0.377,0.258,0.611v10.664
	l6.282-4.865c0.129-0.106,0.295-0.226,0.499-0.354c0.204-0.128,0.456-0.192,0.758-0.192h1.61c0.215,0,0.397,0.075,0.548,0.226
	s0.226,0.334,0.226,0.547c0,0.108-0.017,0.21-0.049,0.307c-0.032,0.098-0.134,0.209-0.306,0.338l-7.764,6.058l8.569,7.892
	c0.129,0.129,0.214,0.237,0.258,0.322c0.043,0.086,0.064,0.183,0.064,0.29c0,0.215-0.076,0.396-0.226,0.548
	c-0.15,0.151-0.333,0.226-0.548,0.226h-1.515c-0.321,0-0.597-0.063-0.821-0.191c-0.226-0.129-0.392-0.248-0.499-0.355
	L130.574,32.604z"/>
<path fill="#FFFFFF" d="M147.358,19.525c0,0.236-0.086,0.441-0.258,0.611c-0.171,0.173-0.376,0.258-0.612,0.258h-1.836
	c-0.236,0-0.44-0.085-0.612-0.258c-0.172-0.17-0.258-0.375-0.258-0.611v-1.837c0-0.234,0.086-0.438,0.258-0.611
	c0.172-0.172,0.376-0.258,0.612-0.258h1.836c0.236,0,0.441,0.086,0.612,0.258c0.172,0.173,0.258,0.377,0.258,0.611V19.525z
	 M147.036,38.822c0,0.237-0.086,0.44-0.258,0.612s-0.376,0.258-0.611,0.258h-1.191c-0.236,0-0.44-0.086-0.612-0.258
	s-0.258-0.375-0.258-0.612V23.81c0-0.234,0.086-0.438,0.258-0.612c0.172-0.171,0.376-0.257,0.612-0.257h1.191
	c0.235,0,0.439,0.086,0.611,0.257c0.172,0.174,0.258,0.378,0.258,0.612V38.822z"/>
<path fill="#FFFFFF" d="M166.752,38.822c0,0.237-0.086,0.44-0.258,0.612s-0.376,0.258-0.611,0.258h-1.191
	c-0.236,0-0.44-0.086-0.612-0.258s-0.258-0.375-0.258-0.612v-8.505c0-1.652-0.397-2.889-1.191-3.705
	c-0.795-0.814-1.899-1.224-3.316-1.224c-1.354,0-2.444,0.409-3.271,1.224c-0.827,0.816-1.239,2.053-1.239,3.705v8.505
	c0,0.237-0.087,0.44-0.259,0.612s-0.376,0.258-0.61,0.258h-1.192c-0.236,0-0.44-0.086-0.612-0.258s-0.258-0.375-0.258-0.612V23.81
	c0-0.234,0.086-0.438,0.258-0.612c0.172-0.171,0.376-0.257,0.612-0.257h1.192c0.234,0,0.438,0.086,0.61,0.257
	c0.172,0.174,0.259,0.378,0.259,0.612v0.999c0.407-0.537,1.015-1.036,1.819-1.498c0.806-0.462,1.863-0.691,3.174-0.691
	c1.01,0,1.943,0.166,2.804,0.499c0.857,0.333,1.595,0.806,2.206,1.418c0.611,0.61,1.091,1.368,1.434,2.27
	c0.344,0.903,0.516,1.913,0.516,3.029v8.986H166.752z"/>
<path fill="#FFFFFF" d="M170.618,30.254c0.064-1.183,0.29-2.244,0.677-3.19c0.388-0.943,0.902-1.744,1.547-2.399
	c0.646-0.654,1.401-1.159,2.271-1.515c0.869-0.354,1.809-0.53,2.818-0.53c1.331,0,2.395,0.229,3.188,0.691s1.396,0.961,1.804,1.498
	V23.81c0-0.234,0.086-0.438,0.259-0.612c0.172-0.171,0.376-0.257,0.611-0.257h1.193c0.234,0,0.438,0.086,0.611,0.257
	c0.171,0.174,0.257,0.378,0.257,0.612v15.658c0,2.232-0.634,4.01-1.9,5.332c-1.268,1.319-3.168,1.979-5.702,1.979
	c-1.289,0-2.39-0.153-3.302-0.465c-0.914-0.309-1.665-0.699-2.256-1.169c-0.591-0.469-1.03-0.98-1.32-1.538
	c-0.29-0.556-0.445-1.089-0.468-1.601c-0.021-0.236,0.06-0.438,0.243-0.609c0.181-0.171,0.391-0.256,0.628-0.256h0.966
	c0.236,0,0.436,0.059,0.596,0.175c0.161,0.116,0.316,0.347,0.468,0.687c0.063,0.128,0.167,0.302,0.307,0.524
	c0.14,0.224,0.365,0.445,0.677,0.669c0.312,0.225,0.719,0.414,1.225,0.573c0.505,0.159,1.144,0.24,1.917,0.24
	c0.709,0,1.368-0.071,1.98-0.21c0.613-0.141,1.145-0.371,1.595-0.693c0.451-0.321,0.801-0.752,1.048-1.289
	c0.246-0.537,0.369-1.189,0.369-1.965v-2.029c-0.43,0.579-1.042,1.092-1.836,1.53c-0.795,0.44-1.848,0.66-3.156,0.66
	c-1.011,0-1.949-0.177-2.818-0.531c-0.87-0.354-1.626-0.857-2.271-1.515c-0.645-0.655-1.159-1.455-1.547-2.4
	c-0.387-0.942-0.611-2.008-0.677-3.188c-0.021-0.322-0.032-0.676-0.032-1.063C170.586,30.93,170.597,30.575,170.618,30.254
	 M182.925,30.156c-0.063-1.522-0.521-2.699-1.368-3.526c-0.85-0.827-1.949-1.241-3.303-1.241c-1.418,0-2.533,0.452-3.35,1.354
	c-0.817,0.901-1.27,2.127-1.354,3.673c-0.021,0.601-0.021,1.202,0,1.804c0.086,1.546,0.537,2.771,1.354,3.672
	c0.814,0.903,1.932,1.354,3.35,1.354c1.354,0,2.453-0.419,3.303-1.258c0.849-0.837,1.306-2.008,1.368-3.512
	c0.021-0.322,0.032-0.708,0.032-1.159S182.946,30.479,182.925,30.156"/>
<path fill="#FFFFFF" d="M205.83,16.82c1.312,0,2.464,0.204,3.463,0.611c0.999,0.409,1.849,0.909,2.545,1.498
	c0.698,0.592,1.229,1.225,1.597,1.902c0.363,0.676,0.558,1.282,0.579,1.819c0.021,0.193-0.043,0.359-0.193,0.499
	c-0.15,0.141-0.322,0.209-0.516,0.209h-1.32c-0.237,0-0.424-0.042-0.564-0.129c-0.14-0.085-0.284-0.277-0.435-0.579
	c-0.107-0.215-0.285-0.487-0.531-0.821c-0.247-0.332-0.58-0.655-0.999-0.967s-0.929-0.579-1.53-0.806
	c-0.602-0.225-1.3-0.338-2.094-0.338c-0.602,0-1.176,0.07-1.724,0.209c-0.547,0.14-1.036,0.35-1.465,0.628
	c-0.432,0.28-0.774,0.629-1.032,1.047c-0.258,0.419-0.386,0.908-0.386,1.467c0,0.56,0.124,1.03,0.369,1.417
	c0.246,0.388,0.645,0.736,1.191,1.048c0.547,0.311,1.24,0.596,2.078,0.853c0.838,0.258,1.857,0.548,3.061,0.871
	c1.226,0.322,2.262,0.676,3.109,1.063c0.848,0.388,1.54,0.821,2.077,1.306c0.537,0.481,0.929,1.042,1.176,1.674
	c0.247,0.634,0.371,1.349,0.371,2.143c0,0.969-0.21,1.854-0.628,2.658c-0.419,0.805-1.005,1.498-1.756,2.078
	c-0.752,0.579-1.659,1.031-2.724,1.353c-1.063,0.322-2.25,0.483-3.56,0.483c-1.246,0-2.396-0.182-3.447-0.548
	c-1.053-0.365-1.955-0.837-2.706-1.417c-0.752-0.58-1.349-1.224-1.788-1.933s-0.672-1.406-0.691-2.096
	c0-0.191,0.068-0.357,0.209-0.499c0.14-0.14,0.306-0.21,0.499-0.21h1.32c0.216,0,0.402,0.043,0.563,0.129s0.307,0.279,0.436,0.58
	c0.131,0.301,0.327,0.628,0.597,0.983c0.269,0.354,0.628,0.687,1.079,0.999c0.45,0.311,0.999,0.574,1.643,0.789
	c0.646,0.214,1.407,0.32,2.288,0.32c0.751,0,1.466-0.086,2.143-0.258s1.272-0.419,1.787-0.739c0.517-0.322,0.924-0.71,1.226-1.159
	c0.301-0.451,0.452-0.956,0.452-1.517c0-0.559-0.174-1.036-0.518-1.434c-0.344-0.398-0.838-0.756-1.479-1.079
	c-0.646-0.322-1.436-0.617-2.369-0.885c-0.936-0.271-1.992-0.554-3.173-0.855c-1.075-0.277-1.987-0.616-2.739-1.015
	c-0.752-0.396-1.364-0.854-1.836-1.369c-0.474-0.515-0.813-1.084-1.016-1.707s-0.307-1.3-0.307-2.029
	c0-0.795,0.161-1.567,0.483-2.319c0.321-0.751,0.8-1.417,1.434-1.997s1.429-1.047,2.384-1.402
	C203.419,16.997,204.541,16.82,205.83,16.82"/>
<path fill="#FFFFFF" d="M217.685,29.705c0.086-0.987,0.321-1.911,0.709-2.771c0.388-0.858,0.892-1.611,1.515-2.255
	c0.623-0.645,1.37-1.149,2.238-1.515c0.87-0.364,1.843-0.547,2.916-0.547c1.16,0,2.194,0.188,3.107,0.563s1.692,0.918,2.336,1.627
	c0.646,0.709,1.14,1.568,1.483,2.577c0.342,1.01,0.515,2.138,0.515,3.383v0.869c0,0.236-0.087,0.44-0.258,0.611
	c-0.173,0.173-0.376,0.258-0.612,0.258h-11.081V32.7c0.042,1.461,0.487,2.583,1.337,3.367c0.849,0.784,1.904,1.176,3.173,1.176
	c1.181,0,2.065-0.166,2.658-0.5c0.59-0.332,1.066-0.703,1.435-1.111c0.17-0.171,0.321-0.29,0.45-0.354
	c0.128-0.064,0.321-0.098,0.579-0.098h0.968c0.235,0,0.45,0.088,0.644,0.259c0.194,0.173,0.27,0.376,0.227,0.611
	c-0.064,0.388-0.247,0.813-0.548,1.271c-0.302,0.463-0.735,0.893-1.306,1.29c-0.568,0.396-1.277,0.729-2.126,0.999
	c-0.849,0.268-1.843,0.401-2.979,0.401c-1.073,0-2.041-0.188-2.899-0.563c-0.858-0.376-1.604-0.891-2.239-1.546
	c-0.634-0.655-1.143-1.428-1.529-2.319c-0.388-0.892-0.623-1.863-0.709-2.916C217.577,31.682,217.577,30.694,217.685,29.705
	 M220.553,29.802h9.053v-0.097c0-1.31-0.414-2.356-1.24-3.141c-0.827-0.784-1.929-1.176-3.303-1.176
	c-0.623,0-1.202,0.101-1.738,0.306c-0.538,0.204-1.011,0.494-1.418,0.87c-0.409,0.376-0.731,0.832-0.968,1.369
	c-0.237,0.537-0.364,1.128-0.387,1.771L220.553,29.802L220.553,29.802z"/>
<path fill="#FFFFFF" d="M251.286,38.822c0,0.237-0.086,0.44-0.258,0.612s-0.376,0.258-0.611,0.258h-1.191
	c-0.236,0-0.44-0.086-0.612-0.258s-0.258-0.375-0.258-0.612v-8.505c0-1.652-0.397-2.889-1.191-3.705
	c-0.795-0.814-1.899-1.224-3.316-1.224c-1.354,0-2.444,0.409-3.271,1.224c-0.827,0.816-1.24,2.053-1.24,3.705v8.505
	c0,0.237-0.086,0.44-0.258,0.612s-0.376,0.258-0.611,0.258h-1.191c-0.236,0-0.44-0.086-0.612-0.258s-0.258-0.375-0.258-0.612V23.81
	c0-0.234,0.086-0.438,0.258-0.612c0.172-0.171,0.376-0.257,0.612-0.257h1.191c0.235,0,0.439,0.086,0.611,0.257
	c0.172,0.174,0.258,0.378,0.258,0.612v0.999c0.408-0.537,1.016-1.036,1.82-1.498s1.863-0.691,3.174-0.691
	c1.009,0,1.943,0.166,2.803,0.499c0.858,0.333,1.596,0.806,2.206,1.418c0.612,0.61,1.092,1.368,1.435,2.27
	c0.344,0.903,0.516,1.913,0.516,3.029v8.986H251.286z"/>
<path fill="#FFFFFF" d="M265.494,35.054c0-0.407-0.112-0.745-0.338-1.016c-0.225-0.268-0.563-0.499-1.016-0.692
	c-0.45-0.192-1.025-0.375-1.724-0.548c-0.696-0.171-1.51-0.354-2.433-0.548c-1.74-0.364-2.959-0.971-3.656-1.819
	c-0.698-0.849-1.048-1.841-1.048-2.979c0-0.645,0.129-1.257,0.387-1.835c0.259-0.581,0.646-1.097,1.16-1.548
	c0.517-0.451,1.165-0.806,1.949-1.063c0.783-0.258,1.702-0.387,2.754-0.387c1.053,0,1.971,0.118,2.755,0.354
	s1.444,0.537,1.981,0.901c0.536,0.366,0.943,0.757,1.224,1.176s0.43,0.822,0.451,1.208c0.021,0.237-0.061,0.441-0.241,0.612
	c-0.183,0.173-0.393,0.258-0.628,0.258h-1.063c-0.13,0-0.285-0.026-0.468-0.08c-0.184-0.054-0.35-0.178-0.5-0.371
	c-0.277-0.364-0.691-0.671-1.239-0.918c-0.549-0.246-1.306-0.37-2.271-0.37c-0.987,0-1.788,0.183-2.399,0.548
	s-0.919,0.869-0.919,1.514c0,0.408,0.086,0.736,0.26,0.982c0.171,0.247,0.449,0.462,0.837,0.645c0.387,0.183,0.896,0.35,1.529,0.499
	c0.636,0.15,1.425,0.334,2.368,0.548c0.987,0.215,1.814,0.489,2.48,0.821c0.665,0.334,1.203,0.709,1.609,1.129
	c0.408,0.418,0.698,0.88,0.87,1.385s0.259,1.036,0.259,1.595c0,0.646-0.156,1.268-0.468,1.868c-0.312,0.603-0.758,1.128-1.337,1.578
	c-0.58,0.451-1.284,0.816-2.109,1.096c-0.827,0.279-1.768,0.419-2.819,0.419s-1.986-0.129-2.802-0.387
	c-0.817-0.258-1.516-0.574-2.096-0.95s-1.025-0.783-1.337-1.225c-0.312-0.439-0.479-0.854-0.499-1.24
	c-0.021-0.235,0.055-0.438,0.226-0.611c0.172-0.172,0.387-0.259,0.645-0.259h1.16c0.129,0,0.278,0.018,0.451,0.05
	c0.171,0.031,0.332,0.155,0.482,0.369c0.344,0.474,0.815,0.839,1.417,1.097c0.603,0.259,1.387,0.387,2.353,0.387
	c0.473,0,0.938-0.054,1.401-0.161c0.463-0.106,0.869-0.258,1.225-0.451c0.354-0.192,0.639-0.424,0.854-0.691
	C265.388,35.671,265.494,35.375,265.494,35.054"/>
<path fill="#FFFFFF" d="M271.485,29.705c0.086-0.987,0.322-1.911,0.709-2.771c0.388-0.858,0.892-1.611,1.515-2.255
	c0.623-0.645,1.37-1.149,2.238-1.515c0.87-0.364,1.843-0.547,2.916-0.547c1.16,0,2.195,0.188,3.108,0.563
	c0.912,0.376,1.691,0.918,2.336,1.627c0.646,0.709,1.139,1.568,1.482,2.577c0.342,1.01,0.516,2.138,0.516,3.383v0.869
	c0,0.236-0.088,0.44-0.259,0.611c-0.173,0.173-0.376,0.258-0.611,0.258h-11.082V32.7c0.042,1.461,0.487,2.583,1.337,3.367
	c0.849,0.784,1.905,1.176,3.173,1.176c1.181,0,2.066-0.166,2.658-0.5c0.59-0.332,1.066-0.703,1.435-1.111
	c0.17-0.171,0.321-0.29,0.45-0.354c0.128-0.064,0.321-0.098,0.579-0.098h0.968c0.235,0,0.45,0.088,0.645,0.259
	c0.193,0.173,0.269,0.376,0.226,0.611c-0.063,0.388-0.247,0.813-0.548,1.271c-0.301,0.463-0.735,0.893-1.305,1.29
	c-0.569,0.396-1.278,0.729-2.126,0.999c-0.85,0.268-1.844,0.401-2.98,0.401c-1.073,0-2.041-0.188-2.899-0.563
	c-0.858-0.376-1.604-0.891-2.238-1.546c-0.635-0.655-1.144-1.428-1.53-2.319s-0.623-1.863-0.709-2.916
	C271.378,31.682,271.378,30.694,271.485,29.705 M274.354,29.802h9.053v-0.097c0-1.31-0.414-2.356-1.24-3.141
	c-0.827-0.784-1.929-1.176-3.303-1.176c-0.623,0-1.202,0.101-1.738,0.306c-0.538,0.204-1.011,0.494-1.418,0.87
	c-0.409,0.376-0.73,0.832-0.968,1.369s-0.364,1.128-0.386,1.771V29.802L274.354,29.802z"/>
</svg>
