<?xml version="1.0" encoding="utf-8"?>
<!-- Generator: Adobe Illustrator 17.0.0, SVG Export Plug-In . SVG Version: 6.00 Build 0)  -->
<!DOCTYPE svg PUBLIC "-//W3C//DTD SVG 1.1//EN" "http://www.w3.org/Graphics/SVG/1.1/DTD/svg11.dtd">
<svg version="1.1" id="Layer_1" xmlns="http://www.w3.org/2000/svg" xmlns:xlink="http://www.w3.org/1999/xlink" x="0px" y="0px"
	 width="485px" height="477px" viewBox="255 48.5 485 477" enable-background="new 255 48.5 485 477" xml:space="preserve">
<title>PARTNERLOGO</title>
<g>
	<path fill="#4B545D" d="M591.58,359.94c-2.8-3.92-7.56-6.44-14-7.56c11.2-2.24,17.08-9.8,17.08-22.12c0-8.96-2.8-15.4-8.12-19.32
		c-4.48-3.08-11.2-4.76-20.16-4.76h-33.6v97.44h29.12c11.2,0,19.32-1.68,24.36-4.76c6.44-3.92,9.52-11.2,9.52-22.12
		C595.5,369.46,594.38,363.86,591.58,359.94 M570.86,343.7c-2.52,1.96-6.16,2.8-11.48,2.8h-7.28v-26.04h7.56
		c4.76,0,8.12,0.84,10.64,2.52c2.8,1.96,4.2,5.6,4.2,10.36S573.38,341.74,570.86,343.7 M570.86,386.82c-2.24,1.68-6.16,2.8-11.2,2.8
		h-7.28v-29.4h7.28c5.6,0,9.8,1.12,12.32,3.08c2.52,2.24,3.64,5.88,3.64,11.2C575.34,380.38,573.94,384.58,570.86,386.82
		 M526.9,403.62l-26.6-97.44h-27.16l-26.6,97.44h20.16l5.32-21.56h28.28l5.32,21.56H526.9z M496.66,368.06h-21.28l10.36-46.2
		L496.66,368.06z M441.5,403.62v-14.56h-30.24v-82.88h-20.44v97.44H441.5z"/>
	<path fill="#4B545D" d="M587.66,287.7V183.26H568.9v86.52l-23.24-86.52h-32.2V287.7h18.76v-86.52l23.24,86.52L587.66,287.7
		L587.66,287.7z M497.5,214.9v-1.68c0-11.2-2.8-19.32-8.12-24.36c-5.6-5.04-14-7.56-25.76-7.56c-15.96,0-26.6,4.76-31.92,14.56
		c-3.64,7-5.6,20.44-5.6,39.48c0,20.44,1.96,33.88,5.88,40.88c5.04,9.24,15.96,14,32.48,14c11.2,0,22.12-1.68,33.04-5.32v-52.64
		h-33.32v15.4h12.04v24.64c-3.64,1.4-7.84,2.24-12.6,2.24c-6.44,0-10.64-3.08-12.88-9.24c-1.68-5.32-2.52-15.96-2.52-32.48
		c0-13.16,0.84-22.12,2.24-26.88c1.96-6.44,6.16-9.8,12.6-9.8c8.4,0,12.6,5.6,12.6,16.52v1.96h21.84V214.9z M413.5,183.26h-21.84
		V287.7h21.84V183.26z"/>
	<path fill="#4B545D" d="M587.38,124.18c-1.4-1.4-3.08-3.08-5.88-5.04c-2.52-1.96-6.16-4.2-10.36-7c-2.24-1.4-4.48-2.8-6.72-3.92
		c-2.24-1.4-4.2-2.52-6.44-3.92c-4.48-3.36-6.72-7.28-6.72-11.2c0-7,3.36-10.36,10.36-10.36c6.44,0,9.8,4.2,9.8,12.6v2.52h20.16
		v-3.92c0-9.24-2.52-15.96-7.56-20.16c-4.48-3.92-11.76-5.88-21.56-5.88c-21.28,0-31.92,8.96-31.92,26.88
		c0,7.56,2.24,13.72,6.72,18.48c1.12,1.4,3.08,3.08,5.88,5.04c2.52,1.96,5.88,4.2,10.08,6.44c3.92,2.24,7,4.2,9.24,5.6
		c2.24,1.4,3.36,2.24,3.92,2.52c3.92,3.36,6.16,7,6.16,11.2c0,7.56-3.64,11.2-11.2,11.2c-4.48,0-7.56-1.68-9.52-5.04
		c-1.12-2.24-1.68-5.88-1.68-11.2v-1.68H529.7v1.4c0,11.2,2.52,19.32,7.28,23.8s12.88,7,24.36,7c21.28,0,31.92-9.24,31.92-27.44
		C593.26,134.82,591.3,128.66,587.38,124.18 M522.7,167.86V153.3h-33.88v-29.12h29.96v-14h-29.96V84.42h33.04V69.86h-53.2v97.44
		h54.04V167.86z M451.3,81.62c-5.04-7.56-15.4-11.48-31.36-11.48h-29.12v97.44h29.4c11.48,0,20.16-1.96,25.76-6.16
		c5.04-3.64,8.4-9.52,9.8-17.64c1.12-5.32,1.68-14.56,1.68-27.72C457.18,99.26,455.22,87.78,451.3,81.62 M433.94,143.78
		c-2.52,6.44-7.56,9.52-15.12,9.52h-7.56V84.7h7.56c7.84,0,13.16,2.8,15.4,8.68c1.68,4.2,2.52,12.88,2.52,26.04
		C436.46,131.46,435.62,139.58,433.94,143.78"/>
	<path fill="#4B545D" d="M410.14,454.3c0,8.12-3.36,10.92-9.8,10.92c-7.28,0-9.8-3.64-9.8-11.2v-20.44h4.76v20.16
		c0,2.8-0.28,7.84,5.04,7.84c4.2,0,5.04-3.08,5.04-7.84V433.3h4.76V454.3z"/>
	<polygon fill="#4B545D" points="539.5,505.54 529.98,478.38 529.98,505.54 526.06,505.54 526.06,474.18 533.06,474.18 
		542.58,501.34 542.58,474.18 546.78,474.18 546.78,505.54 	"/>
	<polygon fill="#4B545D" points="429.74,464.66 420.5,437.5 420.5,464.66 416.3,464.66 416.3,433.3 423.3,433.3 432.82,460.18 
		432.82,433.3 437.02,433.3 437.02,464.66 	"/>
	<rect x="444.3" y="433.3" fill="#4B545D" width="4.76" height="31.08"/>
	<rect x="547.34" y="433.3" fill="#4B545D" width="4.76" height="31.08"/>
	<polygon fill="#4B545D" points="466.7,464.66 461.1,464.66 453.26,433.3 458.3,433.3 464.18,460.18 470.34,433.3 475.1,433.3 	"/>
	<polygon fill="#4B545D" points="478.74,464.66 478.74,433.3 494.14,433.3 494.14,436.94 483.5,436.94 483.5,446.46 493.58,446.46 
		493.58,450.1 483.5,450.1 483.5,460.74 494.42,460.74 494.42,464.66 	"/>
	<polygon fill="#4B545D" points="504.78,505.54 504.78,474.18 520.18,474.18 520.18,478.1 509.54,478.1 509.54,487.62 
		519.34,487.62 519.34,490.98 509.54,490.98 509.54,501.62 520.46,501.62 520.46,505.54 	"/>
	<polygon fill="#4B545D" points="573.94,505.54 573.94,474.18 589.34,474.18 589.34,478.1 578.7,478.1 578.7,487.62 588.5,487.62 
		588.5,490.98 578.7,490.98 578.7,501.62 589.62,501.62 589.62,505.54 	"/>
	<path fill="#4B545D" d="M512.9,464.66c-0.56-3.08-0.56-7.56-0.56-8.12c0-2.24-0.28-3.92-0.84-4.48c-0.56-0.84-1.96-1.12-3.92-1.12
		h-2.8v14h-4.76v-31.08h8.96c5.04,0,8.96,1.12,8.96,7.84c0,4.2-1.68,6.72-5.04,7.56c1.68,0.28,3.08,0.84,3.64,1.68
		c0.56,0.84,1.12,2.8,1.12,5.04c0,0.84,0.28,7,0.56,8.96h-5.32V464.66z M512.9,441.7c0-3.64-1.96-4.76-5.04-4.76h-3.36v10.08h2.52
		C511.5,447.02,512.9,445.9,512.9,441.7"/>
	<path fill="#4B545D" d="M541.46,456.82c0,5.6-3.08,8.4-9.24,8.4c-7,0-9.24-2.8-9.24-9.24v-0.28h5.04v0.28c0,3.64,0.84,5.6,4.2,5.6
		c2.8,0,4.2-1.4,4.2-4.48c0-2.52-1.68-3.92-3.08-4.76c-0.56-0.56-1.4-1.12-2.52-1.68c-4.48-2.8-7.56-4.76-7.56-9.8
		s3.08-8.12,9.24-8.12c5.6,0,8.68,2.52,8.68,7.84v1.12h-4.76v-0.84c0-3.08-1.4-4.48-3.92-4.48c-2.24,0-3.92,1.4-3.92,4.2
		c0,3.08,2.24,4.2,4.2,5.32c0.84,0.56,1.4,0.84,2.24,1.4C539.5,450.38,541.46,451.78,541.46,456.82"/>
	<polygon fill="#4B545D" points="568.06,436.94 568.06,464.66 563.3,464.66 563.3,436.94 556.02,436.94 556.02,433.3 575.34,433.3 
		575.34,436.94 	"/>
	<polygon fill="#4B545D" points="456.34,478.1 456.34,505.54 451.3,505.54 451.3,478.1 444.3,478.1 444.3,474.18 463.34,474.18 
		463.34,478.1 	"/>
	<polygon fill="#4B545D" points="562.74,478.1 562.74,505.54 557.98,505.54 557.98,478.1 550.7,478.1 550.7,474.18 570.02,474.18 
		570.02,478.1 	"/>
	<polygon fill="#4B545D" points="493.86,505.54 488.26,505.54 483.5,479.22 477.9,505.54 472.3,505.54 465.86,474.18 470.9,474.18 
		475.38,500.22 480.7,474.18 486.58,474.18 491.34,500.22 496.38,474.18 500.86,474.18 	"/>
	<path fill="#4B545D" d="M598.86,503.58c0,1.4-1.12,2.52-2.52,2.52c-1.4,0-2.52-1.12-2.52-2.52s1.12-2.52,2.52-2.52
		C597.74,501.06,598.86,502.18,598.86,503.58"/>
	<polygon fill="#4B545D" points="589.34,452.62 589.34,464.66 584.58,464.66 584.58,452.62 576.18,433.3 581.5,433.3 587.38,448.14 
		592.98,433.3 598.02,433.3 	"/>
	<path fill="#4B545D" d="M410.7,490.14c0,5.6-0.56,9.52-1.4,11.48c-1.4,3.08-4.2,4.48-8.68,4.48c-4.2,0-7-1.4-8.4-4.2
		c-0.56-1.12-0.84-2.8-1.12-4.76c-0.28-1.4-0.28-3.64-0.28-7c0-3.64,0-6.44,0.28-8.12c0.28-2.24,1.12-4.2,2.24-5.6
		c1.68-1.96,4.2-2.8,7.28-2.8c3.36,0,5.88,0.84,7.28,2.52c1.12,1.12,1.96,3.08,2.24,5.6C410.42,483.42,410.7,486.22,410.7,490.14
		 M405.66,489.58c0-3.64,0-6.44-0.28-7.84c-0.56-3.08-2.24-4.48-4.48-4.48c-2.52,0-3.92,1.68-4.76,4.76c0,0.56-0.28,1.4-0.28,2.8
		c0,1.4,0,2.8,0,5.04c0,1.96,0,3.36,0,4.76c0,1.4,0,2.24,0.28,2.8c0.28,1.68,0.84,3.08,1.4,3.64c0.84,0.84,1.96,1.4,3.36,1.4
		c2.52,0,4.2-1.68,4.76-4.76c0-0.56,0.28-1.68,0.28-3.08C405.66,493.22,405.66,491.54,405.66,489.58"/>
	<polygon fill="#4B545D" points="421.62,478.1 421.62,487.62 430.86,487.62 430.86,491.26 421.62,491.26 421.62,505.54 
		416.86,505.54 416.86,474.18 431.42,474.18 431.42,478.1 	"/>
</g>
</svg>
