<?xml version="1.0" encoding="utf-8"?>
<!-- Generator: Adobe Illustrator 16.0.0, SVG Export Plug-In . SVG Version: 6.00 Build 0)  -->
<!DOCTYPE svg PUBLIC "-//W3C//DTD SVG 1.1//EN" "http://www.w3.org/Graphics/SVG/1.1/DTD/svg11.dtd">
<svg version="1.1" id="Layer_1" xmlns="http://www.w3.org/2000/svg" xmlns:xlink="http://www.w3.org/1999/xlink" x="0px" y="0px"
	 width="267.438px" height="56.938px" viewBox="0 0 267.438 56.938" enable-background="new 0 0 267.438 56.938"
	 xml:space="preserve">
<g>
	<defs>
		<rect id="SVGID_1_" x="-36.737" y="-36.382" width="341.226" height="129.677"/>
	</defs>
	<clipPath id="SVGID_2_">
		<use xlink:href="#SVGID_1_"  overflow="visible"/>
	</clipPath>
	<g clip-path="url(#SVGID_2_)">
		<defs>
			<rect id="SVGID_3_" x="-36.737" y="-36.382" width="341.226" height="129.677"/>
		</defs>
		<clipPath id="SVGID_4_">
			<use xlink:href="#SVGID_3_"  overflow="visible"/>
		</clipPath>
		<path clip-path="url(#SVGID_4_)" fill="#FFFFFF" d="M92.112,35.104h-5.035l-0.754,1.931c-0.029,0.077-0.083,0.156-0.16,0.238
			c-0.078,0.082-0.213,0.124-0.406,0.124H85.22c-0.087,0-0.162-0.031-0.225-0.095c-0.063-0.062-0.094-0.137-0.094-0.224
			c0-0.049,0.019-0.117,0.058-0.204l3.555-9.156c0.048-0.106,0.12-0.212,0.217-0.319c0.097-0.106,0.242-0.16,0.436-0.16h0.87
			c0.194,0,0.339,0.054,0.435,0.16c0.097,0.107,0.17,0.213,0.218,0.319l3.541,9.156c0.038,0.087,0.058,0.155,0.058,0.204
			c0,0.087-0.032,0.162-0.095,0.224c-0.063,0.063-0.138,0.095-0.224,0.095h-0.537c-0.194,0-0.33-0.042-0.407-0.124
			c-0.077-0.082-0.13-0.161-0.159-0.238L92.112,35.104z M87.585,33.799h4.019l-2.002-5.18L87.585,33.799z"/>
		<path clip-path="url(#SVGID_4_)" fill="#FFFFFF" d="M98.468,29.707c0.6,0,1.078,0.104,1.437,0.313
			c0.357,0.208,0.628,0.433,0.812,0.675v-3.208c0-0.105,0.039-0.197,0.116-0.275c0.077-0.077,0.169-0.116,0.276-0.116h0.537
			c0.106,0,0.198,0.039,0.275,0.116c0.078,0.078,0.116,0.17,0.116,0.275v9.519c0,0.107-0.038,0.199-0.116,0.276
			c-0.077,0.077-0.169,0.116-0.275,0.116h-0.537c-0.107,0-0.199-0.039-0.276-0.116c-0.077-0.077-0.116-0.169-0.116-0.276v-0.448
			c-0.193,0.26-0.469,0.489-0.827,0.688c-0.358,0.198-0.832,0.298-1.422,0.298c-0.455,0-0.878-0.081-1.27-0.24
			c-0.391-0.159-0.732-0.39-1.023-0.688c-0.29-0.3-0.522-0.663-0.696-1.088c-0.174-0.426-0.276-0.905-0.305-1.438
			c-0.009-0.145-0.014-0.303-0.014-0.472s0.005-0.326,0.014-0.471c0.029-0.532,0.131-1.012,0.305-1.438
			c0.174-0.425,0.406-0.785,0.696-1.081c0.291-0.295,0.632-0.521,1.023-0.682C97.59,29.787,98.013,29.707,98.468,29.707
			 M100.717,34.248c0.01-0.145,0.015-0.336,0.015-0.573c0-0.236-0.005-0.428-0.015-0.571c-0.029-0.688-0.234-1.218-0.617-1.59
			c-0.382-0.372-0.877-0.56-1.487-0.56c-0.639,0-1.142,0.204-1.509,0.61c-0.367,0.406-0.571,0.958-0.609,1.653
			c-0.01,0.271-0.01,0.542,0,0.813c0.038,0.697,0.242,1.249,0.609,1.655c0.367,0.405,0.87,0.608,1.509,0.608
			c0.6,0,1.093-0.183,1.48-0.551C100.48,35.376,100.688,34.877,100.717,34.248"/>
		<path clip-path="url(#SVGID_4_)" fill="#FFFFFF" d="M106.927,37.397c-0.126,0-0.222-0.039-0.29-0.116
			c-0.068-0.077-0.121-0.16-0.16-0.247l-2.887-6.732c-0.01-0.029-0.015-0.063-0.015-0.102c0-0.097,0.034-0.179,0.102-0.247
			c0.067-0.067,0.15-0.101,0.246-0.101h0.537c0.145,0,0.254,0.039,0.327,0.115c0.072,0.077,0.123,0.154,0.152,0.232l2.249,5.268
			l2.249-5.268c0.029-0.078,0.078-0.155,0.145-0.232c0.068-0.076,0.16-0.115,0.276-0.115h0.595c0.097,0,0.179,0.033,0.247,0.101
			c0.067,0.068,0.101,0.15,0.101,0.247c0,0.039-0.005,0.072-0.014,0.102l-2.888,6.732c-0.038,0.087-0.089,0.17-0.152,0.247
			s-0.157,0.116-0.283,0.116H106.927z"/>
		<path clip-path="url(#SVGID_4_)" fill="#FFFFFF" d="M111.484,35.497c0-0.387,0.077-0.726,0.232-1.016
			c0.155-0.29,0.368-0.537,0.639-0.741c0.27-0.202,0.587-0.367,0.95-0.493c0.363-0.125,0.747-0.222,1.153-0.29l2.046-0.334v-0.188
			c0-0.494-0.162-0.864-0.486-1.111c-0.324-0.246-0.727-0.37-1.211-0.37c-0.426,0-0.747,0.078-0.965,0.233
			c-0.218,0.153-0.404,0.338-0.559,0.552c-0.058,0.077-0.121,0.13-0.189,0.159c-0.067,0.028-0.159,0.043-0.275,0.043h-0.435
			c-0.107,0-0.201-0.039-0.283-0.116s-0.119-0.169-0.109-0.276c0.019-0.212,0.104-0.43,0.254-0.652
			c0.15-0.223,0.353-0.42,0.609-0.596c0.257-0.173,0.552-0.315,0.885-0.428c0.334-0.11,0.69-0.166,1.067-0.166
			c0.435,0,0.839,0.063,1.211,0.188c0.373,0.126,0.692,0.31,0.958,0.552c0.266,0.241,0.474,0.542,0.624,0.899
			c0.15,0.357,0.225,0.77,0.225,1.233v4.425c0,0.107-0.039,0.199-0.116,0.276c-0.078,0.077-0.169,0.116-0.276,0.116h-0.536
			c-0.107,0-0.199-0.039-0.276-0.116c-0.078-0.077-0.117-0.169-0.117-0.276V36.41c-0.086,0.184-0.222,0.347-0.406,0.487
			c-0.184,0.14-0.394,0.259-0.631,0.354c-0.237,0.098-0.484,0.169-0.74,0.217c-0.256,0.05-0.496,0.074-0.718,0.074
			c-0.378,0-0.723-0.054-1.038-0.16c-0.314-0.106-0.58-0.249-0.798-0.428c-0.217-0.179-0.387-0.394-0.508-0.646
			C111.544,36.059,111.484,35.786,111.484,35.497 M114.154,36.294c0.348,0,0.667-0.053,0.958-0.159
			c0.29-0.105,0.539-0.254,0.747-0.442s0.367-0.413,0.479-0.675c0.111-0.262,0.166-0.552,0.166-0.87v-0.363l-1.712,0.275
			c-0.609,0.097-1.093,0.252-1.451,0.465s-0.536,0.489-0.536,0.827c0,0.106,0.023,0.213,0.072,0.318
			c0.048,0.107,0.125,0.209,0.232,0.306s0.244,0.174,0.414,0.232C113.692,36.267,113.902,36.294,114.154,36.294"/>
		<path clip-path="url(#SVGID_4_)" fill="#FFFFFF" d="M126.647,37.005c0,0.107-0.039,0.199-0.116,0.276
			c-0.078,0.077-0.169,0.116-0.276,0.116h-0.537c-0.106,0-0.198-0.039-0.275-0.116c-0.078-0.077-0.117-0.169-0.117-0.276v-3.83
			c0-0.744-0.179-1.302-0.536-1.669c-0.359-0.367-0.856-0.552-1.495-0.552c-0.61,0-1.101,0.185-1.473,0.552
			c-0.372,0.367-0.559,0.925-0.559,1.669v3.83c0,0.107-0.038,0.199-0.116,0.276c-0.077,0.077-0.169,0.116-0.275,0.116h-0.537
			c-0.107,0-0.199-0.039-0.276-0.116s-0.116-0.169-0.116-0.276v-6.762c0-0.104,0.039-0.198,0.116-0.276
			c0.077-0.075,0.169-0.114,0.276-0.114h0.537c0.106,0,0.198,0.039,0.275,0.114c0.078,0.078,0.116,0.172,0.116,0.276v0.45
			c0.184-0.241,0.458-0.467,0.82-0.674c0.363-0.208,0.839-0.313,1.429-0.313c0.455,0,0.876,0.075,1.263,0.225
			c0.387,0.15,0.718,0.362,0.994,0.639s0.491,0.617,0.646,1.022c0.154,0.406,0.232,0.861,0.232,1.364V37.005z"/>
		<path clip-path="url(#SVGID_4_)" fill="#FFFFFF" d="M129.723,34.133c0.038,0.387,0.123,0.715,0.254,0.987
			c0.131,0.27,0.29,0.492,0.479,0.667c0.188,0.174,0.399,0.302,0.631,0.384c0.232,0.083,0.469,0.123,0.711,0.123
			c0.464,0,0.861-0.086,1.19-0.26c0.329-0.176,0.585-0.466,0.77-0.871c0.066-0.155,0.138-0.259,0.21-0.313
			c0.072-0.053,0.162-0.08,0.269-0.08h0.436c0.105,0,0.199,0.039,0.282,0.116c0.082,0.078,0.118,0.169,0.109,0.276
			c-0.01,0.231-0.085,0.485-0.225,0.762c-0.142,0.275-0.35,0.532-0.624,0.769c-0.276,0.237-0.614,0.438-1.017,0.603
			c-0.401,0.164-0.868,0.247-1.4,0.247c-0.532,0-1.004-0.087-1.415-0.262c-0.411-0.174-0.76-0.41-1.045-0.712
			c-0.285-0.299-0.508-0.652-0.667-1.059c-0.16-0.406-0.249-0.841-0.268-1.306c-0.01-0.154-0.018-0.346-0.022-0.572
			c-0.005-0.228,0.002-0.424,0.022-0.588c0.038-0.465,0.138-0.9,0.297-1.306c0.159-0.407,0.379-0.761,0.66-1.061
			c0.281-0.3,0.624-0.537,1.03-0.711c0.407-0.174,0.876-0.261,1.408-0.261c0.532,0,0.999,0.082,1.4,0.247
			c0.402,0.165,0.74,0.364,1.017,0.602c0.274,0.238,0.482,0.493,0.624,0.77c0.14,0.275,0.215,0.528,0.225,0.762
			c0.009,0.106-0.027,0.198-0.109,0.276c-0.083,0.076-0.177,0.114-0.282,0.114h-0.436c-0.106,0-0.196-0.025-0.269-0.079
			c-0.072-0.053-0.144-0.157-0.21-0.312c-0.185-0.406-0.44-0.697-0.77-0.871c-0.329-0.174-0.726-0.261-1.19-0.261
			c-0.242,0-0.481,0.041-0.719,0.123c-0.237,0.083-0.449,0.211-0.638,0.385c-0.188,0.174-0.348,0.396-0.479,0.667
			c-0.13,0.271-0.21,0.6-0.239,0.987C129.694,33.475,129.694,33.813,129.723,34.133"/>
		<path clip-path="url(#SVGID_4_)" fill="#FFFFFF" d="M136.456,32.899c0.038-0.445,0.146-0.861,0.319-1.248s0.401-0.726,0.682-1.016
			s0.616-0.518,1.009-0.683c0.392-0.165,0.83-0.247,1.313-0.247c0.523,0,0.99,0.085,1.401,0.254c0.411,0.17,0.761,0.414,1.052,0.733
			c0.29,0.319,0.512,0.706,0.667,1.161c0.155,0.454,0.232,0.963,0.232,1.522v0.393c0,0.106-0.039,0.199-0.116,0.276
			s-0.169,0.115-0.275,0.115h-4.992v0.087c0.02,0.658,0.221,1.164,0.603,1.517c0.382,0.354,0.857,0.529,1.429,0.529
			c0.532,0,0.931-0.073,1.197-0.225c0.267-0.15,0.481-0.315,0.646-0.5c0.077-0.078,0.146-0.131,0.203-0.16
			c0.06-0.028,0.146-0.044,0.263-0.044h0.435c0.106,0,0.203,0.039,0.29,0.116c0.087,0.078,0.121,0.17,0.102,0.276
			c-0.028,0.175-0.111,0.365-0.247,0.573s-0.33,0.401-0.588,0.58c-0.256,0.18-0.574,0.329-0.957,0.45s-0.83,0.181-1.343,0.181
			c-0.482,0-0.919-0.085-1.305-0.254c-0.388-0.169-0.725-0.4-1.009-0.695c-0.285-0.296-0.516-0.645-0.689-1.045
			c-0.174-0.401-0.281-0.84-0.319-1.313C136.407,33.789,136.407,33.345,136.456,32.899 M137.747,32.942h4.077v-0.043
			c0-0.591-0.186-1.062-0.558-1.415c-0.373-0.353-0.869-0.53-1.488-0.53c-0.28,0-0.541,0.046-0.783,0.14
			c-0.241,0.091-0.455,0.222-0.639,0.391c-0.183,0.17-0.328,0.375-0.435,0.617c-0.107,0.242-0.164,0.508-0.175,0.798V32.942z"/>
		<path clip-path="url(#SVGID_4_)" fill="#FFFFFF" d="M149.181,35.309c0-0.185-0.052-0.337-0.152-0.457
			c-0.102-0.121-0.254-0.226-0.457-0.313s-0.462-0.169-0.777-0.247c-0.313-0.077-0.679-0.159-1.095-0.247
			c-0.784-0.164-1.333-0.438-1.646-0.819c-0.315-0.383-0.472-0.829-0.472-1.343c0-0.29,0.058-0.565,0.175-0.825
			c0.114-0.263,0.288-0.494,0.521-0.697c0.232-0.203,0.524-0.363,0.878-0.479c0.354-0.115,0.766-0.174,1.24-0.174
			c0.474,0,0.888,0.053,1.241,0.159c0.353,0.107,0.65,0.242,0.892,0.406c0.242,0.165,0.426,0.341,0.552,0.529
			c0.125,0.188,0.193,0.37,0.203,0.545c0.009,0.106-0.026,0.198-0.108,0.275c-0.082,0.078-0.178,0.117-0.283,0.117h-0.479
			c-0.058,0-0.128-0.013-0.21-0.037c-0.082-0.023-0.158-0.08-0.225-0.167c-0.126-0.165-0.313-0.302-0.56-0.413
			c-0.245-0.111-0.587-0.168-1.022-0.168c-0.445,0-0.805,0.083-1.081,0.247c-0.275,0.165-0.413,0.392-0.413,0.682
			c0,0.185,0.038,0.331,0.116,0.442c0.077,0.112,0.203,0.209,0.377,0.291s0.404,0.157,0.688,0.225
			c0.285,0.068,0.642,0.15,1.067,0.247c0.444,0.097,0.817,0.221,1.117,0.37s0.542,0.319,0.726,0.507
			c0.184,0.189,0.314,0.398,0.392,0.624c0.077,0.229,0.115,0.468,0.115,0.72c0,0.29-0.069,0.57-0.21,0.841
			c-0.14,0.271-0.341,0.508-0.602,0.712c-0.261,0.202-0.578,0.367-0.95,0.493c-0.373,0.125-0.796,0.188-1.27,0.188
			c-0.475,0-0.896-0.059-1.264-0.175c-0.366-0.116-0.682-0.259-0.941-0.428c-0.263-0.169-0.463-0.354-0.604-0.552
			c-0.14-0.197-0.215-0.385-0.225-0.559c-0.01-0.105,0.023-0.198,0.102-0.274c0.077-0.078,0.174-0.117,0.29-0.117h0.522
			c0.058,0,0.126,0.007,0.203,0.021c0.078,0.016,0.149,0.07,0.218,0.167c0.155,0.213,0.367,0.377,0.638,0.493
			c0.271,0.117,0.625,0.174,1.061,0.174c0.212,0,0.423-0.023,0.631-0.071c0.208-0.05,0.392-0.117,0.551-0.203
			c0.16-0.087,0.288-0.191,0.385-0.313C149.133,35.586,149.181,35.453,149.181,35.309"/>
		<path clip-path="url(#SVGID_4_)" fill="#FFFFFF" d="M155.231,35.497c0-0.387,0.077-0.726,0.232-1.016s0.368-0.537,0.639-0.741
			c0.271-0.202,0.587-0.367,0.95-0.493c0.363-0.125,0.747-0.222,1.153-0.29l2.046-0.334v-0.188c0-0.494-0.162-0.864-0.486-1.111
			c-0.324-0.246-0.727-0.37-1.211-0.37c-0.426,0-0.747,0.078-0.965,0.233c-0.218,0.153-0.404,0.338-0.559,0.552
			c-0.059,0.077-0.121,0.13-0.189,0.159c-0.067,0.028-0.159,0.043-0.275,0.043h-0.435c-0.107,0-0.201-0.039-0.283-0.116
			s-0.119-0.169-0.108-0.276c0.019-0.212,0.104-0.43,0.254-0.652c0.149-0.223,0.353-0.42,0.608-0.596
			c0.257-0.173,0.553-0.315,0.886-0.428c0.334-0.11,0.689-0.166,1.066-0.166c0.436,0,0.839,0.063,1.211,0.188
			c0.373,0.126,0.692,0.31,0.958,0.552c0.267,0.241,0.475,0.542,0.624,0.899c0.15,0.357,0.226,0.77,0.226,1.233v4.425
			c0,0.107-0.039,0.199-0.116,0.276c-0.078,0.077-0.169,0.116-0.276,0.116h-0.536c-0.106,0-0.198-0.039-0.275-0.116
			c-0.078-0.077-0.117-0.169-0.117-0.276V36.41c-0.086,0.184-0.222,0.347-0.406,0.487c-0.184,0.14-0.394,0.259-0.631,0.354
			c-0.237,0.098-0.484,0.169-0.74,0.217c-0.256,0.05-0.496,0.074-0.718,0.074c-0.378,0-0.723-0.054-1.038-0.16
			c-0.313-0.106-0.58-0.249-0.798-0.428c-0.217-0.179-0.387-0.394-0.508-0.646C155.292,36.059,155.231,35.786,155.231,35.497
			 M157.902,36.294c0.348,0,0.667-0.053,0.957-0.159c0.29-0.105,0.539-0.254,0.747-0.442s0.367-0.413,0.479-0.675
			c0.111-0.262,0.166-0.552,0.166-0.87v-0.363l-1.712,0.275c-0.609,0.097-1.093,0.252-1.451,0.465s-0.536,0.489-0.536,0.827
			c0,0.106,0.023,0.213,0.072,0.318c0.048,0.107,0.125,0.209,0.231,0.306c0.107,0.097,0.245,0.174,0.414,0.232
			S157.649,36.294,157.902,36.294"/>
		<path clip-path="url(#SVGID_4_)" fill="#FFFFFF" d="M170.395,37.005c0,0.107-0.039,0.199-0.116,0.276
			c-0.078,0.077-0.169,0.116-0.276,0.116h-0.536c-0.106,0-0.198-0.039-0.275-0.116c-0.078-0.077-0.117-0.169-0.117-0.276v-3.83
			c0-0.744-0.179-1.302-0.536-1.669c-0.358-0.367-0.855-0.552-1.495-0.552c-0.609,0-1.101,0.185-1.473,0.552
			s-0.559,0.925-0.559,1.669v3.83c0,0.107-0.038,0.199-0.116,0.276c-0.077,0.077-0.169,0.116-0.275,0.116h-0.537
			c-0.106,0-0.198-0.039-0.275-0.116s-0.116-0.169-0.116-0.276v-6.762c0-0.104,0.039-0.198,0.116-0.276
			c0.077-0.075,0.169-0.114,0.275-0.114h0.537c0.106,0,0.198,0.039,0.275,0.114c0.078,0.078,0.116,0.172,0.116,0.276v0.45
			c0.184-0.241,0.458-0.467,0.819-0.674c0.363-0.208,0.839-0.313,1.43-0.313c0.455,0,0.876,0.075,1.263,0.225
			c0.387,0.15,0.718,0.362,0.994,0.639c0.275,0.276,0.491,0.617,0.646,1.022c0.154,0.406,0.232,0.861,0.232,1.364V37.005z"/>
		<path clip-path="url(#SVGID_4_)" fill="#FFFFFF" d="M175.43,29.707c0.6,0,1.077,0.104,1.437,0.313
			c0.357,0.208,0.628,0.433,0.813,0.675v-3.208c0-0.105,0.039-0.197,0.115-0.275c0.077-0.077,0.169-0.116,0.276-0.116h0.537
			c0.105,0,0.198,0.039,0.274,0.116c0.078,0.078,0.116,0.17,0.116,0.275v9.519c0,0.107-0.038,0.199-0.116,0.276
			c-0.076,0.077-0.169,0.116-0.274,0.116h-0.537c-0.107,0-0.199-0.039-0.276-0.116c-0.076-0.077-0.115-0.169-0.115-0.276v-0.448
			c-0.193,0.26-0.47,0.489-0.827,0.688c-0.358,0.198-0.832,0.298-1.422,0.298c-0.455,0-0.878-0.081-1.271-0.24
			c-0.391-0.159-0.731-0.39-1.022-0.688c-0.29-0.3-0.522-0.663-0.696-1.088c-0.174-0.426-0.276-0.905-0.305-1.438
			c-0.01-0.145-0.015-0.303-0.015-0.472s0.005-0.326,0.015-0.471c0.028-0.532,0.131-1.012,0.305-1.438
			c0.174-0.425,0.406-0.785,0.696-1.081c0.291-0.295,0.632-0.521,1.022-0.682C174.552,29.787,174.975,29.707,175.43,29.707
			 M177.679,34.248c0.01-0.145,0.015-0.336,0.015-0.573c0-0.236-0.005-0.428-0.015-0.571c-0.029-0.688-0.234-1.218-0.617-1.59
			c-0.382-0.372-0.877-0.56-1.487-0.56c-0.639,0-1.142,0.204-1.509,0.61s-0.571,0.958-0.609,1.653c-0.01,0.271-0.01,0.542,0,0.813
			c0.038,0.697,0.242,1.249,0.609,1.655c0.367,0.405,0.87,0.608,1.509,0.608c0.6,0,1.093-0.183,1.48-0.551
			C177.442,35.376,177.65,34.877,177.679,34.248"/>
		<path clip-path="url(#SVGID_4_)" fill="#FFFFFF" d="M184.369,32.899c0.037-0.445,0.145-0.861,0.318-1.248s0.401-0.726,0.683-1.016
			c0.279-0.29,0.615-0.518,1.008-0.683c0.392-0.165,0.83-0.247,1.313-0.247c0.523,0,0.99,0.085,1.401,0.254
			c0.411,0.17,0.761,0.414,1.052,0.733c0.29,0.319,0.512,0.706,0.667,1.161c0.155,0.454,0.232,0.963,0.232,1.522v0.393
			c0,0.106-0.039,0.199-0.116,0.276s-0.169,0.115-0.275,0.115h-4.991v0.087c0.019,0.658,0.22,1.164,0.602,1.517
			c0.382,0.354,0.858,0.529,1.429,0.529c0.532,0,0.932-0.073,1.197-0.225c0.267-0.15,0.482-0.315,0.646-0.5
			c0.077-0.078,0.146-0.131,0.203-0.16c0.06-0.028,0.146-0.044,0.263-0.044h0.435c0.106,0,0.203,0.039,0.29,0.116
			c0.087,0.078,0.121,0.17,0.102,0.276c-0.028,0.175-0.111,0.365-0.246,0.573c-0.137,0.208-0.331,0.401-0.589,0.58
			c-0.256,0.18-0.574,0.329-0.957,0.45s-0.829,0.181-1.343,0.181c-0.482,0-0.919-0.085-1.305-0.254
			c-0.388-0.169-0.724-0.4-1.009-0.695c-0.285-0.296-0.516-0.645-0.689-1.045c-0.174-0.401-0.281-0.84-0.318-1.313
			C184.319,33.789,184.319,33.345,184.369,32.899 M185.66,32.942h4.076v-0.043c0-0.591-0.186-1.062-0.558-1.415
			c-0.373-0.353-0.869-0.53-1.488-0.53c-0.279,0-0.541,0.046-0.783,0.14c-0.241,0.091-0.454,0.222-0.639,0.391
			c-0.183,0.17-0.328,0.375-0.435,0.617c-0.107,0.242-0.164,0.508-0.174,0.798V32.942z"/>
		<path clip-path="url(#SVGID_4_)" fill="#FFFFFF" d="M195.498,34.553l-2.046,2.568c-0.039,0.049-0.095,0.107-0.167,0.175
			c-0.073,0.068-0.172,0.102-0.297,0.102h-0.668c-0.098,0-0.18-0.033-0.246-0.102c-0.068-0.067-0.103-0.145-0.103-0.232
			c0-0.077,0.02-0.145,0.059-0.202l2.654-3.323l-2.51-3.149c-0.039-0.058-0.058-0.126-0.058-0.203c0-0.086,0.033-0.164,0.101-0.231
			c0.068-0.068,0.15-0.102,0.247-0.102h0.697c0.125,0,0.224,0.033,0.297,0.102c0.073,0.067,0.128,0.126,0.167,0.174l1.93,2.423
			l1.915-2.423c0.039-0.048,0.095-0.106,0.167-0.174c0.073-0.068,0.172-0.102,0.298-0.102h0.667c0.098,0,0.18,0.033,0.247,0.102
			c0.067,0.067,0.102,0.146,0.102,0.231c0,0.077-0.02,0.146-0.059,0.203l-2.523,3.178l2.626,3.295
			c0.039,0.058,0.058,0.125,0.058,0.202c0,0.088-0.034,0.165-0.102,0.232c-0.068,0.068-0.15,0.102-0.247,0.102h-0.696
			c-0.126,0-0.225-0.033-0.297-0.102c-0.073-0.067-0.129-0.126-0.167-0.175L195.498,34.553z"/>
		<path clip-path="url(#SVGID_4_)" fill="#FFFFFF" d="M204.16,37.543c-0.6,0-1.078-0.104-1.436-0.313
			c-0.358-0.208-0.63-0.433-0.813-0.675v3.207c0,0.105-0.039,0.198-0.116,0.275s-0.169,0.116-0.275,0.116h-0.537
			c-0.106,0-0.198-0.039-0.275-0.116c-0.078-0.077-0.116-0.17-0.116-0.275v-9.52c0-0.105,0.038-0.197,0.116-0.275
			c0.077-0.076,0.169-0.115,0.275-0.115h0.537c0.106,0,0.198,0.039,0.275,0.115c0.077,0.078,0.116,0.17,0.116,0.275v0.45
			c0.193-0.261,0.469-0.491,0.827-0.688c0.357-0.198,0.832-0.299,1.422-0.299c0.455,0,0.878,0.081,1.27,0.24
			c0.393,0.159,0.733,0.39,1.023,0.689s0.522,0.663,0.696,1.088c0.174,0.426,0.275,0.905,0.305,1.436
			c0.009,0.146,0.015,0.305,0.015,0.474s-0.006,0.326-0.015,0.471c-0.029,0.532-0.131,1.011-0.305,1.436
			c-0.174,0.427-0.406,0.786-0.696,1.082s-0.631,0.522-1.023,0.683C205.038,37.463,204.615,37.543,204.16,37.543 M201.911,33.001
			c-0.01,0.145-0.015,0.337-0.015,0.573c0,0.237,0.005,0.429,0.015,0.572c0.029,0.688,0.234,1.217,0.617,1.589
			c0.382,0.373,0.878,0.56,1.487,0.56c0.639,0,1.142-0.203,1.509-0.609c0.368-0.406,0.57-0.958,0.609-1.655
			c0.01-0.27,0.01-0.541,0-0.812c-0.039-0.696-0.241-1.248-0.609-1.654c-0.367-0.406-0.87-0.61-1.509-0.61
			c-0.601,0-1.094,0.185-1.48,0.553C202.148,31.873,201.94,32.372,201.911,33.001"/>
		<path clip-path="url(#SVGID_4_)" fill="#FFFFFF" d="M208.919,32.899c0.038-0.445,0.145-0.861,0.319-1.248
			c0.174-0.387,0.4-0.726,0.682-1.016c0.28-0.29,0.616-0.518,1.008-0.683c0.393-0.165,0.83-0.247,1.313-0.247
			c0.522,0,0.989,0.085,1.4,0.254c0.411,0.17,0.762,0.414,1.053,0.733c0.289,0.319,0.512,0.706,0.667,1.161
			c0.154,0.454,0.231,0.963,0.231,1.522v0.393c0,0.106-0.039,0.199-0.116,0.276s-0.169,0.115-0.274,0.115h-4.992v0.087
			c0.019,0.658,0.22,1.164,0.602,1.517c0.383,0.354,0.858,0.529,1.43,0.529c0.531,0,0.931-0.073,1.196-0.225
			c0.268-0.15,0.482-0.315,0.646-0.5c0.077-0.078,0.145-0.131,0.203-0.16c0.059-0.028,0.145-0.044,0.262-0.044h0.435
			c0.106,0,0.203,0.039,0.29,0.116c0.088,0.078,0.121,0.17,0.103,0.276c-0.029,0.175-0.112,0.365-0.247,0.573
			c-0.136,0.208-0.331,0.401-0.588,0.58c-0.256,0.18-0.575,0.329-0.957,0.45c-0.383,0.121-0.83,0.181-1.343,0.181
			c-0.483,0-0.919-0.085-1.306-0.254c-0.388-0.169-0.724-0.4-1.009-0.695c-0.285-0.296-0.515-0.645-0.688-1.045
			c-0.175-0.401-0.281-0.84-0.319-1.313C208.871,33.789,208.871,33.345,208.919,32.899 M210.21,32.942h4.077v-0.043
			c0-0.591-0.187-1.062-0.559-1.415c-0.373-0.353-0.868-0.53-1.487-0.53c-0.28,0-0.541,0.046-0.783,0.14
			c-0.242,0.091-0.455,0.222-0.639,0.391c-0.184,0.17-0.328,0.375-0.436,0.617c-0.106,0.242-0.164,0.508-0.174,0.798V32.942z"/>
		<path clip-path="url(#SVGID_4_)" fill="#FFFFFF" d="M221.18,29.853c0.106,0,0.198,0.039,0.275,0.115
			c0.077,0.077,0.116,0.17,0.116,0.275v0.465c0,0.106-0.039,0.198-0.116,0.275c-0.077,0.078-0.169,0.117-0.275,0.117h-0.841
			c-1.113,0-1.669,0.556-1.669,1.669v4.235c0,0.107-0.039,0.199-0.116,0.276c-0.078,0.077-0.17,0.116-0.276,0.116h-0.537
			c-0.105,0-0.197-0.039-0.274-0.116c-0.078-0.077-0.117-0.169-0.117-0.276v-6.762c0-0.105,0.039-0.198,0.117-0.275
			c0.077-0.076,0.169-0.115,0.274-0.115h0.537c0.106,0,0.198,0.039,0.276,0.115c0.077,0.077,0.116,0.17,0.116,0.275v0.45
			c0.192-0.29,0.425-0.503,0.695-0.638c0.271-0.136,0.624-0.203,1.061-0.203H221.18z"/>
		<path clip-path="url(#SVGID_4_)" fill="#FFFFFF" d="M224.299,28.314c0,0.106-0.038,0.198-0.116,0.275
			c-0.077,0.078-0.169,0.117-0.275,0.117h-0.827c-0.106,0-0.198-0.039-0.275-0.117c-0.078-0.077-0.116-0.169-0.116-0.275v-0.828
			c0-0.106,0.038-0.197,0.116-0.275c0.077-0.077,0.169-0.116,0.275-0.116h0.827c0.106,0,0.198,0.039,0.275,0.116
			c0.078,0.078,0.116,0.169,0.116,0.275V28.314z M224.154,37.005c0,0.107-0.038,0.199-0.115,0.276s-0.169,0.116-0.276,0.116h-0.537
			c-0.105,0-0.198-0.039-0.274-0.116c-0.078-0.077-0.116-0.169-0.116-0.276v-6.762c0-0.104,0.038-0.198,0.116-0.276
			c0.076-0.075,0.169-0.114,0.274-0.114h0.537c0.107,0,0.199,0.039,0.276,0.114c0.077,0.078,0.115,0.172,0.115,0.276V37.005z"/>
		<path clip-path="url(#SVGID_4_)" fill="#FFFFFF" d="M227.652,30.693c0.087-0.115,0.188-0.233,0.305-0.355
			c0.116-0.121,0.249-0.227,0.398-0.319c0.15-0.092,0.326-0.166,0.53-0.225c0.203-0.059,0.44-0.087,0.711-0.087
			c0.59,0,1.078,0.108,1.465,0.327c0.388,0.218,0.692,0.529,0.914,0.936c0.126-0.175,0.26-0.339,0.399-0.494s0.305-0.29,0.494-0.406
			c0.188-0.115,0.4-0.205,0.638-0.269c0.237-0.063,0.515-0.094,0.835-0.094c0.977,0,1.688,0.293,2.132,0.878
			c0.445,0.586,0.668,1.386,0.668,2.401v4.02c0,0.105-0.039,0.199-0.115,0.274c-0.078,0.078-0.171,0.117-0.276,0.117h-0.537
			c-0.105,0-0.198-0.039-0.275-0.117c-0.077-0.075-0.116-0.169-0.116-0.274v-3.875c0-0.744-0.146-1.293-0.436-1.647
			c-0.29-0.352-0.716-0.528-1.276-0.528c-0.513,0-0.927,0.169-1.24,0.508c-0.315,0.339-0.473,0.86-0.473,1.566v3.977
			c0,0.105-0.038,0.199-0.115,0.274c-0.078,0.078-0.17,0.117-0.276,0.117h-0.537c-0.105,0-0.198-0.039-0.274-0.117
			c-0.078-0.075-0.117-0.169-0.117-0.274v-3.875c0-0.744-0.145-1.293-0.436-1.647c-0.29-0.352-0.716-0.528-1.276-0.528
			c-0.513,0-0.927,0.169-1.24,0.508c-0.315,0.339-0.472,0.86-0.472,1.566v3.977c0,0.105-0.039,0.199-0.116,0.274
			c-0.077,0.078-0.169,0.117-0.276,0.117h-0.537c-0.105,0-0.197-0.039-0.274-0.117c-0.078-0.075-0.116-0.169-0.116-0.274v-6.762
			c0-0.106,0.038-0.199,0.116-0.276c0.077-0.077,0.169-0.115,0.274-0.115h0.537c0.107,0,0.199,0.038,0.276,0.115
			s0.116,0.17,0.116,0.276V30.693z"/>
		<path clip-path="url(#SVGID_4_)" fill="#FFFFFF" d="M238.897,32.899c0.038-0.445,0.146-0.861,0.319-1.248s0.4-0.726,0.682-1.016
			c0.28-0.29,0.616-0.518,1.008-0.683c0.393-0.165,0.83-0.247,1.313-0.247c0.522,0,0.99,0.085,1.4,0.254
			c0.411,0.17,0.762,0.414,1.053,0.733c0.29,0.319,0.512,0.706,0.667,1.161c0.154,0.454,0.231,0.963,0.231,1.522v0.393
			c0,0.106-0.039,0.199-0.116,0.276c-0.076,0.077-0.169,0.115-0.274,0.115h-4.992v0.087c0.02,0.658,0.22,1.164,0.603,1.517
			c0.382,0.354,0.857,0.529,1.429,0.529c0.532,0,0.931-0.073,1.197-0.225c0.267-0.15,0.481-0.315,0.646-0.5
			c0.077-0.078,0.146-0.131,0.203-0.16c0.059-0.028,0.145-0.044,0.262-0.044h0.436c0.105,0,0.203,0.039,0.29,0.116
			c0.087,0.078,0.121,0.17,0.102,0.276c-0.029,0.175-0.112,0.365-0.247,0.573c-0.136,0.208-0.331,0.401-0.588,0.58
			c-0.256,0.18-0.575,0.329-0.957,0.45c-0.383,0.121-0.83,0.181-1.343,0.181c-0.483,0-0.919-0.085-1.306-0.254
			c-0.388-0.169-0.724-0.4-1.009-0.695c-0.285-0.296-0.515-0.645-0.688-1.045c-0.174-0.401-0.281-0.84-0.319-1.313
			C238.848,33.789,238.848,33.345,238.897,32.899 M240.188,32.942h4.077v-0.043c0-0.591-0.187-1.062-0.558-1.415
			c-0.373-0.353-0.869-0.53-1.488-0.53c-0.28,0-0.541,0.046-0.783,0.14c-0.242,0.091-0.455,0.222-0.639,0.391
			c-0.184,0.17-0.328,0.375-0.436,0.617c-0.106,0.242-0.164,0.508-0.174,0.798V32.942z"/>
		<path clip-path="url(#SVGID_4_)" fill="#FFFFFF" d="M254.031,37.005c0,0.107-0.039,0.199-0.115,0.276
			c-0.078,0.077-0.17,0.116-0.276,0.116h-0.537c-0.106,0-0.198-0.039-0.275-0.116s-0.116-0.169-0.116-0.276v-3.83
			c0-0.744-0.18-1.302-0.536-1.669c-0.359-0.367-0.856-0.552-1.495-0.552c-0.61,0-1.102,0.185-1.473,0.552
			c-0.372,0.367-0.56,0.925-0.56,1.669v3.83c0,0.107-0.038,0.199-0.116,0.276c-0.077,0.077-0.169,0.116-0.274,0.116h-0.537
			c-0.107,0-0.199-0.039-0.276-0.116s-0.116-0.169-0.116-0.276v-6.762c0-0.104,0.039-0.198,0.116-0.276
			c0.077-0.075,0.169-0.114,0.276-0.114h0.537c0.105,0,0.197,0.039,0.274,0.114c0.078,0.078,0.116,0.172,0.116,0.276v0.45
			c0.185-0.241,0.458-0.467,0.82-0.674c0.362-0.208,0.839-0.313,1.429-0.313c0.455,0,0.876,0.075,1.263,0.225
			c0.388,0.15,0.719,0.362,0.994,0.639c0.276,0.276,0.491,0.617,0.646,1.022c0.153,0.406,0.231,0.861,0.231,1.364V37.005z"/>
		<path clip-path="url(#SVGID_4_)" fill="#FFFFFF" d="M257.992,34.858c0,0.184,0.018,0.355,0.052,0.515
			c0.034,0.16,0.094,0.297,0.181,0.414c0.087,0.116,0.211,0.205,0.37,0.268c0.16,0.063,0.365,0.096,0.617,0.096h0.769
			c0.106,0,0.198,0.038,0.276,0.115c0.077,0.078,0.116,0.169,0.116,0.275v0.464c0,0.107-0.039,0.199-0.116,0.276
			c-0.078,0.078-0.17,0.115-0.276,0.115h-0.914c-0.842,0-1.451-0.217-1.828-0.651c-0.378-0.437-0.565-1.065-0.565-1.887V31.1h-1.074
			c-0.107,0-0.198-0.039-0.276-0.115c-0.076-0.078-0.115-0.17-0.115-0.276v-0.464c0-0.106,0.039-0.199,0.115-0.276
			c0.078-0.077,0.169-0.116,0.276-0.116h1.074v-2.366c0-0.105,0.038-0.197,0.116-0.274c0.076-0.078,0.169-0.117,0.275-0.117h0.536
			c0.107,0,0.199,0.039,0.276,0.117c0.077,0.077,0.115,0.169,0.115,0.274v2.366h1.844c0.105,0,0.197,0.039,0.275,0.116
			c0.077,0.077,0.116,0.17,0.116,0.276v0.464c0,0.106-0.039,0.198-0.116,0.276c-0.078,0.076-0.17,0.115-0.275,0.115h-1.844V34.858z"
			/>
		<path clip-path="url(#SVGID_4_)" fill="#FFFFFF" d="M266.118,35.309c0-0.185-0.051-0.337-0.151-0.457
			c-0.103-0.121-0.255-0.226-0.457-0.313c-0.203-0.087-0.463-0.169-0.777-0.247c-0.314-0.077-0.679-0.159-1.095-0.247
			c-0.784-0.164-1.333-0.438-1.647-0.819c-0.314-0.383-0.471-0.829-0.471-1.343c0-0.29,0.057-0.565,0.174-0.825
			c0.115-0.263,0.289-0.494,0.522-0.697c0.231-0.203,0.523-0.363,0.878-0.479c0.353-0.115,0.766-0.174,1.239-0.174
			c0.475,0,0.889,0.053,1.241,0.159c0.354,0.107,0.651,0.242,0.894,0.406c0.24,0.165,0.425,0.341,0.551,0.529
			c0.125,0.188,0.192,0.37,0.203,0.545c0.009,0.106-0.027,0.198-0.109,0.275c-0.082,0.078-0.177,0.117-0.283,0.117h-0.479
			c-0.059,0-0.128-0.013-0.21-0.037c-0.082-0.023-0.158-0.08-0.226-0.167c-0.126-0.165-0.312-0.302-0.559-0.413
			c-0.246-0.111-0.587-0.168-1.023-0.168c-0.444,0-0.805,0.083-1.081,0.247c-0.274,0.165-0.412,0.392-0.412,0.682
			c0,0.185,0.037,0.331,0.115,0.442c0.077,0.112,0.203,0.209,0.377,0.291s0.404,0.157,0.689,0.225
			c0.285,0.068,0.641,0.15,1.066,0.247c0.444,0.097,0.817,0.221,1.117,0.37c0.301,0.149,0.542,0.319,0.727,0.507
			c0.183,0.189,0.313,0.398,0.391,0.624c0.078,0.229,0.116,0.468,0.116,0.72c0,0.29-0.07,0.57-0.21,0.841
			c-0.141,0.271-0.341,0.508-0.603,0.712c-0.261,0.202-0.577,0.367-0.949,0.493c-0.373,0.125-0.796,0.188-1.271,0.188
			c-0.474,0-0.895-0.059-1.263-0.175c-0.367-0.116-0.683-0.259-0.942-0.428c-0.262-0.169-0.463-0.354-0.603-0.552
			c-0.141-0.197-0.215-0.385-0.226-0.559c-0.01-0.105,0.024-0.198,0.103-0.274c0.077-0.078,0.174-0.117,0.29-0.117h0.521
			c0.059,0,0.126,0.007,0.203,0.021c0.078,0.016,0.15,0.07,0.218,0.167c0.155,0.213,0.367,0.377,0.639,0.493
			c0.271,0.117,0.625,0.174,1.06,0.174c0.212,0,0.423-0.023,0.631-0.071c0.208-0.05,0.393-0.117,0.551-0.203
			c0.16-0.087,0.288-0.191,0.386-0.313C266.07,35.586,266.118,35.453,266.118,35.309"/>
		<path clip-path="url(#SVGID_4_)" fill="#FFFFFF" d="M87.2,44.356c0,0.106-0.038,0.198-0.116,0.275
			c-0.077,0.078-0.169,0.117-0.276,0.117h-0.827c-0.106,0-0.198-0.039-0.275-0.117c-0.078-0.077-0.116-0.169-0.116-0.275v-0.827
			c0-0.106,0.038-0.197,0.116-0.275c0.077-0.077,0.169-0.116,0.275-0.116h0.827c0.107,0,0.199,0.039,0.276,0.116
			c0.078,0.078,0.116,0.169,0.116,0.275V44.356z M87.055,53.048c0,0.107-0.039,0.199-0.116,0.276
			c-0.077,0.077-0.169,0.115-0.276,0.115h-0.537c-0.106,0-0.198-0.038-0.275-0.115c-0.078-0.077-0.116-0.169-0.116-0.276v-6.762
			c0-0.105,0.038-0.198,0.116-0.276c0.077-0.076,0.169-0.115,0.275-0.115h0.537c0.107,0,0.199,0.039,0.276,0.115
			c0.077,0.078,0.116,0.171,0.116,0.276V53.048z"/>
		<path clip-path="url(#SVGID_4_)" fill="#FFFFFF" d="M95.936,53.048c0,0.107-0.039,0.199-0.116,0.276
			c-0.078,0.077-0.169,0.115-0.276,0.115h-0.537c-0.106,0-0.198-0.038-0.276-0.115c-0.077-0.077-0.116-0.169-0.116-0.276v-3.83
			c0-0.745-0.179-1.302-0.536-1.669c-0.359-0.368-0.856-0.552-1.495-0.552c-0.61,0-1.101,0.184-1.473,0.552
			c-0.372,0.367-0.559,0.924-0.559,1.669v3.83c0,0.107-0.038,0.199-0.116,0.276c-0.077,0.077-0.169,0.115-0.275,0.115h-0.537
			c-0.107,0-0.199-0.038-0.276-0.115s-0.116-0.169-0.116-0.276v-6.762c0-0.105,0.039-0.198,0.116-0.276
			c0.077-0.076,0.169-0.115,0.276-0.115h0.537c0.106,0,0.198,0.039,0.275,0.115c0.078,0.078,0.116,0.171,0.116,0.276v0.45
			c0.184-0.241,0.458-0.468,0.82-0.675c0.363-0.208,0.839-0.312,1.429-0.312c0.455,0,0.876,0.075,1.263,0.224
			c0.387,0.151,0.718,0.363,0.994,0.64c0.276,0.275,0.491,0.616,0.646,1.022c0.154,0.406,0.232,0.861,0.232,1.364V53.048z"/>
		<path clip-path="url(#SVGID_4_)" fill="#FFFFFF" d="M105.149,53.585c-0.6,0-1.078-0.104-1.436-0.312s-0.629-0.434-0.813-0.675
			v3.207c0,0.105-0.039,0.197-0.116,0.275c-0.077,0.077-0.169,0.116-0.276,0.116h-0.537c-0.106,0-0.198-0.039-0.275-0.116
			c-0.078-0.078-0.116-0.17-0.116-0.275v-9.52c0-0.105,0.038-0.198,0.116-0.276c0.077-0.075,0.169-0.114,0.275-0.114h0.537
			c0.107,0,0.199,0.039,0.276,0.114c0.077,0.078,0.116,0.171,0.116,0.276v0.45c0.193-0.261,0.469-0.491,0.827-0.689
			c0.358-0.197,0.832-0.298,1.422-0.298c0.455,0,0.878,0.081,1.27,0.24s0.733,0.389,1.023,0.688c0.29,0.301,0.522,0.663,0.696,1.089
			c0.174,0.426,0.276,0.904,0.305,1.436c0.009,0.146,0.015,0.304,0.015,0.473s-0.006,0.326-0.015,0.472
			c-0.029,0.531-0.131,1.011-0.305,1.436c-0.174,0.426-0.406,0.786-0.696,1.082c-0.29,0.295-0.631,0.522-1.023,0.683
			C106.027,53.505,105.604,53.585,105.149,53.585 M102.9,49.043c-0.01,0.146-0.015,0.337-0.015,0.574s0.005,0.428,0.015,0.572
			c0.029,0.688,0.234,1.217,0.617,1.589c0.382,0.373,0.878,0.559,1.487,0.559c0.639,0,1.142-0.203,1.509-0.608
			c0.368-0.406,0.571-0.958,0.61-1.655c0.009-0.271,0.009-0.541,0-0.813c-0.039-0.695-0.242-1.247-0.61-1.653
			c-0.367-0.406-0.87-0.61-1.509-0.61c-0.6,0-1.093,0.185-1.48,0.552C103.137,47.916,102.929,48.415,102.9,49.043"/>
		<path clip-path="url(#SVGID_4_)" fill="#FFFFFF" d="M109.72,51.54c0-0.387,0.077-0.727,0.232-1.017
			c0.155-0.289,0.368-0.536,0.639-0.74c0.27-0.202,0.587-0.367,0.95-0.493c0.363-0.125,0.747-0.222,1.153-0.29l2.046-0.334v-0.188
			c0-0.493-0.162-0.863-0.486-1.11c-0.324-0.246-0.727-0.37-1.211-0.37c-0.426,0-0.747,0.078-0.965,0.232
			c-0.218,0.154-0.404,0.339-0.559,0.553c-0.058,0.077-0.121,0.13-0.189,0.159c-0.067,0.028-0.159,0.043-0.275,0.043h-0.435
			c-0.107,0-0.201-0.039-0.283-0.116s-0.119-0.169-0.109-0.276c0.019-0.212,0.104-0.43,0.254-0.653
			c0.15-0.222,0.353-0.42,0.609-0.595c0.257-0.173,0.552-0.315,0.885-0.428c0.334-0.111,0.69-0.166,1.067-0.166
			c0.435,0,0.839,0.063,1.211,0.188c0.373,0.126,0.692,0.311,0.958,0.553c0.266,0.24,0.474,0.542,0.624,0.898
			c0.15,0.358,0.225,0.771,0.225,1.234v4.425c0,0.107-0.039,0.199-0.116,0.276c-0.078,0.077-0.169,0.115-0.276,0.115h-0.536
			c-0.107,0-0.199-0.038-0.276-0.115c-0.078-0.077-0.117-0.169-0.117-0.276v-0.595c-0.086,0.184-0.222,0.347-0.406,0.486
			c-0.184,0.141-0.394,0.26-0.631,0.355c-0.237,0.097-0.484,0.169-0.74,0.217c-0.256,0.049-0.496,0.074-0.718,0.074
			c-0.378,0-0.723-0.054-1.038-0.16c-0.314-0.106-0.58-0.249-0.798-0.428c-0.217-0.179-0.387-0.395-0.508-0.646
			C109.78,52.101,109.72,51.829,109.72,51.54 M112.39,52.337c0.348,0,0.667-0.053,0.958-0.159c0.29-0.105,0.539-0.254,0.747-0.442
			s0.367-0.413,0.479-0.676c0.111-0.261,0.166-0.551,0.166-0.87v-0.362l-1.712,0.274c-0.609,0.098-1.093,0.252-1.451,0.466
			c-0.358,0.213-0.536,0.488-0.536,0.826c0,0.107,0.023,0.213,0.072,0.319c0.048,0.107,0.125,0.209,0.232,0.305
			c0.107,0.098,0.244,0.175,0.414,0.233C111.928,52.309,112.138,52.337,112.39,52.337"/>
		<path clip-path="url(#SVGID_4_)" fill="#FFFFFF" d="M122.01,45.895c0.107,0,0.198,0.039,0.276,0.115
			c0.077,0.078,0.116,0.17,0.116,0.276v0.465c0,0.105-0.039,0.198-0.116,0.275c-0.078,0.077-0.169,0.116-0.276,0.116h-0.841
			c-1.113,0-1.669,0.557-1.669,1.669v4.236c0,0.107-0.039,0.199-0.116,0.276c-0.078,0.077-0.17,0.115-0.276,0.115h-0.537
			c-0.106,0-0.198-0.038-0.275-0.115c-0.078-0.077-0.117-0.169-0.117-0.276v-6.762c0-0.106,0.039-0.198,0.117-0.276
			c0.077-0.076,0.169-0.115,0.275-0.115h0.537c0.106,0,0.198,0.039,0.276,0.115c0.077,0.078,0.116,0.17,0.116,0.276v0.45
			c0.193-0.29,0.425-0.503,0.696-0.639c0.271-0.135,0.624-0.203,1.06-0.203H122.01z"/>
		<path clip-path="url(#SVGID_4_)" fill="#FFFFFF" d="M125.637,50.9c0,0.185,0.017,0.356,0.051,0.516
			c0.034,0.159,0.094,0.297,0.181,0.414c0.087,0.115,0.211,0.204,0.37,0.268c0.16,0.063,0.365,0.095,0.617,0.095h0.769
			c0.106,0,0.198,0.039,0.276,0.116c0.077,0.078,0.116,0.169,0.116,0.275v0.464c0,0.106-0.039,0.199-0.116,0.275
			c-0.078,0.078-0.17,0.116-0.276,0.116h-0.914c-0.842,0-1.451-0.217-1.828-0.651c-0.378-0.437-0.566-1.065-0.566-1.888v-3.758
			h-1.074c-0.107,0-0.198-0.039-0.276-0.116c-0.077-0.078-0.116-0.169-0.116-0.275v-0.464c0-0.106,0.039-0.199,0.116-0.276
			c0.078-0.077,0.169-0.116,0.276-0.116h1.074v-2.366c0-0.104,0.038-0.196,0.116-0.273c0.077-0.078,0.169-0.117,0.276-0.117h0.536
			c0.107,0,0.199,0.039,0.276,0.117c0.077,0.077,0.116,0.169,0.116,0.273v2.366h1.843c0.106,0,0.198,0.039,0.276,0.116
			c0.077,0.077,0.116,0.17,0.116,0.276v0.464c0,0.106-0.039,0.197-0.116,0.275c-0.078,0.077-0.17,0.116-0.276,0.116h-1.843V50.9z"/>
		<path clip-path="url(#SVGID_4_)" fill="#FFFFFF" d="M130.934,44.356c0,0.106-0.038,0.198-0.116,0.275
			c-0.077,0.078-0.169,0.117-0.276,0.117h-0.827c-0.106,0-0.198-0.039-0.275-0.117c-0.078-0.077-0.116-0.169-0.116-0.275v-0.827
			c0-0.106,0.038-0.197,0.116-0.275c0.077-0.077,0.169-0.116,0.275-0.116h0.827c0.107,0,0.199,0.039,0.276,0.116
			c0.078,0.078,0.116,0.169,0.116,0.275V44.356z M130.789,53.048c0,0.107-0.039,0.199-0.116,0.276
			c-0.077,0.077-0.169,0.115-0.276,0.115h-0.537c-0.106,0-0.198-0.038-0.275-0.115c-0.078-0.077-0.116-0.169-0.116-0.276v-6.762
			c0-0.105,0.038-0.198,0.116-0.276c0.077-0.076,0.169-0.115,0.275-0.115h0.537c0.107,0,0.199,0.039,0.276,0.115
			c0.077,0.078,0.116,0.171,0.116,0.276V53.048z"/>
		<path clip-path="url(#SVGID_4_)" fill="#FFFFFF" d="M133.937,50.176c0.038,0.387,0.123,0.715,0.254,0.986
			c0.132,0.271,0.29,0.492,0.479,0.667c0.188,0.175,0.398,0.303,0.631,0.385c0.232,0.083,0.469,0.123,0.711,0.123
			c0.464,0,0.861-0.086,1.19-0.261s0.585-0.465,0.769-0.871c0.067-0.154,0.138-0.259,0.21-0.312c0.073-0.053,0.162-0.08,0.27-0.08
			h0.435c0.106,0,0.2,0.039,0.283,0.116c0.082,0.078,0.118,0.169,0.108,0.275c-0.01,0.232-0.085,0.486-0.225,0.763
			c-0.141,0.274-0.349,0.532-0.624,0.769c-0.276,0.237-0.614,0.438-1.016,0.603c-0.401,0.164-0.868,0.247-1.4,0.247
			s-1.004-0.088-1.415-0.263c-0.411-0.173-0.76-0.41-1.045-0.711c-0.285-0.299-0.508-0.652-0.667-1.059
			c-0.16-0.406-0.249-0.841-0.268-1.307c-0.01-0.153-0.018-0.345-0.022-0.571c-0.005-0.229,0.002-0.424,0.022-0.588
			c0.038-0.466,0.138-0.9,0.297-1.307c0.16-0.406,0.379-0.76,0.661-1.06c0.28-0.3,0.624-0.537,1.029-0.711
			c0.407-0.174,0.876-0.261,1.408-0.261s0.999,0.081,1.4,0.246s0.739,0.365,1.016,0.603c0.275,0.238,0.483,0.493,0.624,0.769
			c0.14,0.276,0.215,0.529,0.225,0.763c0.01,0.106-0.026,0.197-0.108,0.275c-0.083,0.077-0.177,0.115-0.283,0.115h-0.435
			c-0.107,0-0.196-0.026-0.27-0.079c-0.072-0.053-0.143-0.158-0.21-0.312c-0.184-0.406-0.439-0.697-0.769-0.871
			s-0.727-0.262-1.19-0.262c-0.242,0-0.48,0.041-0.719,0.123c-0.237,0.083-0.449,0.211-0.638,0.386
			c-0.188,0.174-0.349,0.396-0.479,0.667c-0.13,0.271-0.21,0.6-0.239,0.986C133.909,49.518,133.909,49.855,133.937,50.176"/>
		<path clip-path="url(#SVGID_4_)" fill="#FFFFFF" d="M142.483,44.356c0,0.106-0.037,0.198-0.115,0.275
			c-0.077,0.078-0.169,0.117-0.276,0.117h-0.827c-0.105,0-0.198-0.039-0.274-0.117c-0.078-0.077-0.116-0.169-0.116-0.275v-0.827
			c0-0.106,0.038-0.197,0.116-0.275c0.076-0.077,0.169-0.116,0.274-0.116h0.827c0.107,0,0.199,0.039,0.276,0.116
			c0.078,0.078,0.115,0.169,0.115,0.275V44.356z M142.338,53.048c0,0.107-0.039,0.199-0.116,0.276s-0.169,0.115-0.275,0.115h-0.537
			c-0.106,0-0.198-0.038-0.275-0.115c-0.078-0.077-0.116-0.169-0.116-0.276v-6.762c0-0.105,0.038-0.198,0.116-0.276
			c0.077-0.076,0.169-0.115,0.275-0.115h0.537c0.106,0,0.198,0.039,0.275,0.115c0.077,0.078,0.116,0.171,0.116,0.276V53.048z"/>
		<path clip-path="url(#SVGID_4_)" fill="#FFFFFF" d="M148.084,53.585c-0.601,0-1.078-0.104-1.437-0.312
			c-0.357-0.208-0.629-0.434-0.813-0.675v3.207c0,0.105-0.039,0.197-0.116,0.275c-0.077,0.077-0.169,0.116-0.276,0.116h-0.537
			c-0.105,0-0.197-0.039-0.274-0.116c-0.078-0.078-0.116-0.17-0.116-0.275v-9.52c0-0.105,0.038-0.198,0.116-0.276
			c0.077-0.075,0.169-0.114,0.274-0.114h0.537c0.107,0,0.199,0.039,0.276,0.114c0.077,0.078,0.116,0.171,0.116,0.276v0.45
			c0.192-0.261,0.469-0.491,0.826-0.689c0.358-0.197,0.832-0.298,1.423-0.298c0.455,0,0.878,0.081,1.27,0.24
			s0.733,0.389,1.023,0.688c0.29,0.301,0.521,0.663,0.695,1.089c0.175,0.426,0.276,0.904,0.306,1.436
			c0.009,0.146,0.015,0.304,0.015,0.473s-0.006,0.326-0.015,0.472c-0.029,0.531-0.131,1.011-0.306,1.436
			c-0.174,0.426-0.405,0.786-0.695,1.082c-0.29,0.295-0.632,0.522-1.023,0.683C148.962,53.505,148.54,53.585,148.084,53.585
			 M145.835,49.043c-0.011,0.146-0.016,0.337-0.016,0.574s0.005,0.428,0.016,0.572c0.028,0.688,0.233,1.217,0.616,1.589
			c0.383,0.373,0.878,0.559,1.487,0.559c0.639,0,1.143-0.203,1.509-0.608c0.368-0.406,0.571-0.958,0.61-1.655
			c0.009-0.271,0.009-0.541,0-0.813c-0.039-0.695-0.242-1.247-0.61-1.653c-0.366-0.406-0.87-0.61-1.509-0.61
			c-0.6,0-1.093,0.185-1.479,0.552C146.072,47.916,145.864,48.415,145.835,49.043"/>
		<path clip-path="url(#SVGID_4_)" fill="#FFFFFF" d="M152.656,51.54c0-0.387,0.076-0.727,0.231-1.017
			c0.155-0.289,0.368-0.536,0.639-0.74c0.271-0.202,0.587-0.367,0.95-0.493c0.363-0.125,0.747-0.222,1.153-0.29l2.046-0.334v-0.188
			c0-0.493-0.162-0.863-0.486-1.11c-0.323-0.246-0.727-0.37-1.211-0.37c-0.426,0-0.747,0.078-0.965,0.232s-0.404,0.339-0.559,0.553
			c-0.059,0.077-0.121,0.13-0.189,0.159c-0.066,0.028-0.159,0.043-0.274,0.043h-0.436c-0.106,0-0.201-0.039-0.283-0.116
			s-0.119-0.169-0.108-0.276c0.019-0.212,0.104-0.43,0.254-0.653c0.149-0.222,0.353-0.42,0.608-0.595
			c0.258-0.173,0.553-0.315,0.886-0.428c0.334-0.111,0.689-0.166,1.066-0.166c0.436,0,0.839,0.063,1.211,0.188
			c0.373,0.126,0.692,0.311,0.958,0.553c0.267,0.24,0.475,0.542,0.624,0.898c0.15,0.358,0.226,0.771,0.226,1.234v4.425
			c0,0.107-0.039,0.199-0.116,0.276c-0.078,0.077-0.169,0.115-0.276,0.115h-0.536c-0.106,0-0.198-0.038-0.275-0.115
			c-0.078-0.077-0.117-0.169-0.117-0.276v-0.595c-0.086,0.184-0.222,0.347-0.406,0.486c-0.184,0.141-0.394,0.26-0.631,0.355
			c-0.237,0.097-0.484,0.169-0.74,0.217c-0.256,0.049-0.496,0.074-0.718,0.074c-0.378,0-0.723-0.054-1.038-0.16
			c-0.313-0.106-0.58-0.249-0.798-0.428c-0.217-0.179-0.387-0.395-0.508-0.646C152.715,52.101,152.656,51.829,152.656,51.54
			 M155.326,52.337c0.348,0,0.667-0.053,0.958-0.159c0.29-0.105,0.539-0.254,0.747-0.442c0.207-0.188,0.366-0.413,0.479-0.676
			c0.111-0.261,0.166-0.551,0.166-0.87v-0.362l-1.712,0.274c-0.609,0.098-1.093,0.252-1.451,0.466
			c-0.358,0.213-0.536,0.488-0.536,0.826c0,0.107,0.023,0.213,0.072,0.319c0.048,0.107,0.125,0.209,0.232,0.305
			c0.106,0.098,0.243,0.175,0.413,0.233C154.863,52.309,155.074,52.337,155.326,52.337"/>
		<path clip-path="url(#SVGID_4_)" fill="#FFFFFF" d="M163,50.9c0,0.185,0.018,0.356,0.052,0.516
			c0.033,0.159,0.094,0.297,0.181,0.414c0.087,0.115,0.211,0.204,0.37,0.268c0.16,0.063,0.365,0.095,0.617,0.095h0.769
			c0.106,0,0.198,0.039,0.276,0.116c0.076,0.078,0.115,0.169,0.115,0.275v0.464c0,0.106-0.039,0.199-0.115,0.275
			c-0.078,0.078-0.17,0.116-0.276,0.116h-0.914c-0.842,0-1.451-0.217-1.828-0.651c-0.378-0.437-0.565-1.065-0.565-1.888v-3.758
			h-1.074c-0.107,0-0.198-0.039-0.276-0.116c-0.077-0.078-0.116-0.169-0.116-0.275v-0.464c0-0.106,0.039-0.199,0.116-0.276
			c0.078-0.077,0.169-0.116,0.276-0.116h1.074v-2.366c0-0.104,0.038-0.196,0.115-0.273c0.077-0.078,0.169-0.117,0.276-0.117h0.536
			c0.106,0,0.199,0.039,0.275,0.117c0.077,0.077,0.116,0.169,0.116,0.273v2.366h1.844c0.105,0,0.197,0.039,0.275,0.116
			c0.077,0.077,0.116,0.17,0.116,0.276v0.464c0,0.106-0.039,0.197-0.116,0.275c-0.078,0.077-0.17,0.116-0.275,0.116H163V50.9z"/>
		<path clip-path="url(#SVGID_4_)" fill="#FFFFFF" d="M169.922,45.75c0.522,0,0.986,0.08,1.393,0.239
			c0.407,0.159,0.755,0.38,1.045,0.659c0.29,0.281,0.52,0.622,0.688,1.023c0.17,0.402,0.274,0.84,0.313,1.313
			c0.01,0.088,0.015,0.191,0.015,0.313v0.378v0.377c0,0.121-0.005,0.221-0.015,0.297c-0.048,0.484-0.154,0.925-0.319,1.321
			c-0.164,0.396-0.392,0.735-0.682,1.016s-0.638,0.5-1.045,0.66c-0.406,0.159-0.87,0.24-1.393,0.24s-0.986-0.081-1.393-0.24
			c-0.407-0.16-0.755-0.38-1.045-0.66s-0.521-0.619-0.689-1.016c-0.17-0.396-0.273-0.837-0.312-1.321
			c-0.01-0.076-0.018-0.176-0.022-0.297c-0.005-0.12-0.007-0.246-0.007-0.377s0.002-0.256,0.007-0.378
			c0.005-0.121,0.013-0.225,0.022-0.313c0.038-0.473,0.142-0.91,0.312-1.313c0.169-0.401,0.399-0.742,0.689-1.023
			c0.29-0.279,0.638-0.5,1.045-0.659C168.936,45.83,169.4,45.75,169.922,45.75 M172.041,50.276c0.02-0.164,0.029-0.364,0.029-0.602
			s-0.01-0.443-0.029-0.617c-0.029-0.29-0.092-0.561-0.188-0.813c-0.097-0.251-0.232-0.47-0.406-0.653
			c-0.174-0.183-0.387-0.328-0.638-0.435c-0.252-0.106-0.548-0.16-0.886-0.16c-0.339,0-0.634,0.054-0.886,0.16
			c-0.251,0.106-0.464,0.252-0.638,0.435c-0.174,0.184-0.311,0.402-0.406,0.653c-0.097,0.252-0.16,0.522-0.189,0.813
			c-0.019,0.174-0.028,0.38-0.028,0.617s0.01,0.438,0.028,0.602c0.029,0.29,0.093,0.562,0.189,0.813
			c0.096,0.252,0.232,0.47,0.406,0.653s0.387,0.33,0.638,0.436c0.252,0.106,0.547,0.159,0.886,0.159
			c0.338,0,0.634-0.053,0.886-0.159c0.251-0.105,0.464-0.252,0.638-0.436s0.31-0.401,0.406-0.653
			C171.949,50.838,172.011,50.566,172.041,50.276"/>
		<path clip-path="url(#SVGID_4_)" fill="#FFFFFF" d="M179.035,45.895c0.107,0,0.198,0.039,0.276,0.115
			c0.076,0.078,0.115,0.17,0.115,0.276v0.465c0,0.105-0.039,0.198-0.115,0.275c-0.078,0.077-0.169,0.116-0.276,0.116h-0.841
			c-1.113,0-1.669,0.557-1.669,1.669v4.236c0,0.107-0.039,0.199-0.116,0.276c-0.078,0.077-0.17,0.115-0.276,0.115h-0.537
			c-0.105,0-0.197-0.038-0.274-0.115c-0.078-0.077-0.117-0.169-0.117-0.276v-6.762c0-0.106,0.039-0.198,0.117-0.276
			c0.077-0.076,0.169-0.115,0.274-0.115h0.537c0.106,0,0.198,0.039,0.276,0.115c0.077,0.078,0.116,0.17,0.116,0.276v0.45
			c0.192-0.29,0.425-0.503,0.695-0.639c0.271-0.135,0.624-0.203,1.061-0.203H179.035z"/>
		<path clip-path="url(#SVGID_4_)" fill="#FFFFFF" d="M182.909,55.849c-0.029,0.077-0.078,0.154-0.146,0.232
			c-0.067,0.077-0.158,0.116-0.275,0.116h-0.596c-0.096,0-0.179-0.034-0.245-0.102c-0.068-0.067-0.103-0.15-0.103-0.247
			c0-0.039,0.005-0.072,0.016-0.102l1.393-3.032l-2.873-6.371c-0.01-0.028-0.015-0.062-0.015-0.101c0-0.097,0.033-0.179,0.101-0.247
			c0.068-0.068,0.151-0.101,0.247-0.101h0.595c0.116,0,0.208,0.038,0.276,0.114c0.068,0.078,0.116,0.155,0.145,0.233l2.235,4.933
			l2.263-4.933c0.029-0.078,0.077-0.155,0.146-0.233c0.067-0.076,0.16-0.114,0.275-0.114h0.596c0.097,0,0.179,0.032,0.247,0.101
			c0.066,0.068,0.101,0.15,0.101,0.247c0,0.039-0.005,0.072-0.014,0.101L182.909,55.849z"/>
		<path clip-path="url(#SVGID_4_)" fill="#FFFFFF" d="M196.214,51.351c0-0.184-0.051-0.337-0.152-0.457
			c-0.102-0.121-0.254-0.225-0.457-0.312c-0.202-0.087-0.462-0.169-0.776-0.247c-0.314-0.077-0.68-0.159-1.096-0.247
			c-0.783-0.164-1.333-0.438-1.646-0.82c-0.315-0.382-0.471-0.829-0.471-1.342c0-0.29,0.057-0.565,0.174-0.826
			c0.115-0.262,0.289-0.494,0.521-0.696c0.232-0.203,0.524-0.363,0.878-0.479s0.767-0.174,1.24-0.174
			c0.475,0,0.889,0.053,1.241,0.159s0.651,0.242,0.892,0.405c0.242,0.165,0.427,0.342,0.553,0.53
			c0.125,0.188,0.192,0.37,0.203,0.544c0.009,0.107-0.027,0.199-0.109,0.276c-0.082,0.078-0.177,0.117-0.283,0.117h-0.479
			c-0.059,0-0.128-0.014-0.21-0.037c-0.082-0.024-0.158-0.08-0.226-0.167c-0.126-0.165-0.312-0.302-0.559-0.413
			c-0.246-0.111-0.587-0.168-1.023-0.168c-0.445,0-0.805,0.083-1.081,0.247c-0.274,0.165-0.413,0.392-0.413,0.682
			c0,0.185,0.038,0.331,0.116,0.442c0.077,0.111,0.203,0.209,0.377,0.291s0.404,0.157,0.689,0.225
			c0.285,0.068,0.641,0.15,1.066,0.247c0.444,0.096,0.817,0.22,1.117,0.37c0.3,0.149,0.542,0.319,0.727,0.507
			c0.183,0.189,0.313,0.398,0.391,0.624c0.078,0.229,0.116,0.467,0.116,0.719c0,0.29-0.07,0.571-0.21,0.842
			c-0.141,0.271-0.342,0.508-0.603,0.712c-0.261,0.201-0.578,0.366-0.95,0.492c-0.373,0.125-0.796,0.189-1.27,0.189
			s-0.896-0.059-1.263-0.175s-0.683-0.259-0.942-0.428c-0.262-0.17-0.463-0.354-0.603-0.553c-0.141-0.196-0.216-0.384-0.226-0.558
			c-0.01-0.106,0.024-0.198,0.103-0.275c0.076-0.078,0.174-0.117,0.29-0.117h0.521c0.058,0,0.126,0.008,0.203,0.022
			c0.078,0.015,0.15,0.07,0.218,0.167c0.155,0.213,0.367,0.377,0.639,0.493c0.271,0.117,0.625,0.174,1.06,0.174
			c0.212,0,0.423-0.024,0.631-0.072c0.208-0.049,0.392-0.117,0.551-0.203c0.16-0.087,0.288-0.19,0.386-0.313
			C196.167,51.629,196.214,51.496,196.214,51.351"/>
		<path clip-path="url(#SVGID_4_)" fill="#FFFFFF" d="M198.914,48.942c0.038-0.445,0.145-0.861,0.319-1.248
			c0.174-0.388,0.4-0.727,0.682-1.017c0.28-0.29,0.616-0.517,1.008-0.682c0.393-0.165,0.83-0.247,1.313-0.247
			c0.522,0,0.99,0.085,1.4,0.254c0.411,0.169,0.762,0.414,1.053,0.733c0.29,0.318,0.512,0.706,0.667,1.161
			c0.154,0.454,0.231,0.963,0.231,1.522v0.393c0,0.106-0.039,0.198-0.116,0.275c-0.076,0.078-0.169,0.116-0.274,0.116h-4.992v0.087
			c0.019,0.658,0.22,1.164,0.602,1.516c0.383,0.354,0.858,0.53,1.43,0.53c0.531,0,0.931-0.074,1.196-0.225
			c0.268-0.15,0.482-0.316,0.646-0.5c0.077-0.078,0.145-0.131,0.203-0.16s0.145-0.044,0.262-0.044h0.436
			c0.105,0,0.202,0.039,0.29,0.116c0.087,0.078,0.12,0.17,0.102,0.275c-0.029,0.176-0.112,0.366-0.247,0.574
			c-0.136,0.208-0.331,0.401-0.588,0.58c-0.256,0.179-0.575,0.329-0.957,0.45c-0.383,0.121-0.83,0.181-1.343,0.181
			c-0.483,0-0.919-0.085-1.306-0.254c-0.388-0.169-0.724-0.401-1.009-0.696c-0.285-0.296-0.515-0.644-0.688-1.045
			c-0.175-0.4-0.281-0.839-0.319-1.313C198.865,49.832,198.865,49.387,198.914,48.942 M200.205,48.985h4.077v-0.043
			c0-0.591-0.187-1.063-0.559-1.415c-0.372-0.354-0.868-0.53-1.487-0.53c-0.28,0-0.541,0.046-0.783,0.139
			c-0.242,0.092-0.455,0.223-0.639,0.392c-0.184,0.17-0.328,0.375-0.436,0.617c-0.106,0.241-0.164,0.508-0.174,0.798V48.985z"/>
		<path clip-path="url(#SVGID_4_)" fill="#FFFFFF" d="M214.047,53.048c0,0.107-0.039,0.199-0.116,0.276s-0.169,0.115-0.275,0.115
			h-0.537c-0.106,0-0.198-0.038-0.275-0.115c-0.078-0.077-0.117-0.169-0.117-0.276v-3.83c0-0.745-0.179-1.302-0.535-1.669
			c-0.359-0.368-0.856-0.552-1.495-0.552c-0.61,0-1.102,0.184-1.474,0.552c-0.372,0.367-0.559,0.924-0.559,1.669v3.83
			c0,0.107-0.038,0.199-0.116,0.276c-0.077,0.077-0.169,0.115-0.274,0.115h-0.537c-0.107,0-0.199-0.038-0.276-0.115
			s-0.116-0.169-0.116-0.276v-6.762c0-0.105,0.039-0.198,0.116-0.276c0.077-0.076,0.169-0.115,0.276-0.115h0.537
			c0.105,0,0.197,0.039,0.274,0.115c0.078,0.078,0.116,0.171,0.116,0.276v0.45c0.184-0.241,0.458-0.468,0.82-0.675
			c0.362-0.208,0.839-0.312,1.429-0.312c0.455,0,0.876,0.075,1.263,0.224c0.388,0.151,0.719,0.363,0.994,0.64
			c0.276,0.275,0.491,0.616,0.646,1.022c0.153,0.406,0.231,0.861,0.231,1.364V53.048z"/>
		<path clip-path="url(#SVGID_4_)" fill="#FFFFFF" d="M220.447,51.351c0-0.184-0.052-0.337-0.152-0.457
			c-0.103-0.121-0.254-0.225-0.457-0.312s-0.462-0.169-0.777-0.247c-0.313-0.077-0.679-0.159-1.095-0.247
			c-0.784-0.164-1.333-0.438-1.647-0.82c-0.314-0.382-0.471-0.829-0.471-1.342c0-0.29,0.057-0.565,0.174-0.826
			c0.115-0.262,0.289-0.494,0.522-0.696c0.231-0.203,0.523-0.363,0.878-0.479c0.353-0.116,0.766-0.174,1.24-0.174
			c0.474,0,0.888,0.053,1.24,0.159c0.354,0.106,0.651,0.242,0.893,0.405c0.242,0.165,0.426,0.342,0.552,0.53
			c0.125,0.188,0.193,0.37,0.203,0.544c0.009,0.107-0.027,0.199-0.109,0.276c-0.082,0.078-0.177,0.117-0.282,0.117h-0.479
			c-0.058,0-0.128-0.014-0.21-0.037c-0.082-0.024-0.158-0.08-0.225-0.167c-0.126-0.165-0.313-0.302-0.56-0.413
			c-0.246-0.111-0.587-0.168-1.022-0.168c-0.445,0-0.806,0.083-1.081,0.247c-0.275,0.165-0.413,0.392-0.413,0.682
			c0,0.185,0.038,0.331,0.116,0.442c0.076,0.111,0.202,0.209,0.377,0.291c0.174,0.082,0.403,0.157,0.688,0.225
			c0.285,0.068,0.642,0.15,1.067,0.247c0.443,0.096,0.816,0.22,1.117,0.37c0.3,0.149,0.542,0.319,0.726,0.507
			c0.183,0.189,0.314,0.398,0.391,0.624c0.078,0.229,0.116,0.467,0.116,0.719c0,0.29-0.069,0.571-0.21,0.842
			c-0.14,0.271-0.341,0.508-0.602,0.712c-0.262,0.201-0.578,0.366-0.95,0.492c-0.373,0.125-0.796,0.189-1.271,0.189
			c-0.474,0-0.895-0.059-1.263-0.175c-0.367-0.116-0.682-0.259-0.942-0.428c-0.262-0.17-0.463-0.354-0.603-0.553
			c-0.14-0.196-0.215-0.384-0.225-0.558c-0.011-0.106,0.023-0.198,0.102-0.275c0.077-0.078,0.174-0.117,0.29-0.117h0.522
			c0.058,0,0.126,0.008,0.202,0.022c0.078,0.015,0.15,0.07,0.219,0.167c0.154,0.213,0.366,0.377,0.638,0.493
			c0.271,0.117,0.625,0.174,1.06,0.174c0.213,0,0.424-0.024,0.632-0.072c0.208-0.049,0.392-0.117,0.551-0.203
			c0.16-0.087,0.288-0.19,0.385-0.313C220.398,51.629,220.447,51.496,220.447,51.351"/>
		<path clip-path="url(#SVGID_4_)" fill="#FFFFFF" d="M224.958,44.356c0,0.106-0.038,0.198-0.116,0.275
			c-0.077,0.078-0.169,0.117-0.275,0.117h-0.827c-0.106,0-0.198-0.039-0.275-0.117c-0.078-0.077-0.116-0.169-0.116-0.275v-0.827
			c0-0.106,0.038-0.197,0.116-0.275c0.077-0.077,0.169-0.116,0.275-0.116h0.827c0.106,0,0.198,0.039,0.275,0.116
			c0.078,0.078,0.116,0.169,0.116,0.275V44.356z M224.814,53.048c0,0.107-0.039,0.199-0.116,0.276s-0.169,0.115-0.276,0.115h-0.537
			c-0.105,0-0.197-0.038-0.274-0.115c-0.078-0.077-0.116-0.169-0.116-0.276v-6.762c0-0.105,0.038-0.198,0.116-0.276
			c0.077-0.076,0.169-0.115,0.274-0.115h0.537c0.107,0,0.199,0.039,0.276,0.115c0.077,0.078,0.116,0.171,0.116,0.276V53.048z"/>
		<path clip-path="url(#SVGID_4_)" fill="#FFFFFF" d="M233.695,53.048c0,0.107-0.039,0.199-0.116,0.276
			c-0.078,0.077-0.169,0.115-0.276,0.115h-0.537c-0.105,0-0.197-0.038-0.274-0.115c-0.078-0.077-0.117-0.169-0.117-0.276v-3.83
			c0-0.745-0.179-1.302-0.536-1.669c-0.359-0.368-0.855-0.552-1.495-0.552c-0.609,0-1.101,0.184-1.473,0.552
			c-0.372,0.367-0.56,0.924-0.56,1.669v3.83c0,0.107-0.037,0.199-0.115,0.276c-0.077,0.077-0.169,0.115-0.275,0.115h-0.537
			c-0.106,0-0.199-0.038-0.275-0.115c-0.077-0.077-0.116-0.169-0.116-0.276v-6.762c0-0.105,0.039-0.198,0.116-0.276
			c0.076-0.076,0.169-0.115,0.275-0.115h0.537c0.106,0,0.198,0.039,0.275,0.115c0.078,0.078,0.115,0.171,0.115,0.276v0.45
			c0.185-0.241,0.458-0.468,0.82-0.675c0.363-0.208,0.839-0.312,1.429-0.312c0.455,0,0.876,0.075,1.264,0.224
			c0.387,0.151,0.718,0.363,0.994,0.64c0.275,0.275,0.49,0.616,0.646,1.022c0.154,0.406,0.232,0.861,0.232,1.364V53.048z"/>
		<path clip-path="url(#SVGID_4_)" fill="#FFFFFF" d="M235.435,49.188c0.029-0.532,0.131-1.01,0.306-1.437
			c0.174-0.426,0.405-0.785,0.695-1.08c0.291-0.296,0.632-0.523,1.023-0.683c0.392-0.16,0.814-0.24,1.27-0.24
			c0.601,0,1.078,0.104,1.438,0.313c0.356,0.208,0.628,0.434,0.812,0.675v-0.45c0-0.105,0.039-0.198,0.116-0.275
			s0.169-0.115,0.276-0.115h0.537c0.105,0,0.197,0.038,0.274,0.115c0.078,0.077,0.116,0.17,0.116,0.275v7.053
			c0,1.006-0.285,1.807-0.856,2.4c-0.57,0.595-1.427,0.894-2.567,0.894c-0.58,0-1.076-0.07-1.487-0.209
			c-0.412-0.141-0.75-0.315-1.016-0.527c-0.267-0.211-0.464-0.442-0.596-0.692c-0.131-0.251-0.2-0.49-0.21-0.722
			c-0.01-0.106,0.026-0.197,0.109-0.274c0.082-0.076,0.176-0.114,0.282-0.114h0.436c0.106,0,0.196,0.025,0.269,0.079
			c0.072,0.052,0.143,0.154,0.21,0.308c0.029,0.058,0.074,0.136,0.138,0.237c0.063,0.1,0.165,0.199,0.305,0.302
			c0.141,0.099,0.324,0.186,0.553,0.258c0.227,0.071,0.515,0.107,0.862,0.107c0.319,0,0.617-0.031,0.893-0.095
			c0.275-0.063,0.516-0.167,0.719-0.312c0.203-0.146,0.36-0.339,0.471-0.581c0.111-0.242,0.167-0.536,0.167-0.885v-0.914
			c-0.192,0.261-0.469,0.491-0.827,0.688c-0.357,0.198-0.832,0.298-1.422,0.298c-0.455,0-0.878-0.079-1.27-0.239
			c-0.392-0.159-0.732-0.387-1.023-0.683c-0.29-0.295-0.521-0.654-0.695-1.081c-0.175-0.425-0.276-0.903-0.306-1.436
			c-0.009-0.146-0.014-0.305-0.014-0.479C235.421,49.493,235.426,49.334,235.435,49.188 M240.978,49.146
			c-0.028-0.688-0.233-1.217-0.617-1.59c-0.382-0.371-0.877-0.559-1.486-0.559c-0.64,0-1.143,0.203-1.509,0.61
			c-0.367,0.406-0.571,0.957-0.609,1.653c-0.01,0.271-0.01,0.542,0,0.813c0.038,0.697,0.242,1.248,0.609,1.655
			c0.366,0.406,0.869,0.607,1.509,0.607c0.609,0,1.104-0.188,1.486-0.564c0.384-0.377,0.589-0.904,0.617-1.582
			c0.01-0.144,0.016-0.319,0.016-0.522C240.994,49.465,240.988,49.29,240.978,49.146"/>
		<path clip-path="url(#SVGID_4_)" fill="#FFFFFF" d="M92.561,10.798l4.894-9.474c0.097-0.194,0.231-0.372,0.4-0.534
			c0.17-0.161,0.392-0.242,0.667-0.242h0.92c0.178,0,0.331,0.065,0.461,0.194c0.129,0.13,0.193,0.283,0.193,0.461v15.653
			c0,0.178-0.064,0.331-0.193,0.46c-0.13,0.13-0.283,0.194-0.461,0.194h-0.993c-0.178,0-0.332-0.064-0.461-0.194
			c-0.129-0.129-0.193-0.282-0.193-0.46V5.371l-3.781,7.294c-0.129,0.242-0.266,0.432-0.411,0.57
			c-0.146,0.136-0.34,0.205-0.582,0.205H92.1c-0.242,0-0.436-0.069-0.581-0.205c-0.146-0.138-0.283-0.328-0.412-0.57l-3.781-7.294
			v11.486c0,0.178-0.064,0.331-0.193,0.46c-0.13,0.13-0.283,0.194-0.461,0.194h-0.993c-0.178,0-0.331-0.064-0.461-0.194
			c-0.129-0.129-0.193-0.282-0.193-0.46V1.204c0-0.178,0.064-0.331,0.193-0.461c0.13-0.129,0.283-0.194,0.461-0.194h0.92
			c0.275,0,0.497,0.081,0.667,0.242c0.169,0.162,0.303,0.34,0.4,0.534L92.561,10.798z"/>
		<path clip-path="url(#SVGID_4_)" fill="#FFFFFF" d="M103.101,14.336c0-0.645,0.13-1.211,0.389-1.696
			c0.258-0.484,0.613-0.896,1.065-1.235c0.453-0.34,0.982-0.614,1.588-0.825c0.606-0.209,1.248-0.371,1.926-0.484l3.417-0.557V9.223
			c0-0.823-0.271-1.441-0.812-1.853c-0.542-0.412-1.216-0.618-2.023-0.618c-0.711,0-1.248,0.129-1.612,0.387
			c-0.363,0.259-0.674,0.567-0.932,0.922c-0.097,0.129-0.203,0.218-0.316,0.266c-0.113,0.048-0.266,0.073-0.46,0.073h-0.727
			c-0.178,0-0.336-0.064-0.472-0.194c-0.138-0.129-0.199-0.283-0.182-0.461c0.032-0.355,0.173-0.718,0.424-1.09
			c0.25-0.372,0.59-0.703,1.018-0.993c0.428-0.291,0.92-0.529,1.478-0.715c0.557-0.186,1.151-0.279,1.781-0.279
			c0.727,0,1.401,0.105,2.023,0.315c0.622,0.211,1.155,0.517,1.599,0.92c0.444,0.405,0.792,0.905,1.042,1.504
			c0.251,0.597,0.376,1.284,0.376,2.059v7.391c0,0.178-0.065,0.331-0.194,0.459c-0.129,0.13-0.283,0.195-0.461,0.195h-0.896
			c-0.178,0-0.331-0.065-0.46-0.195c-0.13-0.128-0.194-0.281-0.194-0.459v-0.994c-0.145,0.307-0.372,0.578-0.678,0.812
			c-0.308,0.234-0.659,0.432-1.055,0.593c-0.396,0.162-0.808,0.283-1.236,0.364s-0.827,0.121-1.199,0.121
			c-0.63,0-1.208-0.089-1.733-0.266c-0.525-0.178-0.968-0.416-1.332-0.715c-0.364-0.299-0.646-0.659-0.848-1.079
			C103.203,15.274,103.101,14.821,103.101,14.336 M107.56,15.669c0.582,0,1.115-0.089,1.599-0.266
			c0.485-0.178,0.901-0.424,1.248-0.74c0.347-0.314,0.614-0.69,0.8-1.126c0.186-0.437,0.279-0.921,0.279-1.454v-0.606l-2.859,0.46
			c-1.018,0.162-1.826,0.421-2.424,0.776c-0.597,0.355-0.896,0.816-0.896,1.381c0,0.178,0.04,0.355,0.121,0.533
			c0.081,0.178,0.209,0.348,0.387,0.509c0.178,0.162,0.409,0.291,0.691,0.388C106.789,15.621,107.14,15.669,107.56,15.669"/>
		<path clip-path="url(#SVGID_4_)" fill="#FFFFFF" d="M119.433,12.18v4.677c0,0.178-0.064,0.331-0.193,0.46
			c-0.13,0.129-0.283,0.194-0.461,0.194h-0.896c-0.178,0-0.332-0.065-0.461-0.194c-0.129-0.129-0.193-0.282-0.193-0.46V0.96
			c0-0.178,0.064-0.331,0.193-0.46s0.283-0.195,0.461-0.195h0.896c0.178,0,0.331,0.066,0.461,0.195
			c0.129,0.129,0.193,0.282,0.193,0.46v8.02l4.725-3.658c0.097-0.081,0.223-0.17,0.376-0.267c0.153-0.097,0.343-0.146,0.569-0.146
			h1.212c0.162,0,0.298,0.058,0.412,0.17c0.112,0.114,0.17,0.25,0.17,0.412c0,0.081-0.013,0.157-0.037,0.23
			c-0.024,0.073-0.1,0.158-0.23,0.255l-5.84,4.556l6.446,5.936c0.097,0.097,0.161,0.178,0.194,0.243
			c0.032,0.064,0.048,0.136,0.048,0.217c0,0.162-0.057,0.299-0.169,0.413c-0.114,0.112-0.251,0.169-0.412,0.169h-1.14
			c-0.242,0-0.447-0.048-0.617-0.145c-0.17-0.097-0.295-0.186-0.376-0.267L119.433,12.18z"/>
		<path clip-path="url(#SVGID_4_)" fill="#FFFFFF" d="M132.057,2.341c0,0.178-0.064,0.331-0.193,0.46
			c-0.13,0.13-0.283,0.194-0.461,0.194h-1.381c-0.178,0-0.331-0.064-0.46-0.194c-0.129-0.129-0.194-0.282-0.194-0.46V0.96
			c0-0.178,0.065-0.331,0.194-0.46c0.129-0.129,0.282-0.195,0.46-0.195h1.381c0.178,0,0.331,0.066,0.461,0.195
			c0.129,0.129,0.193,0.282,0.193,0.46V2.341z M131.815,16.856c0,0.178-0.064,0.331-0.193,0.46c-0.13,0.13-0.283,0.194-0.461,0.194
			h-0.896c-0.178,0-0.332-0.064-0.461-0.194c-0.129-0.129-0.193-0.282-0.193-0.46V5.564c0-0.178,0.064-0.331,0.193-0.461
			c0.129-0.128,0.283-0.194,0.461-0.194h0.896c0.178,0,0.331,0.066,0.461,0.194c0.129,0.13,0.193,0.283,0.193,0.461V16.856z"/>
		<path clip-path="url(#SVGID_4_)" fill="#FFFFFF" d="M146.645,16.856c0,0.178-0.064,0.331-0.194,0.46
			c-0.129,0.13-0.283,0.194-0.46,0.194h-0.896c-0.179,0-0.331-0.064-0.46-0.194c-0.131-0.129-0.194-0.282-0.194-0.46v-6.397
			c0-1.244-0.299-2.173-0.897-2.787c-0.598-0.613-1.43-0.921-2.494-0.921c-1.019,0-1.84,0.308-2.461,0.921
			c-0.621,0.614-0.933,1.543-0.933,2.787v6.397c0,0.178-0.064,0.331-0.194,0.46c-0.129,0.13-0.281,0.194-0.46,0.194h-0.896
			c-0.178,0-0.331-0.064-0.46-0.194c-0.129-0.129-0.194-0.282-0.194-0.46V5.564c0-0.178,0.065-0.331,0.194-0.461
			c0.129-0.128,0.282-0.194,0.46-0.194H137c0.179,0,0.331,0.066,0.46,0.194c0.13,0.13,0.194,0.283,0.194,0.461v0.751
			c0.306-0.404,0.764-0.779,1.369-1.126c0.605-0.348,1.401-0.521,2.387-0.521c0.759,0,1.462,0.124,2.108,0.375
			c0.646,0.25,1.199,0.605,1.66,1.066c0.46,0.461,0.819,1.03,1.078,1.709c0.258,0.678,0.388,1.437,0.388,2.277V16.856z"/>
		<path clip-path="url(#SVGID_4_)" fill="#FFFFFF" d="M149.552,10.411c0.048-0.889,0.218-1.688,0.509-2.399
			c0.29-0.71,0.678-1.312,1.163-1.805c0.484-0.493,1.054-0.873,1.708-1.139s1.361-0.4,2.12-0.4c1.002,0,1.802,0.174,2.398,0.521
			c0.599,0.347,1.051,0.723,1.357,1.127V5.565c0-0.178,0.064-0.331,0.194-0.461c0.129-0.129,0.283-0.194,0.461-0.194h0.896
			c0.178,0,0.331,0.065,0.461,0.194c0.129,0.13,0.193,0.283,0.193,0.461v11.776c0,1.68-0.477,3.017-1.429,4.01
			c-0.954,0.994-2.384,1.491-4.289,1.491c-0.971,0-1.797-0.117-2.484-0.349c-0.687-0.234-1.252-0.527-1.696-0.88
			c-0.444-0.354-0.775-0.739-0.993-1.157s-0.335-0.819-0.352-1.204c-0.016-0.177,0.044-0.33,0.183-0.458
			c0.136-0.129,0.295-0.193,0.472-0.193h0.727c0.179,0,0.327,0.044,0.448,0.132c0.121,0.087,0.238,0.259,0.352,0.515
			c0.049,0.096,0.124,0.227,0.23,0.396c0.105,0.167,0.274,0.335,0.509,0.503c0.234,0.167,0.541,0.311,0.92,0.431
			c0.38,0.119,0.861,0.18,1.442,0.18c0.533,0,1.03-0.053,1.491-0.158c0.46-0.105,0.859-0.278,1.198-0.521
			c0.34-0.242,0.603-0.565,0.788-0.969c0.186-0.404,0.278-0.896,0.278-1.478v-1.526c-0.323,0.435-0.784,0.819-1.381,1.15
			s-1.39,0.497-2.375,0.497c-0.759,0-1.466-0.133-2.12-0.4c-0.654-0.266-1.224-0.646-1.708-1.138
			c-0.485-0.494-0.873-1.095-1.163-1.806c-0.291-0.711-0.461-1.51-0.509-2.399c-0.016-0.242-0.024-0.508-0.024-0.8
			C149.528,10.92,149.537,10.653,149.552,10.411 M158.808,10.338c-0.048-1.146-0.392-2.031-1.03-2.653
			c-0.638-0.622-1.466-0.933-2.482-0.933c-1.067,0-1.906,0.339-2.521,1.018c-0.614,0.678-0.954,1.599-1.018,2.762
			c-0.017,0.452-0.017,0.905,0,1.357c0.063,1.163,0.403,2.083,1.018,2.762c0.614,0.678,1.453,1.018,2.521,1.018
			c1.017,0,1.845-0.315,2.482-0.945c0.639-0.63,0.982-1.51,1.03-2.641c0.016-0.243,0.025-0.533,0.025-0.873
			C158.833,10.871,158.824,10.58,158.808,10.338"/>
		<path clip-path="url(#SVGID_4_)" fill="#FFFFFF" d="M176.037,0.306c0.985,0,1.854,0.154,2.605,0.461
			c0.751,0.306,1.389,0.682,1.914,1.126c0.524,0.445,0.925,0.922,1.2,1.43c0.273,0.509,0.419,0.966,0.435,1.369
			c0.017,0.146-0.032,0.271-0.146,0.376c-0.112,0.105-0.241,0.157-0.388,0.157h-0.993c-0.178,0-0.318-0.032-0.424-0.097
			c-0.104-0.064-0.215-0.21-0.327-0.436c-0.081-0.161-0.214-0.367-0.399-0.617c-0.187-0.251-0.437-0.493-0.751-0.728
			c-0.315-0.233-0.7-0.436-1.152-0.605c-0.452-0.17-0.977-0.255-1.574-0.255c-0.453,0-0.884,0.053-1.297,0.157
			c-0.412,0.106-0.779,0.263-1.102,0.473c-0.324,0.211-0.581,0.473-0.776,0.787c-0.193,0.316-0.29,0.684-0.29,1.103
			c0,0.42,0.093,0.775,0.278,1.067c0.186,0.29,0.484,0.553,0.896,0.787s0.934,0.448,1.563,0.642s1.396,0.412,2.301,0.655
			c0.922,0.242,1.701,0.508,2.339,0.799c0.638,0.29,1.159,0.618,1.563,0.981c0.403,0.364,0.698,0.784,0.885,1.26
			c0.185,0.477,0.278,1.014,0.278,1.612c0,0.727-0.157,1.393-0.474,1.999c-0.313,0.606-0.754,1.126-1.319,1.563
			c-0.565,0.436-1.248,0.775-2.049,1.017c-0.799,0.243-1.691,0.364-2.677,0.364c-0.937,0-1.801-0.138-2.593-0.412
			c-0.791-0.275-1.47-0.63-2.036-1.066c-0.564-0.436-1.013-0.921-1.344-1.454c-0.332-0.533-0.505-1.058-0.521-1.575
			c0-0.146,0.053-0.271,0.158-0.375c0.105-0.105,0.23-0.158,0.375-0.158h0.994c0.16,0,0.302,0.032,0.423,0.097
			c0.122,0.064,0.231,0.21,0.328,0.436c0.097,0.226,0.246,0.472,0.448,0.739s0.472,0.517,0.812,0.751
			c0.339,0.234,0.751,0.433,1.236,0.593c0.483,0.163,1.058,0.243,1.72,0.243c0.565,0,1.104-0.065,1.612-0.194
			c0.508-0.128,0.956-0.315,1.345-0.557c0.387-0.243,0.694-0.533,0.92-0.873c0.227-0.338,0.339-0.718,0.339-1.138
			s-0.129-0.78-0.387-1.079c-0.259-0.298-0.63-0.569-1.115-0.811c-0.484-0.243-1.078-0.464-1.78-0.666
			c-0.703-0.202-1.498-0.416-2.388-0.643c-0.808-0.21-1.494-0.464-2.06-0.763c-0.565-0.298-1.025-0.642-1.381-1.03
			c-0.355-0.387-0.609-0.815-0.764-1.284c-0.153-0.468-0.23-0.978-0.23-1.527c0-0.597,0.122-1.179,0.364-1.745
			c0.241-0.565,0.602-1.065,1.078-1.502c0.477-0.436,1.074-0.787,1.792-1.054C174.224,0.439,175.068,0.306,176.037,0.306"/>
		<path clip-path="url(#SVGID_4_)" fill="#FFFFFF" d="M184.954,9.999c0.063-0.743,0.242-1.437,0.533-2.083
			c0.291-0.647,0.67-1.212,1.138-1.697c0.469-0.484,1.031-0.863,1.686-1.138c0.653-0.275,1.385-0.412,2.192-0.412
			c0.872,0,1.651,0.141,2.338,0.424c0.687,0.282,1.272,0.69,1.757,1.223c0.485,0.533,0.856,1.179,1.115,1.938
			c0.258,0.76,0.387,1.608,0.387,2.545v0.654c0,0.178-0.064,0.332-0.193,0.461c-0.129,0.129-0.283,0.193-0.46,0.193h-8.336v0.146
			c0.032,1.099,0.368,1.942,1.006,2.532c0.638,0.59,1.433,0.884,2.387,0.884c0.888,0,1.555-0.124,1.999-0.375
			c0.444-0.25,0.804-0.529,1.078-0.836c0.129-0.129,0.242-0.218,0.339-0.267c0.097-0.048,0.242-0.072,0.438-0.072h0.727
			c0.177,0,0.338,0.064,0.484,0.193c0.146,0.13,0.202,0.283,0.17,0.461c-0.049,0.29-0.187,0.61-0.412,0.957
			c-0.228,0.348-0.554,0.671-0.981,0.969c-0.429,0.299-0.962,0.55-1.6,0.752c-0.638,0.201-1.385,0.302-2.241,0.302
			c-0.808,0-1.535-0.141-2.181-0.423c-0.647-0.283-1.208-0.671-1.685-1.164c-0.477-0.492-0.859-1.074-1.15-1.744
			c-0.291-0.671-0.47-1.401-0.533-2.194C184.873,11.485,184.873,10.741,184.954,9.999 M187.11,10.071h6.809V9.999
			c0-0.985-0.311-1.772-0.932-2.363c-0.623-0.589-1.451-0.884-2.484-0.884c-0.469,0-0.905,0.077-1.309,0.23
			c-0.404,0.154-0.761,0.373-1.066,0.654c-0.307,0.284-0.55,0.627-0.727,1.031c-0.179,0.404-0.275,0.848-0.291,1.332V10.071z"/>
		<path clip-path="url(#SVGID_4_)" fill="#FFFFFF" d="M210.227,16.856c0,0.178-0.064,0.331-0.194,0.46
			c-0.129,0.13-0.283,0.194-0.46,0.194h-0.896c-0.179,0-0.331-0.064-0.46-0.194c-0.131-0.129-0.194-0.282-0.194-0.46v-6.397
			c0-1.244-0.299-2.173-0.897-2.787c-0.598-0.613-1.43-0.921-2.494-0.921c-1.019,0-1.84,0.308-2.461,0.921
			c-0.621,0.614-0.933,1.543-0.933,2.787v6.397c0,0.178-0.065,0.331-0.194,0.46c-0.129,0.13-0.281,0.194-0.46,0.194h-0.896
			c-0.178,0-0.331-0.064-0.46-0.194c-0.129-0.129-0.194-0.282-0.194-0.46V5.564c0-0.178,0.065-0.331,0.194-0.461
			c0.129-0.128,0.282-0.194,0.46-0.194h0.896c0.179,0,0.331,0.066,0.46,0.194c0.129,0.13,0.194,0.283,0.194,0.461v0.751
			c0.306-0.404,0.764-0.779,1.369-1.126c0.605-0.348,1.401-0.521,2.387-0.521c0.759,0,1.462,0.124,2.108,0.375
			c0.646,0.25,1.199,0.605,1.66,1.066c0.46,0.461,0.819,1.03,1.078,1.709c0.258,0.678,0.388,1.437,0.388,2.277V16.856z"/>
		<path clip-path="url(#SVGID_4_)" fill="#FFFFFF" d="M220.912,14.021c0-0.307-0.084-0.561-0.254-0.763s-0.424-0.376-0.764-0.521
			c-0.338-0.146-0.771-0.283-1.296-0.412s-1.135-0.267-1.829-0.412c-1.308-0.275-2.226-0.731-2.75-1.369
			c-0.525-0.638-0.788-1.386-0.788-2.242c0-0.484,0.097-0.945,0.291-1.381c0.193-0.436,0.485-0.824,0.872-1.163
			c0.388-0.339,0.876-0.606,1.466-0.8c0.59-0.194,1.28-0.29,2.072-0.29c0.791,0,1.481,0.089,2.072,0.266
			c0.589,0.178,1.086,0.404,1.489,0.678c0.404,0.276,0.711,0.57,0.922,0.885c0.21,0.315,0.321,0.618,0.339,0.909
			c0.016,0.178-0.045,0.331-0.183,0.46c-0.137,0.13-0.294,0.194-0.472,0.194h-0.8c-0.098,0-0.214-0.021-0.352-0.061
			c-0.138-0.039-0.263-0.133-0.376-0.278c-0.21-0.275-0.52-0.505-0.933-0.69c-0.412-0.186-0.981-0.28-1.708-0.28
			c-0.743,0-1.345,0.138-1.805,0.413c-0.461,0.274-0.691,0.654-0.691,1.138c0,0.307,0.064,0.554,0.194,0.74
			c0.129,0.185,0.339,0.347,0.63,0.484c0.29,0.138,0.675,0.262,1.15,0.376c0.477,0.112,1.07,0.25,1.781,0.411
			c0.743,0.162,1.365,0.368,1.866,0.618c0.5,0.251,0.904,0.533,1.211,0.849c0.307,0.314,0.525,0.662,0.655,1.041
			c0.129,0.38,0.192,0.78,0.192,1.2c0,0.485-0.116,0.953-0.351,1.405c-0.234,0.453-0.569,0.848-1.006,1.188
			c-0.436,0.339-0.965,0.613-1.587,0.823c-0.621,0.21-1.329,0.316-2.12,0.316c-0.792,0-1.494-0.098-2.108-0.291
			c-0.613-0.194-1.139-0.432-1.575-0.715c-0.436-0.283-0.771-0.589-1.005-0.921c-0.234-0.331-0.359-0.642-0.376-0.933
			c-0.016-0.178,0.04-0.331,0.169-0.46c0.129-0.129,0.291-0.194,0.485-0.194h0.872c0.097,0,0.21,0.012,0.34,0.036
			c0.129,0.024,0.25,0.118,0.363,0.279c0.258,0.356,0.614,0.63,1.065,0.824c0.452,0.193,1.043,0.29,1.77,0.29
			c0.355,0,0.706-0.04,1.054-0.121c0.347-0.08,0.654-0.193,0.921-0.339c0.267-0.145,0.48-0.318,0.643-0.521
			C220.832,14.485,220.912,14.263,220.912,14.021"/>
		<path clip-path="url(#SVGID_4_)" fill="#FFFFFF" d="M225.419,9.999c0.064-0.743,0.242-1.437,0.533-2.083
			c0.291-0.647,0.67-1.212,1.139-1.697c0.469-0.484,1.03-0.863,1.685-1.138s1.385-0.412,2.193-0.412c0.872,0,1.65,0.141,2.338,0.424
			c0.686,0.282,1.271,0.69,1.757,1.223s0.855,1.179,1.115,1.938c0.258,0.76,0.387,1.608,0.387,2.545v0.654
			c0,0.178-0.065,0.332-0.194,0.461c-0.129,0.129-0.282,0.193-0.46,0.193h-8.336v0.146c0.033,1.099,0.368,1.942,1.006,2.532
			c0.639,0.59,1.434,0.884,2.388,0.884c0.888,0,1.555-0.124,1.999-0.375c0.443-0.25,0.804-0.529,1.077-0.836
			c0.13-0.129,0.242-0.218,0.34-0.267c0.097-0.048,0.242-0.072,0.437-0.072h0.728c0.177,0,0.338,0.064,0.483,0.193
			c0.146,0.13,0.202,0.283,0.17,0.461c-0.049,0.29-0.186,0.61-0.412,0.957c-0.227,0.348-0.554,0.671-0.98,0.969
			c-0.429,0.299-0.962,0.55-1.601,0.752c-0.638,0.201-1.385,0.302-2.24,0.302c-0.809,0-1.535-0.141-2.182-0.423
			c-0.646-0.283-1.208-0.671-1.684-1.164c-0.478-0.492-0.86-1.074-1.151-1.744c-0.291-0.671-0.469-1.401-0.533-2.194
			C225.339,11.485,225.339,10.741,225.419,9.999 M227.576,10.071h6.81V9.999c0-0.985-0.312-1.772-0.933-2.363
			c-0.623-0.589-1.451-0.884-2.483-0.884c-0.47,0-0.905,0.077-1.31,0.23c-0.403,0.154-0.76,0.373-1.065,0.654
			c-0.308,0.284-0.551,0.627-0.728,1.031c-0.178,0.404-0.274,0.848-0.291,1.332V10.071z"/>
		<path clip-path="url(#SVGID_4_)" fill="#FFFFFF" d="M28.855,0c-4.915,0-8.922,3.924-9.078,8.802
			c-8.686,3.4-14.842,11.51-15.735,20.806c-0.106,1.1,0.7,2.077,1.799,2.183c0.065,0.006,0.13,0.009,0.194,0.009
			c1.018,0,1.889-0.774,1.988-1.809C8.75,22.43,13.628,15.81,20.565,12.809c1.425,3.164,4.601,5.376,8.29,5.376
			c5.014,0,9.092-4.079,9.092-9.092C37.947,4.079,33.869,0,28.855,0 M28.855,14.685c-3.083,0-5.592-2.508-5.592-5.592
			s2.509-5.592,5.592-5.592s5.592,2.508,5.592,5.592S31.938,14.685,28.855,14.685"/>
		<g clip-path="url(#SVGID_4_)">
			<g>
				<defs>
					<rect id="SVGID_5_" y="34.562" width="40.52" height="22.376"/>
				</defs>
				<clipPath id="SVGID_6_">
					<use xlink:href="#SVGID_5_"  overflow="visible"/>
				</clipPath>
				<path clip-path="url(#SVGID_6_)" fill="#FFFFFF" d="M40.333,51.972c-0.467-1.001-1.658-1.435-2.658-0.969
					c-6.885,3.21-15.065,2.365-21.17-2.09c2.004-2.833,2.299-6.691,0.427-9.871c-1.627-2.764-4.632-4.48-7.842-4.48
					c-1.615,0-3.208,0.435-4.606,1.258c-2.093,1.231-3.581,3.206-4.189,5.557c-0.609,2.352-0.266,4.799,0.966,6.892
					c1.627,2.764,4.633,4.48,7.843,4.48c1.52,0,3.017-0.39,4.354-1.121c4.454,3.495,9.927,5.311,15.436,5.311
					c3.566,0,7.146-0.758,10.471-2.309C40.366,54.162,40.798,52.973,40.333,51.972 M9.104,49.248c-1.976,0-3.825-1.056-4.826-2.756
					c-0.758-1.287-0.969-2.793-0.595-4.239c0.375-1.445,1.29-2.66,2.577-3.418c0.86-0.506,1.839-0.773,2.83-0.773
					c1.976,0,3.825,1.056,4.826,2.756c1.564,2.657,0.675,6.092-1.982,7.657C11.073,48.98,10.094,49.248,9.104,49.248"/>
			</g>
		</g>
		<g clip-path="url(#SVGID_4_)">
			<g>
				<defs>
					<rect id="SVGID_7_" x="39.55" y="11.443" width="18.185" height="41.249"/>
				</defs>
				<clipPath id="SVGID_8_">
					<use xlink:href="#SVGID_7_"  overflow="visible"/>
				</clipPath>
				<path clip-path="url(#SVGID_8_)" fill="#FFFFFF" d="M53.48,35.91c1.451-9.214-2.441-18.623-10.014-24.088
					c-0.896-0.648-2.145-0.444-2.792,0.452c-0.646,0.895-0.444,2.145,0.451,2.792c6.159,4.444,9.41,11.995,8.5,19.497
					c-0.323-0.035-0.647-0.057-0.972-0.057c-3.221,0-6.231,1.725-7.855,4.502c-1.227,2.097-1.563,4.545-0.948,6.894
					c0.615,2.351,2.109,4.319,4.205,5.547c1.393,0.813,2.978,1.244,4.584,1.244c3.221,0,6.231-1.725,7.855-4.502
					C58.977,43.947,57.613,38.508,53.48,35.91 M53.474,46.423c-0.999,1.709-2.852,2.77-4.834,2.77c-0.986,0-1.96-0.265-2.817-0.767
					c-1.289-0.754-2.208-1.965-2.586-3.41c-0.378-1.444-0.171-2.951,0.583-4.24c0.999-1.708,2.852-2.77,4.834-2.77
					c0.985,0,1.959,0.265,2.817,0.767C54.131,40.329,55.03,43.762,53.474,46.423"/>
			</g>
		</g>
	</g>
</g>
</svg>
