<svg id="Layer_1" data-name="Layer 1" xmlns="http://www.w3.org/2000/svg" viewBox="0 0 200 200"><defs><style>.cls-1,.cls-2,.cls-3{fill:#4b545d;}.cls-1,.cls-3{fill-rule:evenodd;}.cls-1{opacity:0.5;}.cls-2{opacity:0.6;}</style></defs><title>PARTNERLOGO</title><path class="cls-1" d="M80.55,86.68l.28.48,3.23.55h.77l-1.47-.47-.1-1.4-1.42-.07.21.38-.91.22-.53.12-.06.19m-10.46.13.42-.32,10.32.66-.25-.57c.11-.51-9.16-2.49-9.16-3.12v-.77h0V82l-1.22.13-5.74,3.42-1.16.6L69,84.58l1.2-1-.44,3,.05.28v.12Zm-6.78.46v.33l0-.09.08-.23Zm-8.54-1.1.13-.38,1.47,0h.38c1.71,0,3.25.71,5,.78L63,85.71l.31.45,1.16-.6-1.54-.19-6.93,0h-.77l-6.57-.84v.9Zm.5,1.83.06-.06-.56-.14V88ZM43.67,84.62v.77l5,.06v-.9Zm7.66,6.08c-.7,1.38-.77,1.07-.77,2.7v1.16l0,1.48,1.52.08h.39c.73,0,.83-.19,1.47-.45l2.12-5.33-.52-.4,0,.71Zm35.58-6.06h0Zm10.55,1.2,3.27.46,0-.29,1.75-.29,11.55.05c.92,0,1.5.33,2.59.45v-.86l-14.34,2.37L96.78,88m0,0,.68-2.18M96.78,88l.68-2.18m0,0-8-.45-6.19.45.1,1.4,5.7-1.46H90.6l-.46.86L96.78,88m26.16-1.82,1.13-.06h12.31l5.69.35-4.78-1.12h-.14l-20.49,0v.86ZM75.54,83.88a2.73,2.73,0,0,0,.05.51,4.61,4.61,0,0,0,.08-.64.64.64,0,0,0-.1-.41Z"/><path class="cls-2" d="M173.55,164.37v-7.12h.94v3.53l3.52-3.53h1.27l-3,2.88,3.11,4.24h-1.24l-2.53-3.6-1.16,1.14v2.47Zm-6.17-4h2a3,3,0,0,0,1-.13,1.07,1.07,0,0,0,.55-.43,1.16,1.16,0,0,0,.19-.64,1.06,1.06,0,0,0-.37-.83,1.7,1.7,0,0,0-1.16-.32h-2.25Zm-.94,4v-7.12h3.15a4.18,4.18,0,0,1,1.44.19,1.59,1.59,0,0,1,.79.68,2,2,0,0,1,.29,1.07,1.79,1.79,0,0,1-.49,1.28,2.47,2.47,0,0,1-1.51.66,2.36,2.36,0,0,1,.57.35,5,5,0,0,1,.78.95l1.23,1.94h-1.18l-.94-1.48c-.27-.43-.5-.75-.68-1a2.07,2.07,0,0,0-.48-.48,1.41,1.41,0,0,0-.43-.19,3,3,0,0,0-.52,0h-1.09v3.16Zm-7-3.45a2.86,2.86,0,0,0,.69,2,2.4,2.4,0,0,0,3.48,0,3,3,0,0,0,.69-2.12,3.66,3.66,0,0,0-.29-1.52,2.26,2.26,0,0,0-.86-1,2.33,2.33,0,0,0-1.27-.36,2.39,2.39,0,0,0-1.72.69A3.08,3.08,0,0,0,159.39,160.91Zm-1,0a3.87,3.87,0,0,1,.95-2.78,3.22,3.22,0,0,1,2.45-1,3.4,3.4,0,0,1,1.77.47,3.08,3.08,0,0,1,1.2,1.31,4.27,4.27,0,0,1,.41,1.91,4.2,4.2,0,0,1-.43,1.94,3,3,0,0,1-1.23,1.29,3.52,3.52,0,0,1-1.72.44A3.33,3.33,0,0,1,160,164a3.12,3.12,0,0,1-1.2-1.33A4,4,0,0,1,158.43,160.9Zm-7.83,3.47-1.88-7.12h1l1.08,4.67q.17.73.3,1.46c.18-.76.29-1.2.32-1.32l1.35-4.81h1.13l1,3.6a19.46,19.46,0,0,1,.55,2.52c.09-.45.21-1,.35-1.55l1.11-4.58h.95l-1.95,7.12H155l-1.5-5.43q-.19-.68-.22-.84-.11.49-.21.84l-1.51,5.43Zm-5.49,0v-6.28h-2.34v-.84h5.63v.84H146v6.28Zm-8.4,0v-7.12h5.13v.84h-4.19v2.18h3.93v.84h-3.93v2.42H142v.84Zm-7.19,0v-7.12h1l3.73,5.59v-5.59h.9v7.12h-1l-3.73-5.6v5.6Zm-9.68-2.29.89-.08a2,2,0,0,0,.29.88,1.6,1.6,0,0,0,.71.55,2.7,2.7,0,0,0,1.09.21,2.61,2.61,0,0,0,.95-.16,1.32,1.32,0,0,0,.61-.44,1,1,0,0,0,.2-.61.92.92,0,0,0-.19-.59,1.42,1.42,0,0,0-.64-.42,12.44,12.44,0,0,0-1.26-.35,6.48,6.48,0,0,1-1.37-.44,1.93,1.93,0,0,1-.76-.66,1.63,1.63,0,0,1-.25-.89,1.81,1.81,0,0,1,.3-1,1.89,1.89,0,0,1,.89-.71,3.4,3.4,0,0,1,1.3-.24,3.54,3.54,0,0,1,1.39.26,2,2,0,0,1,.93.75,2.18,2.18,0,0,1,.35,1.12l-.9.07a1.46,1.46,0,0,0-.49-1,1.9,1.9,0,0,0-1.24-.34,2,2,0,0,0-1.24.31.94.94,0,0,0-.39.75.81.81,0,0,0,.28.63,3.71,3.71,0,0,0,1.42.51,9.47,9.47,0,0,1,1.57.45,2.17,2.17,0,0,1,.92.73,1.78,1.78,0,0,1,.29,1,1.94,1.94,0,0,1-.32,1.07,2.15,2.15,0,0,1-.93.78,3.24,3.24,0,0,1-1.37.28,4,4,0,0,1-1.61-.28,2.26,2.26,0,0,1-1-.85A2.4,2.4,0,0,1,119.84,162.08Zm-5.89-1.69h2a3,3,0,0,0,1-.13,1.07,1.07,0,0,0,.55-.43,1.16,1.16,0,0,0,.19-.64,1.06,1.06,0,0,0-.37-.83,1.7,1.7,0,0,0-1.16-.32h-2.25Zm-.94,4v-7.12h3.15a4.18,4.18,0,0,1,1.44.19,1.59,1.59,0,0,1,.79.68,2,2,0,0,1,.29,1.07,1.79,1.79,0,0,1-.49,1.28,2.47,2.47,0,0,1-1.51.66,2.37,2.37,0,0,1,.57.35,5,5,0,0,1,.78.95l1.23,1.94h-1.18l-.94-1.48c-.27-.43-.5-.75-.68-1a2.07,2.07,0,0,0-.48-.48,1.41,1.41,0,0,0-.43-.19,3,3,0,0,0-.52,0h-1.09v3.16Zm-7-3.45a2.86,2.86,0,0,0,.69,2,2.4,2.4,0,0,0,3.48,0,3,3,0,0,0,.69-2.12,3.67,3.67,0,0,0-.29-1.52,2.26,2.26,0,0,0-.86-1,2.33,2.33,0,0,0-1.27-.36,2.4,2.4,0,0,0-1.72.69A3.08,3.08,0,0,0,106,160.91Zm-1,0a3.87,3.87,0,0,1,.95-2.78,3.22,3.22,0,0,1,2.45-1,3.4,3.4,0,0,1,1.77.47,3.08,3.08,0,0,1,1.2,1.31,4.27,4.27,0,0,1,.41,1.91,4.2,4.2,0,0,1-.43,1.94,3,3,0,0,1-1.23,1.29,3.52,3.52,0,0,1-1.72.44,3.33,3.33,0,0,1-1.79-.49,3.11,3.11,0,0,1-1.2-1.33A4,4,0,0,1,105,160.9Zm-3.79,3.47v-6.28H98.87v-.84h5.63v.84h-2.35v6.28Zm-6.42-2.93H97.2l-.74-2c-.22-.6-.39-1.09-.5-1.48a9.06,9.06,0,0,1-.38,1.36Zm-2,2.93,2.73-7.12h1l2.91,7.12H98.32l-.83-2.16h-3l-.78,2.16Zm-1.32-2.5.94.24a3.19,3.19,0,0,1-1.06,1.77,2.92,2.92,0,0,1-1.88.61,3.37,3.37,0,0,1-1.87-.47,2.93,2.93,0,0,1-1.09-1.36,4.88,4.88,0,0,1-.37-1.91,4.2,4.2,0,0,1,.42-1.94,2.91,2.91,0,0,1,1.21-1.26,3.5,3.5,0,0,1,1.72-.43,2.9,2.9,0,0,1,1.79.54,2.82,2.82,0,0,1,1,1.53l-.92.22a2.2,2.2,0,0,0-.72-1.13,1.9,1.9,0,0,0-1.18-.35,2.29,2.29,0,0,0-1.37.39,2.07,2.07,0,0,0-.77,1.06,4.25,4.25,0,0,0-.22,1.37,4.38,4.38,0,0,0,.26,1.59,2,2,0,0,0,.82,1,2.3,2.3,0,0,0,1.21.34,2,2,0,0,0,1.34-.46A2.34,2.34,0,0,0,91.43,161.87Zm-7.57-4.62h.94v4.12a4.87,4.87,0,0,1-.24,1.7,2.07,2.07,0,0,1-.87,1,3.07,3.07,0,0,1-1.66.4,3.39,3.39,0,0,1-1.63-.34,2,2,0,0,1-.91-1,4.74,4.74,0,0,1-.27-1.78v-4.12h.94v4.11a4,4,0,0,0,.17,1.37,1.31,1.31,0,0,0,.59.68,2,2,0,0,0,1,.24,2,2,0,0,0,1.48-.47,2.72,2.72,0,0,0,.44-1.81ZM73,163.53H74.5a3.66,3.66,0,0,0,1.1-.13,1.57,1.57,0,0,0,.64-.37,2.23,2.23,0,0,0,.52-.9,4.43,4.43,0,0,0,.19-1.37,3.32,3.32,0,0,0-.37-1.72,1.84,1.84,0,0,0-.89-.8,3.64,3.64,0,0,0-1.21-.15H73Zm-.94.84v-7.12h2.44a5.92,5.92,0,0,1,1.26.1,2.4,2.4,0,0,1,1,.51,2.9,2.9,0,0,1,.84,1.22,4.77,4.77,0,0,1,.28,1.69,4.93,4.93,0,0,1-.19,1.44,3.45,3.45,0,0,1-.48,1,2.54,2.54,0,0,1-.65.64,2.61,2.61,0,0,1-.85.36,4.83,4.83,0,0,1-1.14.12Zm-6.59,0v-7.12h5.13v.84H66.39v2.18h3.93v.84H66.39v2.42h4.36v.84Zm-9-4h2a3,3,0,0,0,1-.13,1.07,1.07,0,0,0,.55-.43,1.16,1.16,0,0,0,.19-.64,1.06,1.06,0,0,0-.37-.83,1.7,1.7,0,0,0-1.16-.32H56.47Zm-.94,4v-7.12h3.15a4.18,4.18,0,0,1,1.44.19,1.59,1.59,0,0,1,.79.68,2,2,0,0,1,.29,1.07,1.79,1.79,0,0,1-.49,1.28,2.47,2.47,0,0,1-1.51.66,2.37,2.37,0,0,1,.57.35,4.93,4.93,0,0,1,.78.95l1.23,1.94H60.6l-.94-1.48c-.27-.43-.5-.75-.68-1a2.08,2.08,0,0,0-.48-.48,1.42,1.42,0,0,0-.43-.19,3,3,0,0,0-.52,0H56.47v3.16Zm-6.61,0v-7.12h5.13v.84H49.86v2.18h3.93v.84H49.86v2.42h4.36v.84Zm-6.61,0v-7.12h5.13v.84H43.25v2.18h3.93v.84H43.25v2.42H47.6v.84Zm-5.69-3.74h1.84a1.94,1.94,0,0,0,1.29-.34,1.22,1.22,0,0,0,.38-1,1.29,1.29,0,0,0-.22-.77,1.05,1.05,0,0,0-.59-.42,4.05,4.05,0,0,0-.88-.06H36.61Zm-.94,3.74v-7.12h2.68a6.53,6.53,0,0,1,1.08.07,2.13,2.13,0,0,1,.88.33,1.75,1.75,0,0,1,.57.69,2.33,2.33,0,0,1-.36,2.51,2.77,2.77,0,0,1-2.08.63H36.61v2.89Z"/><path class="cls-2" d="M178.66,168.29v-.67h.62v.67Zm-1.22,0v-.67h.62v.67Zm-.86,5.13v-4.83h3.48v.57h-2.84v1.48h2.66v.57h-2.66v1.64h3v.57Zm-4.22-2.7h1.37a2,2,0,0,0,.68-.09.73.73,0,0,0,.37-.29.79.79,0,0,0,.13-.43.72.72,0,0,0-.25-.56,1.16,1.16,0,0,0-.78-.22h-1.52Zm-.64,2.7v-4.83h2.13a2.84,2.84,0,0,1,1,.13,1.07,1.07,0,0,1,.54.46,1.38,1.38,0,0,1,.2.73,1.21,1.21,0,0,1-.33.87,1.68,1.68,0,0,1-1,.45,1.61,1.61,0,0,1,.38.24,3.34,3.34,0,0,1,.53.64l.84,1.31h-.8l-.64-1c-.19-.29-.34-.51-.46-.66a1.41,1.41,0,0,0-.32-.32,1,1,0,0,0-.29-.13,2,2,0,0,0-.36,0h-.74v2.14Zm-3.64-2h1.63l-.5-1.34c-.15-.41-.27-.74-.34-1a6.12,6.12,0,0,1-.26.92Zm-1.39,2,1.85-4.83h.69l2,4.83h-.73l-.56-1.46h-2l-.53,1.46Zm-1.85,0v-4.26h-1.59v-.57h3.82v.57h-1.59v4.26Zm-4.35-2h1.63l-.5-1.34q-.23-.61-.34-1a6.14,6.14,0,0,1-.26.92Zm-1.39,2,1.85-4.83h.69l2,4.83h-.73l-.56-1.46h-2l-.53,1.46Zm-4.31,0v-4.83h.64v2h2.5v-2h.64v4.83h-.64v-2.28h-2.5v2.28Zm-4.72-1.55.6-.05a1.33,1.33,0,0,0,.2.59,1.09,1.09,0,0,0,.48.38,1.83,1.83,0,0,0,.74.14,1.78,1.78,0,0,0,.64-.11.9.9,0,0,0,.42-.3.7.7,0,0,0,.14-.41.63.63,0,0,0-.13-.4,1,1,0,0,0-.43-.28,8.44,8.44,0,0,0-.86-.24,4.38,4.38,0,0,1-.93-.3,1.31,1.31,0,0,1-.51-.45,1.11,1.11,0,0,1-.17-.6,1.23,1.23,0,0,1,.21-.68,1.28,1.28,0,0,1,.6-.48,2.3,2.3,0,0,1,.88-.16,2.4,2.4,0,0,1,.94.17,1.36,1.36,0,0,1,.63.51,1.47,1.47,0,0,1,.24.76l-.61,0a1,1,0,0,0-.33-.69,1.29,1.29,0,0,0-.84-.23,1.35,1.35,0,0,0-.84.21.64.64,0,0,0-.26.51.55.55,0,0,0,.19.43,2.52,2.52,0,0,0,1,.34,6.41,6.41,0,0,1,1.07.31,1.47,1.47,0,0,1,.62.49,1.2,1.2,0,0,1,.2.69,1.31,1.31,0,0,1-.22.73,1.46,1.46,0,0,1-.63.53,2.2,2.2,0,0,1-.93.19,2.74,2.74,0,0,1-1.09-.19,1.53,1.53,0,0,1-.69-.57A1.63,1.63,0,0,1,150.06,171.87Zm-4.55-.79a1.94,1.94,0,0,0,.47,1.38,1.63,1.63,0,0,0,2.36,0,2.06,2.06,0,0,0,.47-1.44,2.48,2.48,0,0,0-.2-1,1.54,1.54,0,0,0-.58-.68,1.58,1.58,0,0,0-.86-.24,1.62,1.62,0,0,0-1.16.47A2.09,2.09,0,0,0,145.51,171.08Zm-.66,0a2.63,2.63,0,0,1,.64-1.88,2.19,2.19,0,0,1,1.66-.68,2.3,2.3,0,0,1,1.2.32,2.09,2.09,0,0,1,.82.89,2.9,2.9,0,0,1,.28,1.3,2.85,2.85,0,0,1-.29,1.31,2,2,0,0,1-.84.88,2.39,2.39,0,0,1-1.17.3,2.26,2.26,0,0,1-1.21-.33,2.11,2.11,0,0,1-.81-.9A2.74,2.74,0,0,1,144.85,171.07Zm-5.43,2.35v-4.83h1l1.14,3.42q.16.48.23.72.08-.26.26-.78l1.15-3.36H144v4.83h-.61v-4l-1.4,4h-.57L140,169.31v4.11Zm-4.49,0v-4.83h.64V171l2.39-2.4h.86l-2,2,2.11,2.87h-.84L136.36,171l-.79.77v1.67Zm-4.81,0v-4.83h.64v2h2.5v-2h.64v4.83h-.64v-2.28h-2.5v2.28Zm-4.72-1.55.6-.05a1.33,1.33,0,0,0,.2.59,1.09,1.09,0,0,0,.48.38,1.83,1.83,0,0,0,.74.14,1.77,1.77,0,0,0,.64-.11.9.9,0,0,0,.42-.3.7.7,0,0,0,.14-.41.63.63,0,0,0-.13-.4,1,1,0,0,0-.43-.28,8.45,8.45,0,0,0-.86-.24,4.38,4.38,0,0,1-.93-.3,1.31,1.31,0,0,1-.51-.45,1.11,1.11,0,0,1-.17-.6,1.23,1.23,0,0,1,.21-.68,1.28,1.28,0,0,1,.6-.48,2.3,2.3,0,0,1,.88-.16,2.4,2.4,0,0,1,.94.17,1.36,1.36,0,0,1,.63.51,1.48,1.48,0,0,1,.24.76l-.61,0a1,1,0,0,0-.33-.69,1.29,1.29,0,0,0-.84-.23,1.35,1.35,0,0,0-.84.21.64.64,0,0,0-.26.51.55.55,0,0,0,.19.43,2.51,2.51,0,0,0,1,.34,6.43,6.43,0,0,1,1.07.31,1.47,1.47,0,0,1,.62.49,1.21,1.21,0,0,1,.2.69,1.31,1.31,0,0,1-.22.73,1.46,1.46,0,0,1-.63.53,2.2,2.2,0,0,1-.93.19,2.74,2.74,0,0,1-1.09-.19,1.53,1.53,0,0,1-.69-.57A1.63,1.63,0,0,1,125.4,171.87Zm-3.41-.43h1.63l-.5-1.34q-.23-.61-.34-1a6.16,6.16,0,0,1-.26.92Zm-1.39,2,1.85-4.83h.69l2,4.83h-.73l-.56-1.46h-2l-.53,1.46Zm-3.35-.57h1.2a2.86,2.86,0,0,0,.43,0,1,1,0,0,0,.37-.13.7.7,0,0,0,.24-.27.85.85,0,0,0,.1-.41.81.81,0,0,0-.14-.47.73.73,0,0,0-.38-.28,2.4,2.4,0,0,0-.7-.08h-1.11Zm0-2.23h1a2.34,2.34,0,0,0,.61-.06.67.67,0,0,0,.37-.24.7.7,0,0,0,.12-.42.78.78,0,0,0-.11-.42.59.59,0,0,0-.33-.25,2.73,2.73,0,0,0-.73-.07h-1Zm-.64,2.8v-4.83h1.81a2.24,2.24,0,0,1,.88.15,1.13,1.13,0,0,1,.52.45,1.19,1.19,0,0,1,.19.64,1.1,1.1,0,0,1-.17.58,1.2,1.2,0,0,1-.51.44,1.26,1.26,0,0,1,.67.44,1.18,1.18,0,0,1,.24.73,1.42,1.42,0,0,1-.14.63,1.22,1.22,0,0,1-.35.45,1.47,1.47,0,0,1-.53.24,3.19,3.19,0,0,1-.78.08Zm-6.31,0v-4.83h3.48v.57h-2.84v1.48h2.66v.57h-2.66v1.64h3v.57Zm-3.12,0-1.87-4.83H106l1.25,3.51c.1.28.19.55.25.79q.11-.39.26-.79l1.3-3.51h.65l-1.89,4.83Zm-3.76-5.13v-.67H104v.67Zm-1.22,0v-.67h.62v.67Zm-.86,5.13v-4.83h3.48v.57H102v1.48h2.66v.57H102v1.64h3v.57Zm-4.22-2.7h1.37a2,2,0,0,0,.68-.09.73.73,0,0,0,.37-.29.79.79,0,0,0,.13-.43.72.72,0,0,0-.25-.56,1.16,1.16,0,0,0-.78-.22H97.11Zm-.64,2.7v-4.83h2.13a2.84,2.84,0,0,1,1,.13,1.07,1.07,0,0,1,.54.46,1.38,1.38,0,0,1,.2.73,1.21,1.21,0,0,1-.33.87,1.68,1.68,0,0,1-1,.45,1.61,1.61,0,0,1,.38.24,3.33,3.33,0,0,1,.53.64l.84,1.31h-.8l-.64-1c-.19-.29-.34-.51-.46-.66a1.41,1.41,0,0,0-.32-.32,1,1,0,0,0-.29-.13,2,2,0,0,0-.36,0h-.74v2.14Zm-4.78-2.34a1.94,1.94,0,0,0,.47,1.38,1.63,1.63,0,0,0,2.36,0A2.06,2.06,0,0,0,95,171a2.48,2.48,0,0,0-.2-1,1.53,1.53,0,0,0-.58-.68,1.58,1.58,0,0,0-.86-.24,1.62,1.62,0,0,0-1.16.47A2.09,2.09,0,0,0,91.69,171.08Zm-.66,0a2.63,2.63,0,0,1,.64-1.88,2.19,2.19,0,0,1,1.66-.68,2.3,2.3,0,0,1,1.2.32,2.09,2.09,0,0,1,.82.89,2.9,2.9,0,0,1,.28,1.3,2.85,2.85,0,0,1-.29,1.31,2,2,0,0,1-.84.88,2.39,2.39,0,0,1-1.17.3,2.26,2.26,0,0,1-1.21-.33,2.11,2.11,0,0,1-.81-.9A2.74,2.74,0,0,1,91,171.07Zm-2.57,2.35v-4.26H86.88v-.57H90.7v.57H89.11v4.26Zm-4.35-2h1.63l-.5-1.34c-.15-.41-.27-.74-.34-1a6.17,6.17,0,0,1-.26.92Zm-1.39,2,1.85-4.83h.69l2,4.83h-.73L85.95,172h-2l-.53,1.46Zm-4,0v-4.83h.64V171l2.39-2.4h.86l-2,2,2.11,2.87h-.84L80.17,171l-.79.77v1.67Zm-1.67-4.83h.64v2.79a3.3,3.3,0,0,1-.16,1.16,1.41,1.41,0,0,1-.59.7,2.08,2.08,0,0,1-1.12.27,2.3,2.3,0,0,1-1.11-.23,1.32,1.32,0,0,1-.61-.68,3.22,3.22,0,0,1-.18-1.21v-2.79h.64v2.79a2.72,2.72,0,0,0,.12.93.89.89,0,0,0,.4.46,1.38,1.38,0,0,0,.69.16,1.33,1.33,0,0,0,1-.32,1.85,1.85,0,0,0,.3-1.23Zm-7.38,4.26h1a2.49,2.49,0,0,0,.75-.09,1.07,1.07,0,0,0,.43-.25,1.52,1.52,0,0,0,.35-.61,3,3,0,0,0,.13-.93,2.25,2.25,0,0,0-.25-1.16,1.25,1.25,0,0,0-.6-.55,2.48,2.48,0,0,0-.82-.1h-1Zm-.64.57v-4.83h1.66a4,4,0,0,1,.86.07,1.62,1.62,0,0,1,.71.35,2,2,0,0,1,.57.83A3.23,3.23,0,0,1,73,171a3.36,3.36,0,0,1-.13,1,2.35,2.35,0,0,1-.33.7,1.72,1.72,0,0,1-.44.44,1.77,1.77,0,0,1-.57.24,3.27,3.27,0,0,1-.77.08Zm-4.47,0v-4.83h3.48v.57H65.22v1.48h2.66v.57H65.22v1.64h3v.57Zm-3.64,0v-4.83h.64v4.83Zm-3.74,0v-4.83h.64v4.83Zm-3,0v-4.26H52.63v-.57h3.82v.57H54.85v4.26Zm-5.7,0v-4.83H52v.57H49.15v1.48h2.66v.57H49.15v1.64h3v.57ZM44.82,172l.58-.08a1.23,1.23,0,0,0,.21.76.65.65,0,0,0,.51.2.75.75,0,0,0,.41-.11.56.56,0,0,0,.24-.3,2,2,0,0,0,.07-.61v-3.33h.64v3.29a2.41,2.41,0,0,1-.15.94,1.05,1.05,0,0,1-.46.51,1.53,1.53,0,0,1-.74.17,1.25,1.25,0,0,1-1-.37A1.51,1.51,0,0,1,44.82,172Zm-3.89-1.33H42.3a2,2,0,0,0,.68-.09.73.73,0,0,0,.37-.29.79.79,0,0,0,.13-.43.72.72,0,0,0-.25-.56,1.16,1.16,0,0,0-.78-.22H40.93Zm-.64,2.7v-4.83h2.13a2.84,2.84,0,0,1,1,.13,1.08,1.08,0,0,1,.54.46,1.38,1.38,0,0,1,.2.73,1.21,1.21,0,0,1-.33.87,1.68,1.68,0,0,1-1,.45,1.61,1.61,0,0,1,.38.24,3.34,3.34,0,0,1,.53.64l.84,1.31h-.8l-.64-1c-.19-.29-.34-.51-.46-.66a1.41,1.41,0,0,0-.32-.32,1,1,0,0,0-.29-.13,2,2,0,0,0-.36,0h-.74v2.14Zm-4.22-2.7h1.37a2,2,0,0,0,.68-.09.73.73,0,0,0,.37-.29.79.79,0,0,0,.13-.43.72.72,0,0,0-.25-.56,1.16,1.16,0,0,0-.78-.22H36.07Zm-.64,2.7v-4.83h2.13a2.84,2.84,0,0,1,1,.13,1.08,1.08,0,0,1,.54.46,1.38,1.38,0,0,1,.2.73,1.21,1.21,0,0,1-.33.87,1.68,1.68,0,0,1-1,.45,1.61,1.61,0,0,1,.38.24,3.34,3.34,0,0,1,.53.64l.84,1.31h-.8l-.64-1c-.19-.29-.34-.51-.46-.66a1.41,1.41,0,0,0-.32-.32,1,1,0,0,0-.29-.13,2,2,0,0,0-.36,0h-.74v2.14Z"/><path class="cls-3" d="M44.79,110.89c-6.89,0-12.48,6.23-12.48,13.91s5.59,13.91,12.48,13.91,12.48-6.23,12.48-13.91-5.59-13.91-12.48-13.91m48.39,40.26c9.43-.33,17.1-3.3,21.51-12,0-.6,0-1.16,0-1.72v-.85c-2.24-1.69-8.27-5.44-12.48-.61a11.74,11.74,0,0,1-15.51,2.13,12,12,0,0,1-5.79-9.76h29.95a4.37,4.37,0,0,0,1.87-.4,5.18,5.18,0,0,0,1.64-1.26h0a6.67,6.67,0,0,0,.53-.68,46.31,46.31,0,0,1,.74-5.46c-1.66-11-8.76-21.83-22.43-22.29C57.31,98.3,60.24,151.16,93.19,151.16ZM104,120.26H80.45v0h-.23c1.21-6.25,6.17-10.94,12.11-10.94a11.16,11.16,0,0,1,4,.76,10.15,10.15,0,0,1,3.92,2.49,14.29,14.29,0,0,1,4.15,7.69H104Zm31.11-19.75a22.39,22.39,0,0,0-7.43,3.48h0c-13.87,8.89-12.13,23.81-12.13,37.67v10.48s8.07.61,11-3.74a6.34,6.34,0,0,0,1-3.4c.44-12.31.18-5,.37-18.66a17,17,0,0,1,1-4.47,14.9,14.9,0,0,1,6.83-8.29,10.29,10.29,0,0,1,10.6.74,15.49,15.49,0,0,1,5.59,7.55,17,17,0,0,1,1,4.47c.19,13.62-.07,6.35.37,18.66a6.33,6.33,0,0,0,1,3.4c2.93,4.35,11,3.74,11,3.74V141.66c0-13.86,1.74-28.79-12.13-37.67h0a23,23,0,0,0-3.36-2A21.69,21.69,0,0,0,135.09,100.52ZM44.79,98.3A21.91,21.91,0,0,0,32,102.45h0c-13.87,8.88-12.13,23.81-12.13,37.67v24.14s11.44.87,12-7.13c.12-1.55.21-2.33.26-9.84a21.88,21.88,0,0,0,12.58,4c10.72,0,19.79-7.93,22.74-18.81a30.1,30.1,0,0,1-.24-16.24C64.1,105.82,55.23,98.3,44.79,98.3Z"/><path class="cls-1" d="M93.53,48.06l-.2-.2ZM87,47.66l.2-.4Zm24.66-7.58-.6-.6ZM88,55.84l-.2-.4Zm7.76-.8-.2-.2Zm4,18.36-.2-.4ZM87,48.06l-.2.2ZM98.9,70.61l-.4-1.2ZM94.13,49.05l-.2-.2Zm3.78,18-.2-.4Zm15.32-20.36-.2-.2v.2ZM95.92,55.44l-.2-.2v.2Zm9.95,5.19h.2l-.4-.2v.2Zm7-15.57h.2l-.2-.4ZM69.56,29.33l.22-.47h-.22ZM93.33,47.66l-.12-.27-.27-.13.13.27Zm.4,1.2h.2l-.4-.6Zm-5.57,7.78v-.42L88,56v.42Zm16.31.2-.4-.4v-.2l-.27.26Zm8.75-16.56-.38-.24-.42,0,.4.2ZM99.1,71.61v-.42L98.9,71l0,.44ZM95.92,56v-.6h-.2v.42ZM65,32.76l.73-.33-.2-.2ZM98.31,68.41l0-.44-.23-.16,0,.44Zm.2.8,0-.44-.23-.16,0,.44Zm14.32-24.75,0-.44-.23-.16,0,.44Zm-32.22,21,.83.27v-.27Zm25.46,5.13,0-.42-.24-.38,0,.42ZM87.57,53.44v-.6l-.4-.4Zm4.58-7.38h.2l-.2-.6h-.2Zm12.73,9.38v0Zm-.6,0,.37-.27-.17-.33-.23.16Zm1.59,13.77v-.8l-.2-.2,0,.62Zm1.22-26,.55-.56-.59,0ZM95.52,60.43l.06.42.34-.22.2-.4Zm9.95-4.59-.2-.6h-.4v.2ZM87.77,55V54l-.2-.4v1ZM113,46.26v-1.2h-.2v.8ZM94.33,76.59h-.8l.44.66ZM108.65,54l-.2.2v.2h.8l-.4-.6ZM59.94,69.22l.55,0v-1ZM106.86,53l.57.18.06-.62-.23-.16,0,.38-.31-.18Zm.2-13,.2-.2.2-.2v-.2h-.6l-.18.56Zm8.35,16.76v-.2l-.36,0,0-1.38-.2.4V56l0,.78Zm-7.76-8-.2-.2-.59,0,.09.81ZM92.14,45.06l-.2.4h.2v-.4l.63-.05-.23-.95h-.2v.2l0,.42Zm-4.58.8-.2.6h.2l.2-.2.2-.2v-.6h-.6Zm19.89,8.38.2.2h.4l.21-.75-.77.19ZM109,57.67h-.93C108.28,58.55,108.85,58.51,109,57.67Zm-1.36-9.61-.2.6.2.2.2-.4.2-.2.2-.2,0-.38-.56,0Zm0,4,0,.42.67.85.74-1.46-.92,1Zm.8-5.79.24,1,.33.32-.17.33h.4v-.2l0-.58-.33.17.13-.31-.3-.54Zm2.39,12,.8,0,.82-.24C112,57.74,111.15,57.6,110.84,58.23ZM77,45.46l-.2.4-.2.2H76l-.18.17.58,0,.75,0,.15-1.36Zm30.43.2v1.4l-.2.18,0,.55-.75.47-.2.2h.2v-.2l.6-.2.36,0,0-1h.2v-1l-.2-.4v-.2h-.2ZM96.32,53.44l.34,0,.26-.35v-.4l-.31-.08L96.12,52h-.2c.4.87,0,.42.63,1Zm-.4-1.4h.2l.48.52.31.08h.2v-.2L96.54,52l-.42,0v-.42l-.41-.58h-.2Zm-6.17-7h.4v-.4l-.38-.22h-.63l-.58.32.8.09ZM67.08,73.6l.18-.19.16-.87-.1-.7,1-.3-.46-.14-.78.45V73.6Zm6-10.78.62.86.6-.66C73.87,62.71,73.39,62.43,73,62.82ZM66.28,71l.6.4h.4l-.71-.47.71-.6-.4-.32h-.6l.58.26-.54.18Zm47.54-22.75v-.4l-.25.22Zm-1.59-.2-.2.2-.2.2.2-.2.2-.2.29.18.34-.44.26.39.5-.53-.4-.6-.25.56-.62.13ZM92.74,43.27l-.2.2-.2.2v.4h.2l.45-.58,1.33-.05v-.57l.2-.2v-.2l-.27.13-.17.64ZM71.65,38.48h-.2v.2h-.2l-.2.2-.44.12.44.48v-.6l.4-.2.2-.2.6-.4.4-.2v-.6h-.56Zm37.2,15.37-.2.2-.2.2v0l.2-.2.2-.2.4.6.78,0L109.7,54l-.07-.71-.74.2Zm-13.53.8.2.2v-.2h-.2l.2-.4.2-.2.2-.2.2-.4-.26-.38-.57.58L95,53.23l0,1,.88-.81-.79,1ZM70.86,45.46v.2l.37-.25,0-.77c-.4-.69-.1-.61-.88-.72ZM97.51,65.82l0-3.61-.24-.38,0,3.61Zm9.95-17.16.2-.6-.36.43-.44,0h-.4v.2l.2.18,0,.59.56.43.4-.6.21-.38v-.42h.2v-.2l-.2.2-.2.4-.7.64-.09-.81Zm-17.5-7c0,.61,0,.44.25,1a1.09,1.09,0,0,0,.35-1,11,11,0,0,0-.25-1.38A3.77,3.77,0,0,0,90,41.67Zm17.7,5.39v.6l.56,0,0,.38-.2.2h.2v-.2c.16-.21.2.19.2-.6a3.8,3.8,0,0,0-.2-1l-.38-.38,0,.82Zm-1-5-.2.2-.2.2-.2.2-.2.2.2-.2.2-.2.2-.2.2-.2.6-.6.59,0V40.27h-.6v.2c.47.13-.46,1.05-.61,1.18ZM70.86,29.5v-.2l-.2-.2-.37-.25,0-.55-.2-.2-.2-.2-.2-.2-.2-.2h-.8l1,.56-.55-.1ZM91.35,45.66l.2.2.2.2h.4l.2.4.2.2.2.2.2.2-.2-.2-.4-.8h-.2l-.2-.6.2-.4.21-.38,0-.42h-.2ZM68.27,42.27l.21-.75-.81,0-.59,0,0,.76Zm22.28-6v.2h-.2l-.2.2-.2.2-.2.2-.2.2v.8l.23-.58.75-.05v-1l.38-.11,2-.09v-.2h-.4Zm17.9,9.78,0-.37-.57-.24h-.41v.2l.2.4v1h-.2l0,1-.36,0-.2.4.44,0,.36-.43v-1l.23-.16,0-.82.38.38-.16-.58Zm-2.78,21.75V61.43l-.2.4V67l0,.42ZM72.05,47.66l.6-.2.8-.4h.2l.2-.2.4-.2.6-.8-.2-.2h-.4l-.6-.2.25.37.77.19-1,.27c-.28.7-.79.75-1.5,1.09Zm-5-4.79-.4-.6a4.71,4.71,0,0,0-1.59-3h-.2l1.49,2.33-.09,1Zm5.37,2.79-.2.2-.2.2-.2.2-.2.2-.2.2-.36,0c-.47,1.18-1.27.77-1.12,2.24l1.08-.88h.6v-.2l.2-.2-.2.2h-.42l-.18.21-.36,0,.76-1.38.2-.2.2-.2.2-.2.56.21-.36-.41.2-.2.2-.2.2-.2-.2.2Zm35.61,2.79h-.2v.42l-.21.38v1.4l.33,0,.47-.94-.25-.63.3-.6-.25-.18ZM89.56,80v-.8l0-2.6.1-1.5-.78,0-.07-.87-.21.94.89.76-.08.49v3.19Zm3.38-2.59,1.61,0,.38.24h.2L95,76.68l-.67-.09-.35.66-.44-.66-.58.23Zm3-23.55-.2.2-.2.2v.6l.2.2v.2l.2.2v.8l.2.2.2-.4v-1.6l-.06-.79Zm-6.76,4.39.2.4-.14,1.18-.37-.39L89,60l.2.2.2.2h.8V60l-.49-.51.08-.67L89.44,58l-.29-.12v.4Zm4-18.16c.56-.64.48-1.18,1.58-1.15l-.64.84.14.15.71-.44.2-1.2-1.43.37-.56.83Zm4.77,7.78-.2.2-.2.2-.2.2h-.2v.2h.2v-.2h.2v-.2l.2-.2.2-.2.86-.12-.46,1.12,1.18-.23.24-.55.36,0,.2.2v0l-.2-.2-.09-.67-.94.53-.38-.53ZM105.07,54l-.13-.83.86.42.26-1.58c0-.28-.2-1.38-.2-2v-.4l-.2.4v2.39l-.09.84-.65-.42-.46.46ZM99.9,49.25v.2l.32-.61Zm-2-1.4-.2.2-.2.2v.2h-.2v.2l.2-.2.4-.2.35-.16-.15.76h.2l.19.24.84-.28.16.23-.38.36.38,0h.2v-.2l-.2-.2.8-.4v-.4l-.2-.2-.36,0-.24.55-1.18.23.46-1.12Zm13.72,1.2-.27.37-.32-.21c-.92.52-.68.13-1.34,1l-.06-.58c0-.5.16-.62.23-1.22l-.61-.58h-.4l0,.44.43.36.05-.6c.54.47.13,1.06-.07,1.82l.42.61,1.06-.8.53.14ZM78.42,64.62l-.6,1.6.6-.2.4-.6.4-.6.2-.2L79.3,63.4Zm3.55.23c-.94-.07-1.37-.05-1.51.91l1.13.55.59-.55Zm-1.36.62h.83v.27Zm24.27-10.84-.4.2.17.33-.37.27-.2.4v.6l.29-.6.29.56,1-.22-.19-.34-.6-.4v-.2h.4l.8.32-1-.88.38,0-.18-.25Zm2,6.59-.12-.27-.27-.13v-.2h-.2l.2.2,0,.38Zm-1.19.2v1.8l.42.17-.17-1,.72.21.07-.84-.4-.18,0-.44-.45-.15,0-.37h-.2Zm2-10.18V52l.47.77.92-1h.2l-.51-1.16-.31.52Zm-45-15.17,1.27.06-.07.74.2.2h.2l-.16-.27.16-.45-.93-.57.18-.9-.25-.19-.38.24-2,.22.77.16,1.35.49Zm1.59,3.19-.47-.53.08-.47a3.81,3.81,0,0,1,.2-1.2l-.2-.2h-.42l-.71-.49-.06-.32h-.8l1.16.63C63.31,38,63,39,64.29,39.28ZM62.7,29.5v.4l.8-.4h.4l.2-.4.2-.2.4-.4.78-.61h.42v-.2l-1.13.06ZM73,36.88v.2l.4-.11-.4-.09.2-.26.79.28.55-.26.25-.55-1.19-.6h-.2l-.74,1.37Zm15.51.4L88.18,37l-.42,0,.38.24.42,0v.2l-.63,1.29-.76-.1.71.23-.11,2.56-.4,3.19c-.16.21-.2-.19-.2.6s.05.45.4.6l-.2-.4v-.8l.4-3.19.38-2,.61-1.39c.09-1.08.91-1.59,1.59-2.2ZM78.42,74.8l.39,0L79.45,73l.45-.17.29-.66.41.79,0-1.78-.36,0H80l-.23.4.25.52-.26.44-.51.06-.3,1.12-.5.52ZM99.7,49.45h-.2l.2.2Zm-.4.6.2-.2-1.27-.73-.12-.27.15-.76-.35.16-.76,2h.56C98.24,50.27,98.51,50.05,99.3,50.05Zm.2-1,.2.2h.2l.32-.41-.32.61-.2.2-.2.2-.2.2-.14.27-2.05,2.12v.2a22.21,22.21,0,0,0,1.63-1.55c.83-.66,1.72-.07,1.71-1.41l-.57.11.65-.73-.24-.4Zm7.36,4.39V53l.06-.39.31.18,0-.38v-2l-.26.15-.44,0-.35,2.1.62,1.15ZM92.14,43.67h.2l.2-.2.2-.2.45-1-.06-1.63-.39,1.59,0-2.79-.24,0ZM77,66.62l-.8,1.2h.41l1,.6V68l.2-.2v-1.6l.6-1.6h-.2A4.1,4.1,0,0,1,77,66.62ZM93.53,48.26v-.2l-.2-.2v-.2l-.27-.13-.13-.27v-.2l-.2-.2-.2-.2h-.2l-.59,0,.08.57.26-.37,1.07,1.82Zm1.19,2-.4-.8-.2-.2v-.2l-.2-.2h-.2l.11.41-.44-.59,0,1.16.29-.15.51.54Zm-28,18.36h3.18L68.47,67h-.56l0,.95-1.05.35Zm41-29.14-.2.2-.2.2-.2.2.2.2h.2l.22-.25.18.25.2.18,0,.58.36.23.24-.94.42-.18.73,0-.58-.14.56-.56h.42v-.2h-2ZM88.76,73.8l.4-1.6v-.8l.06-2,.53.59-.2-1.2a4.6,4.6,0,0,1-.6-2.39v-1.6l-.4-.8.4,4.79v2.59Zm7.56-20.36h-.2l-.2.4-.2.2-.2.2-.2.4h.2v-.4l.2-.2.2-.2.34-.19.06.79V56l-.2.4-.2-.2.2.2.73,1.33.06.46V53l-.26.35Zm-7.16,18v.8l.23.17c0,.85-.08,1.95.58,2.44l.6-.58,0-.49-.44-.31,0-1.65-.34-.43-.51-.9.59,2.12C89.27,72.35,89.65,72.12,89.16,71.41ZM77.82,74.6l-.2-.2.2.2.6.2,0-.54.5-.52.3-1.12.51-.06.26-.44-.25-.52.23-.4h-.6l-.75-.37c0,.82.15.39.15,1.17,0,.57-.54,1.67-.63,2.56Zm14.92,3.79v.8l1.59-.4.6-1.2-.38-.24-1.61,0L93,78Zm13.53-35.12.23,2.18h.76l-.56-.21L108,43.82l-.21-.17-.3.41.07-.77.27-1-.94.43,0,.77.37.79-.42-.12Zm.4-1.2-.2.2-.2.2-.2.2-.2.2.2.4.28-.25.57-.91.79-.05-.45-.58Zm.39.6.59,0-.55.56Zm-34,1.6-1.33.11-1.06-.91-.2-.2h-.2l.25.41-.73,1,1.08.74-.46-1.54c.77.11.47,0,.88.72l0,.77-.37.25-.45.41.38.44.84-.87-.58.16.51-.53.17.29ZM88,45.46v.6l-.2.2-.2.2h-.2l-.2.8-.2.4v.4l-.2.2.4,4.19.4.4-.2-3.59v-1l.2-.2v-1.6l.2-.2.2-.2.6-1Zm-21.68-18c-2.31,0-3.2.95-4.84,2.46l.46,1.53.2.6.09.52.91,1.07v0l-.2-.8-.2-.2-.2-.4-.4-.2-.2-.6.24-1.56.56-.43,2.05-1.73,1.13-.06h.4v-.2l2-.2.4-.2h.4l-.41-.27Zm.8,15.37.2.2h.6l-.4-.32.67-.17.12-.3H67.11l0-.76.59,0L67,41.13l.42-.33-.35-.19.18-.14-1.46-1.33-.73-.07v.2a4.71,4.71,0,0,1,1.59,3Zm5.37-7.58h.2c0-1.23.4-1.66.4-3V30.54l-1.05-1-1.25-1.92-1.27-.53v.2c1.5.4,1.87,2.65,3,3l.19,1.78.08.21-.5,2.61Zm34,25.34v.2l.27.13.12.27h.2c.41-.62,1.16-1,.4-1.59l-.38.77-.07-.84.64-.34-.23-1.79h-1.56l-.6.4.78,0,0,.37.2.18.07.62.36-.41-.39-.58.7.44a5.4,5.4,0,0,0-.15,1.15v.2l0,.78Zm1.79-14.17a3.8,3.8,0,0,1,.2,1c0,.79,0,.39-.2.6v.2h-.2v.2l.2-.2.25.18-.3.6.25.63-.47.94-.33,0v.6l-.25.22.25.18v-.4l.77,0,.31-.52.51,1.16.54-1-.67.37-.28-1.39.43-.77v-.42l-.43-.36,0-.44.17-.33-.33-.32-.24-1v-.2l-.36-.18ZM64.89,38.88v.2h.2l.73.07,1.46,1.33h1.36c0-1.12-.5-.45-1.31-1l.15-.55-.2-.2-.4-.6-1.34-.58,0,.76c.63-.27.35-.35.82.22C65.8,39.1,65.77,38.88,64.89,38.88ZM69.47,27.3v.2l.2.2.2.2.2.2.2.2.4.8.2.2.2.2,1.19,1.8v1.4a3.94,3.94,0,0,1-.4,1.8v.6l.2.2h.4l-.22-.37.5-2.61-.08-.21-.19-1.78c-1.12-.35-1.49-2.6-3-3v-.2h-.8l-.4.2Zm2.59,18.76-.2.2-.2.2-.2.2L70.69,48l.36,0,.18-.21h.42l.2-.2h.2l.12-.27c.71-.34,1.22-.39,1.5-1.09l1-.27-.77-.19-.25-.37h-.2l-.6-.2-.2.2-.2.2-.2.2.36.41Zm-6.68,17-1.24,0c-1.08,1.16-2.25.66-2.83,1.34l1.82,0,.54.44L64.9,65Zm24.18,5.74.11-.41.17.62.27-.4.43,1.78,0-1c0-1.1-.4-2.06-.4-3.19l-.77-.45L89.32,65,89,64.82v1.6A4.6,4.6,0,0,0,89.56,68.81ZM66.88,38.08l.4.6.2.2.44.58.19-.36.77,0-.19-.3.45-.47-.28-.54.79-.33,0-.72-.82,0-.42.36-.93.06ZM80.6,75v5.59l0,2.21.24.38v-1.6L81.24,79l.15-.78V74.62l-.79,0Zm25.06-11.77v5l.2.2L106,66l.5-.4-.45-.33.61-.27-.38-.41.42-1.11.72.34-.18-2.57h-.4l-.37,0,0-.38-.2-.2h-.4l0,.37.45.15,0,.44.4.18-.07.84-.72-.21.17,1ZM58.72,70l.4-.2-.4.2-.41-.19.86-1.42-.45-.56,0-1.6.75-.5-.78-1.32h-1l-.2,0-1.19.23,1.8.35-.25,1.18L58,67.7l.73.72L57.3,70.73l.13.15Zm9.7,12.46h.2l-1.54-3.08,0-.8-.24-2.39-.05-.81.25-1.79V71.86l.78-.45h-1l-.6-.4.28,4-.08,1.6.24,3.19,0,.8Zm24.11-.08V81l.2-.8-.25-.4.25-.2v-1.2l0-1.2-1.55.22.15,3,.44.54.1,1.24.28-.61.09,1.21Zm-2.19-46.5c-.68.61-1.5,1.12-1.59,2.2l-.61,1.39-.38,2-.4,3.19v.8h.4c.09-1.09.81-1.33.8-3.39,0-1.45.2-2.78.2-4l.8-.8.2-.2.2-.2.2-.2.2-.2.2-.2.25-.38h1.34l-.38-.24-.42,0A3.77,3.77,0,0,0,90.35,35.88Zm.2.4-.2.2-.2.2-.2.2-.2.2-.2.2-.8.8c0,1.21-.2,2.54-.2,4,0,2.06-.7,2.3-.8,3.39H88l.6-.4h1.19l-.4-.19-.8-.09.58-.32h.63l.38.22v.4l.25.37.55,0-.8-.8.05-1.2-.91.89c-.19-2.27-.55-4.53.26-6.28v-.8l.2-.2.2-.2.2-.2.2-.2h.2v-.2l2-.2v-.2H90.8ZM66.28,27.7h-.4v.2h-.42l-.78.61-.4.4-.2.2-.2.4h-.4l-.8.4c-.24.5-.2.17-.2.8,0,.84,0,.68.4,1.4l.38-.36,1,.16.4-.2v-.2h2l.4.2.2.2.2.2,1.41.86-.18.67.62.64.55,0,.89,1.08,1.16.74.14-.83-.2-.2-.2-.6h.2v-.2l-.2.2-.37.45-1.42-.65-.56-.67.45-.47L68.33,32l-.86.09-.2-.2-.2-.2-.4-.2-.23-.36-1.76.36h-.4l-1.42-.55.55-.54L63.34,30l.55-.46.2-.4.2-.2.4-.4h1l.23-.59.73.2.27-.4.4-.2-.4.2ZM97.51,48.46l-.2.2h-.2l-.8,1.6-.6.8.41.58V52l.42,0,.58.42,2.05-2.12.14-.27.2-.2.2-.2.2-.2v-.2h-.2v.4l-.2-.2-.38,0,.38-.36-.16-.23-.84.28-.19-.24h-.2l.12.27,1.27.73-.2.2c-.79,0-1.07.22-1.59.2h-.56l.76-2Zm-26.85-5-.2-.2L70.3,43l-.44,0,.4.2h.2l.2.2,1.06.91L73,44.26l1.59-1.6-.4-.2c-1.73-.47-1.15-2.36-2.19-2.79l.26,1.54.53,1-.74.09Zm24.27-4-.71.44-.14-.15.64-.84c-1.09,0-1,.51-1.58,1.15v.6l.06,1.63-.45,1-.2.2-.2.2h-.2v.6h.2v-.6l.2-.2.2-.2,1.35,0,.17-.64.27-.13.2-.4.2-.8v-1.8l.36.23,0,1h.2v-1.2l-.25-.33-.15-1.07v.2Zm12.93.8v1.16l-.59,0,.45.58-.79.05-.57.91-.28.25h.2l.55.89.42.12-.37-.79,0-.77.94-.43-.27,1-.07.77.3-.41.21.17-1.28,1.43.56.21h.61l.57.24,0,.37v.2l.27.13.3.54-.13.31.33-.17,0,.58.2-.8v-.8l-.83-1,.45-1.41-.62-1.59v-.82l-.36-.23,0-.58-.2-.18-.18-.25-.22.25ZM80.6,73v1.6l.79,0v3.57l-.15.78-.44,2.61.55,0,0-1.2.43-.35.38-2.44.43-.36-.44-.82v-2l-.64-.32L81,71l-.77.23.36,0Zm28.64-25.34v.2l.61.58c-.07.6-.25.72-.23,1.22l.06.58c.66-.88.42-.5,1.34-1l.32.21.27-.37v-.4l.2-.2.2-.2.2-.2.12-.31.62-.13.25-.56v-.4H113l-.25.76c-.76,0-.42-.19-1.14-.16h-.56l.49.85.08.53-.7-.44-.2.9h-.22l-.1-1.24-.53-.66.18-.34c0-.94.07-1.4-.48-2.16l-.5.13c.14-.73.07-.32.71-.82l0-.82-.7-.17-.12-.83.12-.68-.62,0v.62l.62,1.59-.45,1.41.83,1v.8ZM88,46.06l-.2.2-.2.2v1.6l-.2.2v1l.2,3.59v.8l.2.4v1.4l.2.4V56l.21.18v.62h.2l.36-1.78-.68.16L88,49.85l-.06-1.2-.54.6v-1l.2-.2.7-.58.25.36a2.94,2.94,0,0,1,2.64-2.18l.2.2.2.2v-.2h-.2v-.2h-.2l-.2-.2-.55,0-.25-.37H88.56Zm18.5,2.2v.2h-.2l-.4,1.2v.4c0,.61.25,1.71.2,2l-.26,1.58-.86-.42.13.83-.2.6-.71-.08-.08,1.27.2-.4,0-.44.23-.16.4-.2.42-.25.18.25,1.59.8,2.17.08.15-.52,1.47-.24-1-.12h-1.41l-.38-.21h-.4l-.2-.2-.6-.8,0,.38-.62-1.15.35-2.1.44,0,.26-.15v-.6h-.42l-.47.46-.12-.85v-.4l.2-.4v-.2h.4l.2-.4Zm-44-16,.2.4.2.2.95,0,2-1.17.89.75-.07,2.23,1.07.23-2,.16-.54.43-1-.05-.57-1.24-.27.47.25.19-.18.9.93.57-.16.45.16.27.67-.56.32.16.43-.36-.2-.89,1-.18.6,0,1.33.1.12-.24-.77-.93-.1-1.47c-1.14-1.12-1.3-1-3-1l-.4.2-.93.92-.47-.72c-.36-.71-.4-.55-.4-1.4,0-.63,0-.3.2-.8l-.36.23,0,.77C62.28,31.48,62.49,31.51,62.5,32.29Zm31.83,46.5.47.53-.08.47v1.8l-.6.6c.54.23.58,1.67.6,2.39h1.39v-2L95.69,82c0-.79.65-4.08.57-4.19l-.62.64.1-.65-.62-.22h-.2Zm13.58-14.31c1.82,3.18,1.06,7.8,1.44,11.52l.87-1-.37-5.61V69l.08-3.74h-1l.1-.58-.76-.47Zm-.25-5.25.58.41.87-1.5,3.36.29.59-1.43-.44-.53v-.62H112l-.4.2-.4.2h-3.18l-.6-.2L107,56l1.5,1.11-.92.33.54,1ZM109,57.67c-.17.84-.74.88-.93,0Zm2.63.6-.8,0c.31-.64,1.12-.49,1.63-.2ZM78.81,62.82l-.2.2,0,.37c-1.07,1-.11.52-1.69,1.3A21.79,21.79,0,0,0,75,65.76c-1,.94-2.27,1.78-3.36,2.65h2.62l.38-.24.61,0,.2-.2L77,66.62a3,3,0,0,1,1.19-2l1.1-2-.3-.24v.2ZM80.6,75V73l-.41-.79-.29.66-.45.17-.64,1.73-.39,0-.6-.2-.2-.2a3.3,3.3,0,0,1-.4-1.6,6,6,0,0,1,.4-1.8l-.53.08-1.21,1.18-.52.23-.2,2.7.89.18c.88-.45,1.31-.66,2.16-.16ZM67.28,43.07l-.2-.2-.79-.23.09-1-1.49-2.33h-.6c-1.27-.3-1-1.23-1.23-2.56l-1.16-.63-3.58-.4,3.51,1.06.16,2,1,.41c.21.9.25,1.12,1.22,1.37C64.5,42.54,65.24,43.08,67.28,43.07ZM78.42,66c.14.22.2-.27.2.6,0,.66-.31.64-.8,1.2l-.2.2v2.59l.22-.38,0-2.11.57.57-.28.65,1.41.64.14,1,1.19-1.27.84-.12.44-1.34-.53-1.56-1.8-.07-.35.55.26.64-.88,0,.34-1-.35-1.27ZM61.11,68l2.41.95,1.71-.09.06.24-.67.55,0,.84.76,0c1,3.33.93,3.83.93,7.47l.05,2.2L68,82.47h.4l-1.09-2.63-.62-.05-.24-3.19.08-1.6-.28-4,0-.56.54-.18L66.28,70l.79-1.06.84.33.35-.47h.81l.2,0,2,.24,1,0,1-.23c1,0,2.17.07,2.78-.8l.2-.2L76,68h-.6l-.2.2-.38.24-.61,0-.16.23-.65-.05-.18.22h-.4l-3-.2H66.68l-2.38-.24-1.6-.56Zm3.54,15.93,2.58-1.48c0-2.79-.91-8.62-2.17-10.85l-.95,0-.65-.83-.33-.94.69-.58-.92,0L62.35,72l2.28.1c0,1.21-.3,3.73-.25,4.71a34.37,34.37,0,0,1,.49,4.55l-.67.48Zm7.2-46.86H73v-.2l-.34,0,.74-1.37-.8-.2h-.6l-.2-.2v-.6a3.94,3.94,0,0,0,.4-1.8v-1.4l-1.19-1.8-.2-.2-.2-.2-.4-.8-.2-.2-.2-.2-.2-.2-.2-.2v-.2H68.27l-2,.2v.2h.6l.4-.2h2.19l.2.2.2.2.2.2.2.2,0,.55.37.25.2.2v.2h.2l.8,4.79v.2h-.2l.2.6.2.2-.14.83-1.16-.74-.89-1.08-.55,0-.62-.64.18-.67-1.41-.86-.2-.2-.2-.2-.4-.2h-2v.2l-.4.2-1-.16-.38.36.47.72.93-.92.4-.2c1.66,0,1.83-.07,3,1l.1,1.47.77.93-.12.24-1.33-.1-.6,0-1,.18.2.89-.43.36v.2l.63,0,.94-.68,1.42.41,1.3-.72,1.36.94.32-.15-.2.34ZM90,84.58h.2l0-.42L90,83.78ZM88.76,61.43v.42l-.21.18v2l.4.8.36.23.07.72.77.45c0,1.14.42,2.09.4,3.19l0,1-.43-1.78-.27.4-.17-.62-.11.41.2,1.2.26.27L91,72.8l0,1.79-1,.67.23,1c-.1.39-.48,3.74-.5,4.21,0,0,.68,3.34.7,4.15h.2l0-7.23,1-.31c-.27-1.18.1-2.44.06-3.64a13.44,13.44,0,0,1,.28-3.78l-.26-.23-.16-.92-.2,1.06c-.38-1.94.92-2,0-3.41l-.72.65-.37-.55,0-.44-.39-.41a9.58,9.58,0,0,1-.24-1.55l0-.65.39-.34.32-1.5.71-.48.81-.22H90.35l-.4-.2h-.6v.42Zm19.69-20.16v.2l.62,0-.12.68.12.83.7.17,0,.82c-.64.5-.57.09-.71.82l.5-.13c.55.77.44,1.22.48,2.16l-.18.34.53.66.1,1.24h.22l.2-.9.7.44-.08-.53-.49-.85h.56c.71,0,.38.16,1.14.16l.25-.76v-.4l-.2-.4v-1.4l-.23-.16,0-.44v-1.4l-.24-.38,0-.62-.23-.16v-.59l-.33-.3,0-.35h-.2l-.6-.6h-1.21l-.56.56.58.14-.73,0-.42.18ZM60.32,33.89l.4.2H63.1v-.4l-.91-1.07-.09-.52-.2-.6L61.44,30c1.63-1.51,2.53-2.46,4.84-2.46l2.37-.67.41.27h.4l1.27.53L72,29.56l1.05,1v1.75c0,1.34-.4,1.77-.4,3l.8.2h.8l-.45-.36.82-.66,0-1.18v-2a30.29,30.29,0,0,0-2.23-3.33,7.4,7.4,0,0,0-4.14-1.43H66.47l-.33.45c-1.27-.06-3.48,0-3.65,1.34l-.13-.18L60,29.8l.13.17a3.83,3.83,0,0,0,1.5,3l-.52.61.56.23ZM70.66,69.41l.74,0L71.63,72l-.95.52.86.32-.52.8.57.61v1.93l.09,1.37a3.87,3.87,0,0,0,2,.45h.6c1.31,0,1.73-.67,3.36-.83l.63-.82.59.44.2.2,1,.23V78.4l-.81,2.19.39,0v1.16l.06.78c.4-.55.35-.43.35-1.18V81c0-.82-.14-.42.31-1l.29.58V76.2l-1.09.69L79,77l-.2-.2-.76-1.22c-2.45-.1-3.39,1.71-5.4.42l-.13-2.53.67-.72.57-2.15.09-1.3.95-.15ZM65.29,36.88l-.4,2v0c.88,0,.91.22,1.43-.4-.47-.56-.18-.49-.82-.22l0-.76,1.34.58.61-1,.93-.06.42-.36.82,0,0,.72-.79.33.28.54-.45.47.19.3-.77,0-.19.36-.44-.58-.2-.2.2.2-.15.55c.81.59,1.27-.07,1.31,1H67.28l-.18.14.35.19-.42.33.65.34.81,0-.21.75-.12.3-.67.17.4.32h2l.44,0,.16.23.2.2L72.1,42.3l.74-.09-.53-1-.26-1.54-1-.2L70.62,39l.44-.12.2-.2.2-.2.4-1.4-.8,0,.2-.34-.32.15-1.36-.94-1.3.72-1.42-.41-.94.68ZM60.71,62l.83-.48,1.27-4.22.71-1.06-.23,1,.36-.23,2.17-7.11c.83-1.57,1.28-3.34,3.25-4.08l1.2,1.42-.57.67-.3,2.1,2.24-2,1-.6.55,0,.25-.37-.8.4-.6.2h-.2l-.2.2v.2h-.6L70,48.93c-.15-1.47.65-1.06,1.12-2.24l.36,0,.2-.2.2-.2.2-.2.2-.2.2-.2.2-.2.2-.2.6.2.5-.72.64-.1.9-.95-.58-.5-.27-.52-.4-.2,0-.37-.55-.25,0-.79L73,39.68l-1.35-.26.56-1.34.4-.2.8-.6h-.8v.6l-.4.2-.6.4-.2.2-.4.2v.6l1,.2c1,.44.46,2.32,2.19,2.79l.4.2L73,44.26l-1.32,1.3-.17-.29-.51.53.58-.16-.84.87-.38-.44.45-.41v-.2l-1.08-.74.73-1-.25-.41-.4-.2h-.8a10.74,10.74,0,0,1-1.34,1.45c-.82.83,0,.85-.43,1.74-.76,1.61-1.32,1.31-1.82,3.59A38.57,38.57,0,0,1,64.23,54a21.42,21.42,0,0,0-1.6,3c-1,.8-1,1.43-1,2.73ZM90.55,36.48v1l-.75.05-.23.58c-.81,1.75-.45,4-.26,6.28l.91-.89-.05,1.2.8.8.2.2h.2v.2h.2v.2h.2l.6.4v.2h.2l-.2-.2-.2-.4h-.4l-.2-.2-.2-.2.8-1.4v-.6l.35-4.22.24,0,0,2.79.39-1.59v-1.2l.56-.83,1.43-.37v-.2l-.2-.6-.2-.2-.2-.2-.2-.2-.4-.2-.2-.2-.8-.2-2,.09Zm-.25,3.81a11,11,0,0,1,.25,1.38,1.09,1.09,0,0,1-.35,1c-.21-.54-.25-.38-.25-1A3.77,3.77,0,0,1,90.3,40.29ZM107.46,56l-.4-.6-1.59-.8-.38,0,1,.88-.8-.32.2.6.19.34-1,.22-.29-.56-.29.6.4.4h.2l1.19.6h1.56l.23,1.79-.64.34.07.84.38-.77c.76.57,0,1-.4,1.59h.2l6.36-.2v-.8l-.2-.2-.24-.38,0-.82-.65-.11.65-.29.23-.36.72-.07.61-.44.44.07h.2l.38-.24.81,0h.4l.19-.34-.77-.29-1,0h-.56l0-.78v-.4l.2-.4v-1.4l-.46.77.06.43v.2l-.09.85h-.2l-.16-.83L114,56l-.83-.32-.52.14-.24-.58c0-1.13-.36-1.62-.36-2.61v-1.6c-.57.41-.4.19-.4,1v2.2c0,.66.07.4-.16.93l.56.67-.4.2-.4.2.4-.2.4-.2h.6v.62l.44.53-.59,1.43-3.36-.29-.87,1.5-.58-.41.47-.77-.54-1,.92-.33L107,56ZM68.67,27.5H67.28l-.4.2-.27.4-.73-.2-.23.59h-1l-.4.4-.2.2-.2.4-.55.46.08.44-.55.54,1.42.55h.4l1.76-.36.23.36.4.2.2.2.2.2.86-.09,1.42,1.14-.45.47.56.67,1.42.65.37-.45.2-.2-.8-4.79h-.2L69.08,28l.55.1Zm.89,1.83v-.47h.22ZM76,68c-.62.87-1.77.8-2.78.8l-1,.23-1,0-2-.24-.2,0h-.81l-.35.47-.84-.33L66.28,70h.6l3.78-.6,4.13-.28-.95.15-.09,1.3-.57,2.15-.67.72L72.65,76c2,1.29,3-.52,5.4-.42l.76,1.22.2.2.5-.1,1.09-.69V75l-2.4.22c-.84-.5-1.27-.29-2.16.16l-.89-.18.2-2.7.52-.23,1.21-1.18.53-.08V68.41l-1-.6h-.41Zm2.59-5,.2-.2.2-.2v-.2l.21-.38v-.62l-.4-.79v-.4l.2-5.59.2-.2.2-.4.2-2v-.8c0-1.5.7-2.28.5-3.82l-.43.7-.27.13-.2.4-.2.4-.2.4-.2.4c0,1.59-.32,1.14-.56,2.24-.19.88.12,1.63-.12,2.6-.54-.48-.42-1.79-1.61-1.18-1.17,2.12-2,3.86-1.14,6.35.7.16.82-.35,1.31-.85.76-.05,1.66.37,1,1.23a8.77,8.77,0,0,1-2.1,3.13l-.1,1,1.46.15.2-1,1.25-.75ZM60.49,68.17v1l-.55,0Zm.62-.16,1.59-.2c-.22-.14.27-.2-.6-.2-.62,0-.6,0-1,.4h-.76l.17-1v-1l.39,0,.17-.33-.41-.44,0-.65.21-.18.1-.48.85-.17.59-.6.12-1,3-.16c-1-.73-2.4-.08-3.41-.23l1.18-4.51.23-1-.71,1.06-1.27,4.22-.83.48-2,.2h-.4l.38.24,1.19,0a.75.75,0,0,1-.78.18l-1.59-.2H56.34l.38.24,1.59,0-.58.19.65.34,0,.21L56,64l-.07.61h.4l1.19-.23.2,0h1l.78,1.32-.75.5,0,1.6.45.56-.86,1.42.41.19.4-.2,1.14,0,.66-1.34,1.38.2.59.56.92,0-.69.58.33.94.65.83.95,0c1.27,2.23,2.17,8.06,2.17,10.85H68l-1.69-2.28L66.28,78c0-3.64.05-4.14-.93-7.47l-.76,0,0-.84.67-.55-.06-.24L63.53,69Zm51.12-20-.2.2-.2.2-.2.2v.4l-.4.77-.53-.14-1.06.8-.42-.61c.2-.76.61-1.35.07-1.82l-.05.6v.42l-.43.77.28,1.39.67-.37-.54,1H109l-.74,1.46-.67-.85,0-.42v-.4l-.25-.18.25-.22v-2l-.4.6-.56-.43,0-.59-.2-.18-.2.4v.4l.12.85.47-.46h.42v2.59l.23.16-.06.62-.57-.18v.4l.6.8.2.2-.2-.2,0-.36.77-.19-.21.75.38.21h1.41l1,.12-1.47.24-.15.52-2.17-.08.4.6.6.2h3.18l.4-.2.4-.2-.56-.67c.24-.53.16-.27.16-.93V52c0-.8-.17-.59.4-1v1.6c0,1,.4,1.48.36,2.61l.24.58.52-.14L114,56l.19-.76.16.83h.2l.09-.85V55l-.06-.43.46-.77.06-2.82-1.25-2.77-.25-.18.25-.22-.2-.2-.5.53-.26-.39-.34.44Zm-3.78,6.19.2-.2.2-.2,0-.36.74-.2.07.71.33.43-.78,0h-.8ZM91.74,60.63l1.63.63-.46.55.24,1-.57.93,1.12.07c-.66,2.13-.27,1.11-.16,3.06.09,1.5-.89.76,1.23,1l-.46.71c.9,1.48.13,5.43,1.07,7.71l.43-.29.47.75,2.31-.44-.1.88.2-.2h.2v-.4l.2-.2.2-.2.25-.82.51.21,0-.58v-.2l-.2-.4v-.2l-.2-.4v-.4l-.2-.4-.4-1.4-.23-.16,0-.44v-.4l-.4-1.2v-.2L98.27,69l0-.44v-.2l-.23-.16,0-.44-.2-.8-.2-.4-.2-.8-.24-.38,0-3.61v-.4l-.74-1-.65.16-.34.22-.06-.42H90l.4.2h1.39ZM90.55,84.58h2c0-1-.28-1.51.4-1.8v-.2l-.4-.2-.32.42-.09-1.21-.28.61L91.75,81l-.44-.54-.15-3,1.55-.22,0,1.2L93,78l0-.62v-.57l.58-.23h.8l.67.09.12.91.62.22-.1.65.62-.64c.08.11-.53,3.4-.57,4.19l.44.54v2h1.39V82l.2-.4c0-.56-.26-.78-.2-1.2l.25-1.79.74-1.21v-.2l.2-.2-.2.2.1-.88-2.31.44L95.83,76l-.43.29c-.94-2.29-.17-6.23-1.07-7.71l.46-.71c-2.12-.25-1.14.5-1.23-1-.12-2-.5-.93.16-3.06l-1.12-.07.57-.93-.24-1,.46-.55-1.63-.63-.81.22-.71.48-.32,1.5-.39.34,0,.65a9.58,9.58,0,0,0,.24,1.55l.39.41,0,.44.37.55.72-.65c.91,1.37-.38,1.47,0,3.41l.2-1.06.16.92.26.23a13.44,13.44,0,0,0-.28,3.78c0,1.2-.32,2.46-.06,3.64l-1,.31Zm5.57-31.13h.2l.23-.4c-.68-.58-.23-.13-.63-1l-.4-1v-.2l-.4-.4-.2-.2h-.2l-.55,0-.51-.54-.29.15,0-1.16.44.59-.11-.41-.2-.6-.37.45-1.07-1.82-.26.37-.08-.57.59,0v-.2l-.6-.4h-.2l-.2-.2-.2-.2a2.94,2.94,0,0,0-2.64,2.18l-.25-.36-.7.58-.2.2v1l.54-.6.06,1.2L88,55.22l.68-.16-.36,1.78,0,.64.23.16.4.2h.2l.29.12.31.87-.08.67.49.51v.42h5.37l.6-.2.8-.8v-1.2l-.06-.46-.73-1.33-.2-.2V56l-.21-.18V55l-.2-.2-.2-.2-.25-.22.79-1-.88.81,0-1,.27.41.57-.58ZM66.88,70l.4.32-.71.6.71.47h.6l.46.14-1,.3.1.7-.16.87-.18.19-.25,1.79.05.81.24,2.39,0,.8,1.54,3.08,2.82-1.76.3,2.37,5.88,1.5,1.17-2.21.42-1.18v-.6L80,78.4V77.23L79,77l-.2-.2-.59-.44-.63.82c-1.63.15-2.06.83-3.36.83h-.6a3.87,3.87,0,0,1-2-.45l-.09-1.37V74.25L71,73.64l.52-.8-.86-.32.95-.52-.23-2.55-.74,0Zm40.38-8.78.18,2.57-.72-.34-.42,1.11.38.41-.61.27.45.33-.5.4-.16,2.45v1.4l.24.38,0,.42V71l.23.16,0,.44V72l.2.4v.2l.2.4v.2l.2.2v.4l.2.4v.2l.26.23-.46.37v2l.21.18v.42l.4,4.19v2.79h2.19l-.2-6.59v-.4l.09-1.06.67.51.24,7.54,2.24-.34,0-.42.79,0V79L113,75.4V70.21l.2-.4V69l.2-.2v-2l.2-.4v-1.8l.2-.4V61.43l-.2-.2V61ZM109.35,76c-.38-3.72.38-8.34-1.44-11.52l.31-.25.76.47-.1.58h1L109.83,69v.4l.37,5.61ZM73.67,63.68,73,62.82c.34-.39.83-.12,1.23.2ZM60.51,67l-.17,1h.76c.4-.35.37-.4,1-.4.86,0,.38.05.6.2l1.6.56,2.38.24.13-.28L67.86,68l0-.95h.56l1.39,1.6,3,.2h.4l.18-.22.65.05.16-.23.61,0,.38-.24.2-.2H76l.2-.2.8-1.2a4.1,4.1,0,0,0,1.19-2h.2l.89-1.22.11,1.22-.2.2.2-.2.24-.38,0-.42v-.4l-.25-2-.54-1.2v.4l.4.79V62l-.21.38.3.24-1.1,2a3,3,0,0,0-1.19,2L75.43,68l-.2.2-.61,0-.38.24H71.62c1.09-.87,2.32-1.71,3.36-2.65A21.79,21.79,0,0,1,76.9,64.7c1.57-.78.62-.33,1.69-1.3l0-.37.2-.2.2-.2-.2.2-.2.2-.45-.26-1.25.75-.2,1-1.46-.15.1-1a8.77,8.77,0,0,0,2.1-3.13c.69-.85-.21-1.28-1-1.23-.49.5-.6,1-1.31.85-.82-2.49,0-4.23,1.14-6.35,1.19-.61,1.07.7,1.61,1.18.24-1-.07-1.72.12-2.6.24-1.1.59-.65.56-2.24l.2-.4.2-.4.2-.4.2-.4.27-.13.43-.7c.2,1.54-.5,2.32-.5,3.82V52l-.2,2-.2.4-.2.2.2-.2.2-.4.25-.56.51-.06.45-3,.51-.75c.67.91-.53,6.23-.53,7.95v.6l-.15,2,.4,1.39-1.11,1.56,1,.21.88-.06.17-1.07L83,61.41l1.81-.18H84L84,60l-1.34-.18-.08-1.42L83,58c0-2.25-.5-3.37-.62-5.19-.2-3.11.25-1.76-1-4.55l-.47.32-.07-1.57h-.2l-.55,0-.65,1.17-.2.4-.2.4-.2.4-.2.4-.7,1.07-.11.92-.26-1-.12.82c-.53.46-2.34,2.82-2.55,2.88C75,52.23,79,46.8,78.94,46.14c-1.18-.12-.83,1.05-1.85,1.24.13-.95,1.92-1.68,1.09-3.08l-.32.54-.44-.37L77,45l0,.42-.2.4-.2.2.2-.2.2-.4.3-.6-.15,1.36-.75,0-.58,0,.18-.17-.38-.24-.81,0-.2-.2.2.2-.6.8-.4.2-.2.2.2-.2.4-.2,2,0c1.79.76-2,5.12-2.5,6.13a8.43,8.43,0,0,0-.68,1.85c-.1.3-.76,1.09-1,1.64-.68,1.38,0,4.3-1,3.81V58.34l-1.52-.7c-.45.8.32,2.75-1.23,5.2-.79,1.24.54,3.74.16,4.17l-.16-.24-.64,0-1,.82-1-.22.12.56c-1-.2-.14-.23-.92-1l-.12-.84-2.3-.37-.91.51L60.93,65l0-.59-.21.18,0,.65.41.44-.17.33.38,0-.37.27.67.82.7.16,0,.2-1.34-.41Zm18.1-17.16.2-.4.2-.4.2-.4.2-.4.65-1.17.55,0-.4-1V43.47l-1,.38-.24-1v1l-.55.21c-.42-8.36.11-6.35-.62.21l-.57-.39.14.59-.35,0-.82-1.21c-.6-.28-.79-.21-1-.94l-.55,0-.5-2.46L73,39.68l-.38-.52,1.24-1L77,37.68v-.2l-3.58-.2-.8.6-.4.2-.56,1.34,1.35.26.59,1.4,0,.79.55.25,0,.37.4.2.27.52.58.5-.9.95-.64.1-.5.72h.2l.6.2h.4l.2.2.81,0,.38.24h.6l.2-.2.2-.4L77,45l.42-.57.44.37.32-.54c.83,1.4-1,2.14-1.09,3.08,1-.19.67-1.36,1.85-1.24.07.66-3.93,6.09-4.07,8.41.21-.07,2-2.42,2.55-2.88l.12-.82.26,1,.11-.92Zm-9.55-6.79h-.8c-2.33,1-1.95,1-1.83,3.13-.54.8-2,1.89-2.24,3-.36,1.82-1.1,2.23-1.09,4.31l-.81.13c-.82,1.27-1.13,2.81-2.16,4.06-.63.76-1.62,3.72-1.41,4.57l2-.2.91-2.32c0-1.3,0-1.93,1-2.73a21.42,21.42,0,0,1,1.6-3,38.57,38.57,0,0,0,1.25-4.13c.49-2.28,1.05-2,1.82-3.59.42-.89-.39-.91.43-1.74A10.74,10.74,0,0,0,69.07,43.07ZM60.91,66l-.39,0v1l.39.06,1.34.41,0-.2-.7-.16-.67-.82.37-.27ZM74.24,46.66l-.4.2-.2.2h-.2l-.25.37-.55,0-1,.6-2.24,2,.3-2.1.57-.67-1.2-1.42c-2,.74-2.41,2.51-3.25,4.08L63.66,57l-.36.23-1.18,4.51c1,.16,2.42-.49,3.41.23l-3,.16-.12,1-.59.6-.85.17-.1.48,0,.59.67,1.27.91-.51,2.3.37.12.84c.78.77-.07.8.92,1l-.12-.56,1,.22,1-.82.64,0,.16.24c.38-.44-1-2.93-.16-4.17,1.55-2.45.78-4.4,1.23-5.2l1.52.7v1.71c1,.49.32-2.43,1-3.81.27-.55.93-1.33,1-1.64a8.43,8.43,0,0,1,.68-1.85c.51-1,4.29-5.37,2.5-6.13ZM64.9,65l-1.24-.18-.54-.44-1.82,0c.58-.68,1.75-.18,2.83-1.34l1.24,0Z"/></svg>