<svg id="Layer_1" data-name="Layer 1" xmlns="http://www.w3.org/2000/svg" viewBox="0 0 200 200"><defs><style>.cls-1{fill:#4b545d;}</style></defs><title>PARTNERLOGO</title><path class="cls-1" d="M100,141.88A54.27,54.27,0,1,0,45.73,87.61,54.27,54.27,0,0,0,100,141.88ZM72,79.11l10-20.87,4.26,17.17L99.95,52.2l14,23.21,4-17.17L128,79.11l3.47,34.1H111.24L111.14,96c-.12-6.38-4.92-11.72-11.19-11.72S88.86,89.66,88.86,96v17.17H68.51Zm59.63,74.34c-2.74,0-4.43,2-4.43,4.93,0,3.06,1.85,4.86,4.8,4.86a5.15,5.15,0,0,0,3.15-.82,11.43,11.43,0,0,1-.18-1.85,6.29,6.29,0,0,1-2.9.54c-1.54,0-2.45-.64-2.6-2a9.89,9.89,0,0,0,1.7.11h4.57v-.73C135.73,155,134.24,153.45,131.61,153.45Zm-.05,4.23a16.69,16.69,0,0,0-2.15.13,1.92,1.92,0,0,1,2.17-2.2c1.43,0,1.93.59,1.93,2.19A16.71,16.71,0,0,0,131.56,157.68Zm19.35-3.89c-.2.72-.54,1.74-1.09,3.26a16.47,16.47,0,0,0-.9,3.39h-.05a15.82,15.82,0,0,0-1-3.39c-.5-1.29-.91-2.37-1.22-3.26-.59,0-.77,0-1.31,0s-1.06,0-1.33,0c.11.59.29,1.13,2.13,5.11.93,2,1.29,2.92,1.61,3.57a11.92,11.92,0,0,0-.9,1.81c-.36.82-.63,1.42-1,2.19.63,0,.9,0,1.52,0,.45,0,1,0,1.24,0,.43-1.24.84-2.28,2-5.2,1.83-4.66,2.72-6.7,2.92-7.47-.57,0-.83,0-1.26,0S151.43,153.83,150.91,153.79Zm-82.07,3.42c0-2.6-1.22-3.73-3.92-3.73a3.78,3.78,0,0,0-3.28,1.34,8.63,8.63,0,0,1,.23,1.86l0,0a3.46,3.46,0,0,1,2.85-1c1.4,0,1.85.25,1.85,1.38v.47h-.45c-3.23,0-4.82.79-4.82,3,0,1.77,1.17,2.8,3,2.8a2.27,2.27,0,0,0,2.47-1.76h.07a9.72,9.72,0,0,0,.2,1.47l1,0c.3,0,.64,0,.93,0a14.19,14.19,0,0,1-.22-2.42ZM66.6,160.6a1.85,1.85,0,0,1-1.7.73c-1,0-1.4-.32-1.4-1.06s.5-1.06,1.67-1.13A12.75,12.75,0,0,0,66.6,159ZM140.73,154l-.05,0a21.17,21.17,0,0,0,.18-2.15,12.46,12.46,0,0,1-2.17.22,11.94,11.94,0,0,0,.16,1.93l0,0a17.18,17.18,0,0,0-2-.14,11.16,11.16,0,0,1,.05,1.18,11,11,0,0,1-.05,1.11,9.94,9.94,0,0,0,1.94-.23l.05,0a35.28,35.28,0,0,0-.29,4.1c0,2.15.81,3.14,2.81,3.14a8,8,0,0,0,2-.25c0-.38-.09-.79-.09-1.13s0-.66,0-.93a6,6,0,0,1-1,.07c-1.31,0-1.47-.21-1.47-1.67a27.45,27.45,0,0,0-.22-3.31l.05-.07a19.72,19.72,0,0,0,2.76.25c0-.43-.05-.66-.05-1.06a10.29,10.29,0,0,1,.05-1.24A25.85,25.85,0,0,0,140.73,154Zm-81.41-.18c-.48,0-.64,0-1.24,0-.16.84-.54,2-.81,3.1s-.59,2.56-.75,3.65h-.05a28.38,28.38,0,0,0-1-3.94c-.45-1.36-.77-2.29-1-2.81-.2,0-.61,0-.95,0s-.75,0-1,0c-.23.54-.52,1.43-1,2.81a33.55,33.55,0,0,0-1,3.94h0c-.16-1.06-.43-2.26-.77-3.65-.27-1.11-.63-2.24-.81-3.1-.48,0-.77,0-1.27,0s-.61,0-1.16,0A35.6,35.6,0,0,0,48,159c.57,1.76,1,3,1.24,4,.36,0,.7,0,1.08,0s.84,0,1,0c.14-.32.9-2.08,1.38-3.62a15.14,15.14,0,0,0,.73-3.15h.05a14.36,14.36,0,0,0,.75,3.12c.52,1.54,1.25,3.35,1.38,3.66.18,0,.7,0,1.09,0s1,0,1,0c.21-1,.59-2.11,1.22-4a47.05,47.05,0,0,0,1.52-5.21A8.45,8.45,0,0,1,59.32,153.83Zm64.53-4c-.59,0-1,0-1.47,0a10,10,0,0,1,0,1.09c0,.45,0,.66,0,1.13.5,0,.82,0,1.47,0s1,0,1.47,0c0-.48,0-.68,0-1.13s0-.66,0-1.09C124.89,149.78,124.46,149.8,123.85,149.8Zm-16.61,3.65c-2.71,0-4.59,1.9-4.59,4.84s1.81,5.05,4.59,5.05,4.59-2.06,4.59-5S109.94,153.45,107.24,153.45Zm0,7.71c-1.58,0-2.37-1.24-2.37-2.83s.81-2.67,2.38-2.67,2.35,1,2.35,2.67S108.82,161.16,107.24,161.16Zm-29-3.94c0-2.6-1.22-3.73-3.92-3.73a3.78,3.78,0,0,0-3.28,1.34,8.63,8.63,0,0,1,.23,1.86l0,0a3.46,3.46,0,0,1,2.85-1c1.4,0,1.85.25,1.85,1.38v.47h-.45c-3.23,0-4.82.79-4.82,3,0,1.77,1.17,2.8,3,2.8a2.27,2.27,0,0,0,2.47-1.76h.07a9.71,9.71,0,0,0,.2,1.47l1,0c.3,0,.64,0,.93,0a14.23,14.23,0,0,1-.22-2.42ZM76,160.6a1.85,1.85,0,0,1-1.7.73c-1,0-1.4-.32-1.4-1.06s.5-1.06,1.67-1.13A12.77,12.77,0,0,0,76,159Zm42.2-4.82a2.87,2.87,0,0,1,2.33.84,10.32,10.32,0,0,1,.29-2.1,3.23,3.23,0,0,0-2.69-1,4.56,4.56,0,0,0-4.78,4.8,4.6,4.6,0,0,0,4.73,4.93,3.7,3.7,0,0,0,2.6-.95,12.65,12.65,0,0,1-.2-2.08,3.3,3.3,0,0,1-2.28.75,2.41,2.41,0,0,1-2.6-2.62A2.38,2.38,0,0,1,118.22,155.78Zm5.65-2c-.54,0-.77,0-1.25,0,0,1.45.09,3.19.09,4.8,0,1.31,0,2.9,0,4.43.47,0,.74,0,1.2,0s.77,0,1.24,0c0-1.54-.05-3.12-.05-4.43,0-1.61.05-3.23.11-4.8C124.71,153.81,124.33,153.83,123.87,153.83Zm-25.25,3.89c-1.7-.32-1.83-.45-1.83-1s.5-1,1.77-1a4.32,4.32,0,0,1,2.22.45,8.61,8.61,0,0,1,.25-2,4.11,4.11,0,0,0-2.6-.72c-2.51,0-3.89,1.2-3.89,3.07,0,1.4.66,2.22,2.51,2.54,1.61.29,1.79.43,1.79,1s-.36,1-1.54,1a5.74,5.74,0,0,1-2.28-.45,14,14,0,0,1-.18,2,4.57,4.57,0,0,0,2.53.64c2.29,0,3.67-1.09,3.67-3C101.06,158.74,100.32,158,98.62,157.72ZM87,153.79a7.5,7.5,0,0,0-.23,1.09l-.05,0a2.43,2.43,0,0,0-2.47-1.36c-2.53,0-4.14,1.7-4.14,4.48a4.12,4.12,0,0,0,4.18,4.41,2.33,2.33,0,0,0,2.2-1.45l0,0a6.62,6.62,0,0,0-.05.74v.43c0,1.6-.72,2.26-2.4,2.26a6.83,6.83,0,0,1-2-.25,15.84,15.84,0,0,1-.16,2,5,5,0,0,0,2.24.47c2.67,0,4.55-1.38,4.55-4.78v-3.78c0-1.58,0-2.85.09-4.3-.43,0-.65,0-.91,0S87.38,153.81,87,153.79Zm-.57,4.32c0,.66,0,1.2.05,1.4a2.06,2.06,0,0,1-1.9.81,2,2,0,0,1-2.2-2.28c0-1.4.61-2.2,2.11-2.2a2.87,2.87,0,0,1,2,.57A16.36,16.36,0,0,0,86.47,158.11Z"/></svg>