<svg id="Layer_1" data-name="Layer 1" xmlns="http://www.w3.org/2000/svg" viewBox="0 0 200 200"><defs><style>.cls-1{fill:#4b545d;}</style></defs><title>PARTNERLOGO</title><path class="cls-1" d="M158.16,95c-3.11-2.31-19.61-15.53-19.61-15.53V83.5S151.94,93,158.21,97.21c6.44,4.29,11.84,4.68,19,5.58S195,105.26,195,105.26v-1l-17.81-2.56C165.27,100,161.27,97.26,158.16,95Zm.1,4.78C155.1,98,138.55,86.84,138.55,86.84V90.6s13.74,8.12,19.61,11.34,11.13,4.37,19,5.23,17.86,2,17.86,2v-1l-17.81-2.26C165,104.35,161.42,101.49,158.26,99.73Zm-.12-9.85c-5.18-4.63-19.59-18.17-19.59-18.17v4.42s13.7,11.43,19.59,16.21c5.11,4.14,10.37,4.68,18.9,6s18,2.92,18,2.92v-1s-7.45-1.16-17.94-3S162.91,94.13,158.14,89.87Zm-.05-19.81c-2.31-3.12-19.54-28.56-19.54-28.56v5.74c0,.9,15.41,20.4,19.59,25.78,4.71,6.06,11.92,7.44,19,9S195,85.59,195,85.59v-.8s-14.39-2.85-17.94-3.61C163.33,78.21,160.4,73.18,158.09,70.06Zm.05,34.74c-5-2.51-19.59-10.54-19.59-10.54v3.52s13.65,6.45,19.59,9.08c6.65,2.95,9.75,3.35,19,4.22S195,112.9,195,112.9V112s-9.36-1-17.94-2C168.36,108.95,163.71,107.61,158.14,104.81Zm0-25c-3.13-3.42-19.59-22.28-19.59-23.07v5s14.76,15.92,19.56,20.62c6.3,6.17,12.09,6.64,19.07,7.89S195,93.49,195,93.49v-.85s-13.24-2.36-17.94-3.27C165.34,87.09,163.11,85.21,158.14,79.77Zm0,5.38c-4.43-4.61-19.59-20.68-19.59-20.68v4.73s15.22,14.44,19.54,18.42c4.82,4.44,10.54,5.25,19,6.69,8.59,1.47,18,3,18,3v-.91s-10-1.64-18-3.07C168.69,91.85,162.84,90,158.14,85.15ZM138.55,124.8v3H195v-1s-32.24-1.31-36.86-1.41S138.55,124.8,138.55,124.8ZM158.26,110c-8.2-3.25-19.71-8.25-19.71-8.25v3.37s12.67,4.47,19.66,6.8,10.48,2.62,19,3.37S195,116.82,195,116.82v-.9s-15.6-1.62-17.76-1.86C172.37,113.51,166.33,113.24,158.26,110Zm-.05,10.31C148,118.66,138.55,117,138.55,117v3s10.15,1.31,19.61,2.29c4.22.44,11.54.89,19,1.31,7.18.4,17.86,1,17.86,1v-.9s-16.76-1.16-17.86-1.21S165.84,121.61,158.21,120.34Zm0-5.13c-8-2.11-19.66-5.76-19.66-5.76v3.17s14.39,3.46,19.61,4.61c4.7,1,11,1.64,19,2.21,9.9.71,17.86,1.26,17.86,1.26v-.86s-14.1-1.15-17.81-1.41A107.9,107.9,0,0,1,158.21,115.22Zm-.12-40.12c-3.31-4.32-19.54-25.95-19.54-25.95v5.44c0,.81,15.53,18.61,19.56,23.22,4.7,5.38,11.13,6.79,19.07,8.25S195,89.42,195,89.42v-.8s-11.43-2.14-17.94-3.42C165.79,83,161.4,79.41,158.09,75.09ZM177.18,77c-12.46-2.64-15.81-6.53-18.89-11.45s-19.75-31.75-19.75-31.75v6.34S154.29,63,158.16,68.4c4.64,6.46,8.69,7.23,18.89,9.51s18,4,18,4v-1S189.64,79.67,177.18,77ZM43.69,166.18h82v-4.68h-82Zm.2-81.42V82c-5.34.32-10.25.65-15.41,1L5,84.62V88.3l23.76-2.2C33.41,85.68,38.55,85.22,43.9,84.76Zm0,18.83L5,104.3V108l38.93-1.68Zm0-26.85L5,79.59v3.67L43.9,79.47Zm0,16.13Q24.43,93.64,5,94.52v3.67c13-.9,26-1.77,38.93-2.61Zm0,32.22L5,124.1v3.74H43.9Zm0-52.21H56.28l5-.53c2.44-.28,4.54-.6,6.48-1a45.75,45.75,0,0,0,12.6-4.17c3.76-1.92,7.36-5.1,10.85-8.47a69.26,69.26,0,0,0,6.85-8.25V49.27a49,49,0,0,1-7.95,8.84,43.67,43.67,0,0,1-10.61,7.44,43.73,43.73,0,0,1-12.16,3.72c-1.92.32-3.89.58-6.26.8L5,74.72V78.4L43.9,74.25Zm0,46.89c-13-.2-26.22-.44-38.93-.68v3.66c12.11-.08,25.19-.18,38.93-.31Zm0-32.28c-13,.61-25.53,1.28-38.93,2v3.67c12.82-1,26-2,38.93-3ZM98.09,57a85.7,85.7,0,0,1-8.28,8c-3.56,2.88-6.23,4.92-10.58,6.66a10.79,10.79,0,0,1-3.76,1.21h5.25c3.47-1.53,6.85-4.27,10.13-7a55.38,55.38,0,0,0,7.24-7.54ZM43.9,116.88v-2.67c-6.11,0-11.2,0-16.5,0L5,114.19v3.66l22.48-.59C32.71,117.13,37.79,117,43.9,116.88Zm0-8c-13,.07-26.28.18-38.93.29v3.66c12-.43,25.19-.87,38.93-1.28Zm0-10.66L5,99.29V103l38.93-2Zm14-31c1.42-.16,2.83-.32,4.25-.5,2.46-.33,4.61-.71,6.58-1.16a41.65,41.65,0,0,0,12.58-5c3.63-2.2,6.7-5.28,10.15-9,2.15-2.34,4.34-5.65,6.63-8.76V41.47a59.53,59.53,0,0,1-7.47,9.22A46.66,46.66,0,0,1,80.35,59a39.46,39.46,0,0,1-12.08,4.45c-1.93.39-4,.71-6.4,1-1.41.15-2.81.28-4.23.4l-2.2.2C38.15,66.6,21,68.27,5,69.84v3.69c16-2,33.43-4.06,50.71-6Zm11.56-7.75a41.77,41.77,0,0,0,12.46-5.71c3.56-2.41,6.72-5.91,10-9.76a46.19,46.19,0,0,0,6.17-8.71V33.82A71.6,71.6,0,0,1,91,43.32a50,50,0,0,1-10.09,8.89,39.7,39.7,0,0,1-12,5.18,59.61,59.61,0,0,1-6.42,1.24c-1.56.22-3.07.39-4.63.56L5,64.85v3.69s56.31-7.35,57.91-7.62A61,61,0,0,0,69.46,59.49ZM87.69,72.89h3.1A49.77,49.77,0,0,0,98.09,66V64.7c-3.05,3-4.61,4.63-7.92,6.83A16.17,16.17,0,0,0,87.69,72.89Zm37.12.76H44.66v54.2h80.15ZM100.61,87l.84,2.67h2.85L102,91.49l.89,2.78-2.29-1.66-2.29,1.7.9-2.82-2.32-1.81h2.84ZM93,82.81l.86-2.67.84,2.67H97.6l-2.3,1.89.89,2.82L93.9,85.88l-2.29,1.71.9-2.89-2.32-1.88Zm-18.38,0,.86-2.67.84,2.67h2.85l-2.3,1.9.89,2.82L75.52,85.9l-2.29,1.71.9-2.9-2.32-1.89Zm-6.53,6.87L69,87l.84,2.67h2.86l-2.3,1.83.89,2.79L69,92.63l-2.29,1.7.9-2.83-2.32-1.82Zm-5.27,9.16H65.7l.86-2.66.84,2.66h2.86L68,100.61l.89,2.76-2.29-1.67-2.29,1.69.9-2.78ZM69,111l-2.29,1.69.9-2.87L65.28,108h2.85l.86-2.66.84,2.66h2.86l-2.3,1.86.89,2.8Zm8.91,8.31-2.29-1.69-2.29,1.69.9-2.74-2.32-1.73h2.84l.86-2.67.85,2.67h2.85L77,116.6Zm6-38.83.86-2.77.84,2.77h2.85l-2.3,1.88L87,85.29l-2.29-1.73-2.29,1.76.9-2.93L81,80.52Zm3.26,41.23-2.29-1.68-2.29,1.68.9-2.8-2.32-1.79H84l.86-2.67.84,2.67h2.86L86.24,119Zm9.05-2.42-2.29-1.69-2.29,1.69.9-2.73-2.32-1.72H93l.86-2.67.84,2.67H97.6l-2.3,1.72Zm6.71-6.62L100.61,111l-2.29,1.69.9-2.86L96.91,108h2.84l.86-2.67.84,2.67h2.85l-2.3,1.85Zm2.52-9.33-2.29-1.69-2.29,1.69.9-2.77-2.32-1.76h2.84l.87-2.66.84,2.66h2.86l-2.3,1.76ZM53.49,134.19c.19,0,.26-.08.26-.23v-.8a.22.22,0,0,0-.25-.25H48.75a.23.23,0,0,0-.26.26v8.1c0,.15.08.23.26.23h4.82c.18,0,.25-.06.25-.23v-.79c0-.17-.08-.25-.23-.25H50v-2.55h3.13c.19,0,.26-.08.26-.23v-.8c0-.15-.09-.23-.26-.23H50v-2.23Zm3,7.42a4.25,4.25,0,0,0,2.17-.78h0v.4c0,.15.05.25.25.25h.92c.18,0,.25-.08.25-.25v-5.83c0-.17-.06-.26-.25-.26H58.9c-.19,0-.25.1-.25.26v4.32a5,5,0,0,1-1.75.58c-.79,0-.94-.49-.94-1.27v-3.63c0-.17-.06-.26-.23-.26h-.94c-.18,0-.25.1-.25.26v3.8C54.54,140.58,54.71,141.61,56.45,141.61Zm5.87-6.45h-.92c-.18,0-.25.09-.25.26v5.83c0,.17.06.25.25.25h.93a.21.21,0,0,0,.25-.25v-4.17a12.69,12.69,0,0,1,2.1-.59c.27-.05.26-.13.25-.31l-.09-.87c0-.22-.14-.26-.31-.22a4.8,4.8,0,0,0-1.91.92l0,0v-.57A.23.23,0,0,0,62.32,135.16ZM68,135c-2.5,0-2.77,2-2.77,3.2,0,1.47.17,3.38,2.77,3.38s2.86-1.9,2.86-3.38S70.52,135,68,135Zm0,5.33c-1.09,0-1.33-.67-1.33-2s.25-2,1.35-2,1.4.67,1.4,2S69.19,140.36,68,140.36Zm4.75-5.2h-.92c-.18,0-.25.09-.25.26v8.2c0,.17,0,.26.25.26h.92c.21,0,.25-.12.25-.26v-2.28h0a5.14,5.14,0,0,0,1.62.28c2,0,2.57-1.22,2.57-3.32,0-2-.44-3.23-2.14-3.23a4,4,0,0,0-2,.78l0,0v-.39C73,135.26,72.94,135.16,72.76,135.16Zm.25,1.77a4.64,4.64,0,0,1,1.73-.58c.69,0,1,.28,1,1.93s-.32,2.11-1.25,2.11a5.18,5.18,0,0,1-1.49-.22Zm10.49,1c0-1.4-.45-2.9-2.77-2.9C78.2,135,78,137.1,78,138.36c0,1.68.36,3.26,2.83,3.26a7,7,0,0,0,2.08-.32c.23-.1.26-.21.22-.4l-.08-.43c0-.25-.12-.25-.35-.22-.49.05-1.22.14-1.68.14-1.06,0-1.53-.36-1.57-1.67h3.43C83.38,138.72,83.51,138.39,83.49,137.93Zm-4-.18c.06-1,.32-1.55,1.28-1.55S82,137,82,137.75Zm10.45,3.75c.22,0,.31-.13.31-.27v-.54c0-.14-.05-.18-.25-.19-.4-.05-.47-.06-.47-.59v-2.5c0-1.45-.27-2.37-2.51-2.37a8.18,8.18,0,0,0-2.19.28c-.28.12-.32.22-.3.39l.12.48c0,.18.1.19.36.15.52-.05,1.33-.12,1.76-.12,1.06,0,1.34.27,1.34,1v.34H86.43c-1.63,0-2.44.65-2.43,2.16,0,1.09.4,1.84,1.77,1.84a4.05,4.05,0,0,0,2.38-.84h0c.13.61.5.79,1.11.79A3.41,3.41,0,0,0,89.89,141.5Zm-1.82-1.66a4.35,4.35,0,0,1-1.84.61c-.61,0-.8-.18-.8-.75,0-.85.41-1.09,1.06-1.09h1.58Zm6.84,1.66h.93c.19,0,.25-.09.25-.25V137.5c0-1.31-.16-2.46-1.9-2.46a4.28,4.28,0,0,0-2.17.78h0v-.39c0-.17-.06-.26-.25-.26h-.92c-.18,0-.25.09-.25.26v5.83c0,.17.06.25.25.25h.92c.18,0,.25-.09.25-.25v-4.32a5.47,5.47,0,0,1,1.77-.58c.75,0,.93.5.93,1.27v3.63A.21.21,0,0,0,94.91,141.5ZM52,155.27a7.37,7.37,0,0,0,2.39-.39.31.31,0,0,0,.22-.41l-.1-.49c-.05-.17-.1-.23-.35-.21a15.5,15.5,0,0,1-2.08.17c-1.69,0-2-1.33-2-3s.26-3.1,2-3.1a18,18,0,0,1,2.08.17c.23,0,.3,0,.34-.19l.12-.53c0-.21,0-.31-.25-.4a7.09,7.09,0,0,0-2.37-.37c-2.95,0-3.49,2.25-3.49,4.46S49.08,155.27,52,155.27Zm5.53,0c2.68,0,2.86-1.9,2.86-3.38s-.35-3.2-2.86-3.2-2.77,2-2.77,3.2C54.73,153.35,54.9,155.25,57.5,155.25Zm0-5.33c1.18,0,1.4.67,1.4,2s-.23,2-1.41,2-1.33-.67-1.33-2S56.41,149.92,57.51,149.92Zm11.69,5.23h.93c.18,0,.23-.09.23-.25v-3.8c0-1.29-.17-2.41-1.88-2.41a4,4,0,0,0-2.28.9,1.75,1.75,0,0,0-1.77-.9,3.87,3.87,0,0,0-1.93.76h0v-.38a.23.23,0,0,0-.26-.26h-.92c-.17,0-.23.09-.23.26v5.83c0,.17.06.25.23.25h.93a.21.21,0,0,0,.25-.25v-4.32a4.51,4.51,0,0,1,1.67-.58c.65,0,.85.38.85,1.16v3.74c0,.17.05.25.22.25h.94c.19,0,.25-.09.25-.25v-3.66c0-.3,0-.53,0-.66a4.68,4.68,0,0,1,1.65-.58c.65,0,.88.27.88,1.23v3.67C69,155.07,69,155.15,69.21,155.15Zm10.14,0h.93c.18,0,.23-.09.23-.25v-3.8c0-1.29-.17-2.41-1.88-2.41a4,4,0,0,0-2.28.9,1.75,1.75,0,0,0-1.77-.9,3.87,3.87,0,0,0-1.93.76h0v-.38a.23.23,0,0,0-.26-.26h-.92c-.17,0-.23.09-.23.26v5.83c0,.17.06.25.23.25h.93a.21.21,0,0,0,.25-.25v-4.32a4.51,4.51,0,0,1,1.67-.58c.65,0,.85.38.85,1.16v3.74c0,.17.05.25.22.25h.94c.19,0,.25-.09.25-.25v-3.66c0-.3,0-.53,0-.66a4.68,4.68,0,0,1,1.65-.58c.65,0,.88.27.88,1.23v3.67C79.1,155.07,79.16,155.15,79.34,155.15Zm2.48-6.34c-.18,0-.26.06-.26.25v5.85c0,.17.08.25.26.25h.92c.18,0,.23-.1.23-.25v-5.85c0-.14-.05-.25-.23-.25Zm.47-2.42c-.62,0-.76.32-.76.74s.09.75.76.75.76-.35.76-.75S82.92,146.39,82.29,146.39Zm3.88,7.68a14.21,14.21,0,0,1-1.84-.15c-.21,0-.3,0-.34.19l-.09.43c0,.21,0,.32.27.43a6.45,6.45,0,0,0,2,.28c1.33,0,2.61-.49,2.61-2s-1.11-1.79-2.34-2c-.79-.13-1.1-.19-1.1-.7s.19-.72,1-.72c.48,0,1.2.08,1.76.14.23,0,.31,0,.35-.18l.1-.47c0-.19-.05-.3-.27-.39a6.52,6.52,0,0,0-2-.28c-1.45,0-2.43.67-2.43,2s1.11,1.68,2.38,1.86c.82.12,1,.25,1,.84S87,154.07,86.17,154.07Zm3.43.89a6.45,6.45,0,0,0,2,.28c1.33,0,2.61-.49,2.61-2s-1.11-1.79-2.34-2c-.79-.13-1.1-.19-1.1-.7s.19-.72,1-.72c.48,0,1.2.08,1.76.14.23,0,.31,0,.35-.18l.1-.47c0-.19-.05-.3-.27-.39a6.52,6.52,0,0,0-2-.28c-1.45,0-2.43.67-2.43,2s1.11,1.68,2.38,1.86c.82.12,1,.25,1,.84s-.34.74-1.16.74a14.21,14.21,0,0,1-1.84-.15c-.21,0-.3,0-.34.19l-.09.43C89.29,154.75,89.34,154.86,89.6,155Zm6.21-8.58c-.62,0-.76.32-.76.74s.09.75.76.75.76-.35.76-.75S96.44,146.39,95.8,146.39Zm-.47,2.42c-.18,0-.26.06-.26.25v5.85c0,.17.08.25.26.25h.92c.18,0,.23-.1.23-.25v-5.85c0-.14-.05-.25-.23-.25Zm2.11,3.06c0,1.47.17,3.38,2.77,3.38s2.86-1.9,2.86-3.38-.35-3.2-2.86-3.2S97.45,150.66,97.45,151.88Zm4.18.09c0,1.38-.23,2-1.41,2s-1.33-.67-1.33-2,.25-2,1.34-2S101.62,150.6,101.62,152Zm6.49,3.18H109c.19,0,.25-.09.25-.25v-3.75c0-1.31-.16-2.46-1.9-2.46a4.28,4.28,0,0,0-2.17.78h0v-.39c0-.17-.07-.26-.25-.26H104c-.18,0-.25.09-.25.26v5.83c0,.17.06.25.25.25h.92a.21.21,0,0,0,.25-.25v-4.32A5.47,5.47,0,0,1,107,150c.75,0,.93.5.93,1.27v3.63A.21.21,0,0,0,108.12,155.15Z"/></svg>